<svg width="16" height="17" viewBox="0 0 16 17" fill="none" xmlns="http://www.w3.org/2000/svg">
<path d="M14.9883 3.17955L8.98828 0.679543C8.80372 0.602979 8.61154 0.564697 8.41172 0.564697C8.21191 0.564697 8.01972 0.602979 7.83516 0.679543L1.83516 3.17955C1.27578 3.4108 0.910156 3.95767 0.910156 4.56392C0.910156 10.767 4.48828 15.0545 7.83204 16.4483C8.20079 16.6014 8.61641 16.6014 8.98516 16.4483C11.6633 15.3327 15.9102 11.4795 15.9102 4.56392C15.9102 3.95767 15.5446 3.4108 14.9883 3.17955ZM8.41329 14.5108L8.41016 2.60455L13.9071 4.89517C13.804 9.62642 11.3414 13.0545 8.41329 14.5108Z" fill="black" fill-opacity="0.902"/>
</svg>
