<svg width="123" height="123" viewBox="0 0 123 123" fill="none" xmlns="http://www.w3.org/2000/svg">
<g filter="url(#filter0_dd_1123_561)">
<path d="M14.1113 49.3886C14.1113 23.4108 35.1705 2.35156 61.1484 2.35156C87.1262 2.35156 108.185 23.4108 108.185 49.3886C108.185 75.3664 87.1262 96.4256 61.1484 96.4256C35.1705 96.4256 14.1113 75.3664 14.1113 49.3886Z" fill="url(#paint0_linear_1123_561)" shape-rendering="crispEdges"/>
<path d="M65.8524 33.7109H51.7413C50.9096 33.7109 50.112 34.0413 49.5239 34.6294C48.9358 35.2175 48.6055 36.0151 48.6055 36.8467V61.9332C48.6055 62.7648 48.9358 63.5624 49.5239 64.1505C50.112 64.7386 50.9096 65.069 51.7413 65.069H70.5561C71.3878 65.069 72.1854 64.7386 72.7734 64.1505C73.3615 63.5624 73.6919 62.7648 73.6919 61.9332V41.5504L65.8524 33.7109Z" stroke="#013439" stroke-width="3.1358" stroke-linecap="round" stroke-linejoin="round"/>
<path d="M64.2852 33.7109V39.9825C64.2852 40.8142 64.6155 41.6118 65.2036 42.1999C65.7917 42.788 66.5893 43.1183 67.421 43.1183H73.6926" stroke="#013439" stroke-width="3.1358" stroke-linecap="round" stroke-linejoin="round"/>
<path d="M58.0128 44.6855H54.877" stroke="#013439" stroke-width="3.1358" stroke-linecap="round" stroke-linejoin="round"/>
<path d="M67.4202 50.957H54.877" stroke="#013439" stroke-width="3.1358" stroke-linecap="round" stroke-linejoin="round"/>
<path d="M67.4202 57.2285H54.877" stroke="#013439" stroke-width="3.1358" stroke-linecap="round" stroke-linejoin="round"/>
</g>
<defs>
<filter id="filter0_dd_1123_561" x="0.000216722" y="-0.000288725" width="122.296" height="122.296" filterUnits="userSpaceOnUse" color-interpolation-filters="sRGB">
<feFlood flood-opacity="0" result="BackgroundImageFix"/>
<feColorMatrix in="SourceAlpha" type="matrix" values="0 0 0 0 0 0 0 0 0 0 0 0 0 0 0 0 0 0 127 0" result="hardAlpha"/>
<feMorphology radius="4.7037" operator="erode" in="SourceAlpha" result="effect1_dropShadow_1123_561"/>
<feOffset dy="4.7037"/>
<feGaussianBlur stdDeviation="3.52778"/>
<feComposite in2="hardAlpha" operator="out"/>
<feColorMatrix type="matrix" values="0 0 0 0 0 0 0 0 0 0 0 0 0 0 0 0 0 0 0.1 0"/>
<feBlend mode="normal" in2="BackgroundImageFix" result="effect1_dropShadow_1123_561"/>
<feColorMatrix in="SourceAlpha" type="matrix" values="0 0 0 0 0 0 0 0 0 0 0 0 0 0 0 0 0 0 127 0" result="hardAlpha"/>
<feMorphology radius="3.52778" operator="erode" in="SourceAlpha" result="effect2_dropShadow_1123_561"/>
<feOffset dy="11.7593"/>
<feGaussianBlur stdDeviation="8.81944"/>
<feComposite in2="hardAlpha" operator="out"/>
<feColorMatrix type="matrix" values="0 0 0 0 0 0 0 0 0 0 0 0 0 0 0 0 0 0 0.1 0"/>
<feBlend mode="normal" in2="effect1_dropShadow_1123_561" result="effect2_dropShadow_1123_561"/>
<feBlend mode="normal" in="SourceGraphic" in2="effect2_dropShadow_1123_561" result="shape"/>
</filter>
<linearGradient id="paint0_linear_1123_561" x1="61.1484" y1="2.35156" x2="61.1484" y2="96.4256" gradientUnits="userSpaceOnUse">
<stop stop-color="#D4AF37"/>
<stop offset="1" stop-color="#E0BF4D"/>
</linearGradient>
</defs>
</svg>
