<svg width="57" height="57" viewBox="0 0 57 57" fill="none" xmlns="http://www.w3.org/2000/svg">
<path d="M0 28.2222C0 12.6355 12.6355 0 28.2222 0C43.8089 0 56.4444 12.6355 56.4444 28.2222C56.4444 43.8089 43.8089 56.4444 28.2222 56.4444C12.6355 56.4444 0 43.8089 0 28.2222Z" fill="#021530"/>
<path d="M32.9259 38.8056V36.4537C32.9259 35.2062 32.4303 34.0098 31.5482 33.1277C30.6661 32.2456 29.4697 31.75 28.2222 31.75H21.1666C19.9191 31.75 18.7227 32.2456 17.8406 33.1277C16.9585 34.0098 16.4629 35.2062 16.4629 36.4537V38.8056" stroke="#D4AF37" stroke-width="2.35185" stroke-linecap="round" stroke-linejoin="round"/>
<path d="M32.9258 17.7891C33.9344 18.0506 34.8277 18.6396 35.4654 19.4637C36.1031 20.2877 36.4491 21.3002 36.4491 22.3422C36.4491 23.3842 36.1031 24.3968 35.4654 25.2208C34.8277 26.0449 33.9344 26.6339 32.9258 26.8954" stroke="#D4AF37" stroke-width="2.35185" stroke-linecap="round" stroke-linejoin="round"/>
<path d="M39.9809 38.805V36.4532C39.9801 35.411 39.6332 34.3986 38.9947 33.5749C38.3562 32.7512 37.4622 32.1629 36.4531 31.9023" stroke="#D4AF37" stroke-width="2.35185" stroke-linecap="round" stroke-linejoin="round"/>
<path d="M24.6939 27.0461C27.2917 27.0461 29.3976 24.9402 29.3976 22.3424C29.3976 19.7446 27.2917 17.6387 24.6939 17.6387C22.0962 17.6387 19.9902 19.7446 19.9902 22.3424C19.9902 24.9402 22.0962 27.0461 24.6939 27.0461Z" stroke="#D4AF37" stroke-width="2.35185" stroke-linecap="round" stroke-linejoin="round"/>
</svg>
