<svg width="57" height="57" viewBox="0 0 57 57" fill="none" xmlns="http://www.w3.org/2000/svg">
<path d="M0 28.2222C0 12.6355 12.6355 0 28.2222 0C43.8089 0 56.4444 12.6355 56.4444 28.2222C56.4444 43.8089 43.8089 56.4444 28.2222 56.4444C12.6355 56.4444 0 43.8089 0 28.2222Z" fill="#021530"/>
<path d="M16.4629 25.2815C16.4629 23.9729 16.8599 22.6952 17.6013 21.6169C18.3428 20.5387 19.3939 19.7107 20.6158 19.2424C21.8377 18.7741 23.1729 18.6874 24.4451 18.9939C25.7173 19.3003 26.8666 19.9855 27.7412 20.9588C27.8028 21.0247 27.8773 21.0772 27.96 21.1131C28.0427 21.149 28.132 21.1675 28.2222 21.1675C28.3123 21.1675 28.4016 21.149 28.4843 21.1131C28.567 21.0772 28.6415 21.0247 28.7031 20.9588C29.575 19.9791 30.7245 19.2882 31.9988 18.9781C33.273 18.6679 34.6115 18.7532 35.8361 19.2225C37.0607 19.6919 38.1133 20.5231 38.8538 21.6054C39.5943 22.6878 39.9877 23.9701 39.9814 25.2815C39.9814 27.9744 38.2175 29.9852 36.4536 31.7491L29.9954 37.9968C29.7763 38.2485 29.5062 38.4506 29.2029 38.5898C28.8997 38.729 28.5703 38.8021 28.2366 38.8042C27.9029 38.8064 27.5726 38.7374 27.2676 38.6021C26.9626 38.4667 26.69 38.268 26.4677 38.0191L19.9907 31.7491C18.2268 29.9852 16.4629 27.9861 16.4629 25.2815Z" stroke="#D4AF37" stroke-width="2.35185" stroke-linecap="round" stroke-linejoin="round"/>
</svg>
