<svg width="72" height="72" viewBox="0 0 72 72" fill="none" xmlns="http://www.w3.org/2000/svg">
<path d="M0 35.8333C0 16.0431 16.0431 0 35.8333 0C55.6235 0 71.6667 16.0431 71.6667 35.8333C71.6667 55.6235 55.6235 71.6667 35.8333 71.6667C16.0431 71.6667 0 55.6235 0 35.8333Z" fill="#D4AF37"/>
<path d="M22.7695 32.5678C22.7696 31.114 23.2106 29.6944 24.0343 28.4965C24.8581 27.2986 26.0258 26.3788 27.3833 25.8585C28.7408 25.3382 30.2242 25.2419 31.6376 25.5824C33.0509 25.9228 34.3278 26.684 35.2994 27.7653C35.3679 27.8385 35.4506 27.8969 35.5425 27.9368C35.6344 27.9766 35.7336 27.9972 35.8338 27.9972C35.934 27.9972 36.0331 27.9766 36.125 27.9368C36.2169 27.8969 36.2997 27.8385 36.3681 27.7653C37.3367 26.677 38.6139 25.9094 40.0295 25.5648C41.4452 25.2202 42.9322 25.315 44.2927 25.8364C45.6532 26.3578 46.8226 27.2813 47.6453 28.4838C48.468 29.6862 48.9049 31.1108 48.898 32.5678C48.898 35.5595 46.9384 37.7935 44.9787 39.7531L37.8039 46.6941C37.5604 46.9737 37.2603 47.1983 36.9234 47.353C36.5865 47.5076 36.2205 47.5888 35.8498 47.5912C35.4791 47.5935 35.1122 47.517 34.7733 47.3666C34.4345 47.2162 34.1315 46.9954 33.8846 46.7189L26.6888 39.7531C24.7292 37.7935 22.7695 35.5725 22.7695 32.5678Z" stroke="#0A2E5C" stroke-width="2.61285" stroke-linecap="round" stroke-linejoin="round"/>
</svg>
