<svg width="76" height="76" viewBox="0 0 76 76" fill="none" xmlns="http://www.w3.org/2000/svg">
<g opacity="0.2">
<path d="M25.0858 9.4082C26.7491 9.4082 28.3444 10.069 29.5205 11.2451C30.6967 12.4213 31.3574 14.0165 31.3574 15.6798V34.4946C31.3574 36.158 30.6967 37.7532 29.5205 38.9293C28.3444 40.1055 26.7491 40.7662 25.0858 40.7662C24.2541 40.7662 23.4565 41.0966 22.8685 41.6847C22.2804 42.2728 21.95 43.0704 21.95 43.902V47.0378C21.95 48.7012 22.6108 50.2964 23.7869 51.4725C24.9631 52.6487 26.5583 53.3094 28.2216 53.3094C29.0533 53.3094 29.8509 53.6398 30.439 54.2279C31.027 54.816 31.3574 55.6136 31.3574 56.4452V62.7168C31.3574 63.5485 31.027 64.3461 30.439 64.9342C29.8509 65.5223 29.0533 65.8526 28.2216 65.8526C23.2316 65.8526 18.446 63.8704 14.9175 60.3419C11.3891 56.8135 9.4068 52.0278 9.4068 47.0378V15.6798C9.4068 14.0165 10.0676 12.4213 11.2437 11.2451C12.4199 10.069 14.0151 9.4082 15.6784 9.4082H25.0858Z" stroke="#D4AF37" stroke-width="6.27161" stroke-linecap="round" stroke-linejoin="round"/>
<path d="M59.58 9.4082C61.2433 9.4082 62.8385 10.069 64.0147 11.2451C65.1908 12.4213 65.8516 14.0165 65.8516 15.6798V34.4946C65.8516 36.158 65.1908 37.7532 64.0147 38.9293C62.8385 40.1055 61.2433 40.7662 59.58 40.7662C58.7483 40.7662 57.9507 41.0966 57.3626 41.6847C56.7745 42.2728 56.4442 43.0704 56.4442 43.902V47.0378C56.4442 48.7012 57.1049 50.2964 58.2811 51.4725C59.4572 52.6487 61.0524 53.3094 62.7158 53.3094C63.5474 53.3094 64.345 53.6398 64.9331 54.2279C65.5212 54.816 65.8516 55.6136 65.8516 56.4452V62.7168C65.8516 63.5485 65.5212 64.3461 64.9331 64.9342C64.345 65.5223 63.5474 65.8526 62.7158 65.8526C57.7258 65.8526 52.9401 63.8704 49.4117 60.3419C45.8832 56.8135 43.9009 52.0278 43.9009 47.0378V15.6798C43.9009 14.0165 44.5617 12.4213 45.7379 11.2451C46.914 10.069 48.5092 9.4082 50.1725 9.4082H59.58Z" stroke="#D4AF37" stroke-width="6.27161" stroke-linecap="round" stroke-linejoin="round"/>
</g>
</svg>
