<svg width="121" height="43" viewBox="0 0 121 43" fill="none" xmlns="http://www.w3.org/2000/svg">
<path d="M9.25473 5.11734C10.847 5.11734 12.0697 5.28795 12.9227 5.62915C13.7758 5.97036 14.515 6.34001 15.1406 6.73808C15.4818 6.93712 15.7519 7.09351 15.951 7.20725C16.1784 7.29255 16.3917 7.3352 16.5907 7.3352C16.8751 7.3352 17.0741 7.17881 17.1878 6.86604C17.33 6.55326 17.4438 6.0841 17.5291 5.45855H18.51C18.4816 5.9988 18.4389 6.62435 18.3821 7.3352C18.3536 8.04605 18.3252 8.9986 18.2968 10.1928C18.2968 11.3586 18.2968 12.9083 18.2968 14.8418H17.3158C17.1452 13.1926 16.7898 11.6998 16.2495 10.3634C15.7093 9.02703 14.9273 7.97497 13.9037 7.20725C12.9085 6.41109 11.5579 6.01301 9.85184 6.01301C8.2311 6.01301 6.96578 6.42531 6.05589 7.2499C5.17443 8.04605 4.73371 9.06968 4.73371 10.3208C4.73371 11.0601 4.86166 11.7425 5.11757 12.368C5.40191 12.9652 5.84264 13.5623 6.43975 14.1594C7.0653 14.7565 7.87567 15.4105 8.87087 16.1213C9.86606 16.8038 11.1029 17.6141 12.5815 18.5525C14.0032 19.4339 15.2685 20.3296 16.3775 21.2395C17.4864 22.1209 18.3536 23.1161 18.9792 24.2251C19.6332 25.3056 19.9602 26.6277 19.9602 28.1916C19.9602 30.0398 19.491 31.5753 18.5527 32.7979C17.6428 34.0206 16.4201 34.9305 14.8847 35.5276C13.3777 36.1247 11.7143 36.4233 9.8945 36.4233C8.21688 36.4233 6.8947 36.2385 5.92794 35.8688C4.98961 35.4992 4.22189 35.158 3.62478 34.8452C3.25513 34.6462 2.92814 34.504 2.6438 34.4187C2.38789 34.3049 2.1462 34.2481 1.91873 34.2481C1.63439 34.2481 1.42113 34.4045 1.27896 34.7172C1.16523 35.03 1.06571 35.4992 0.980404 36.1247H-0.0005723C0.0562959 35.4707 0.08473 34.703 0.08473 33.8216C0.113164 32.9401 0.127381 31.8027 0.127381 30.4095C0.155815 28.9878 0.170032 27.1964 0.170032 25.0354H1.15101C1.29318 26.7415 1.54909 28.2485 1.91873 29.5565C2.28837 30.8644 2.80019 31.9591 3.45417 32.8406C4.10816 33.722 4.94696 34.3902 5.97059 34.8452C7.02265 35.2717 8.27375 35.485 9.72389 35.485C10.8897 35.485 11.8991 35.3144 12.7521 34.9731C13.6051 34.6035 14.2591 34.0633 14.7141 33.3524C15.169 32.6131 15.3965 31.7174 15.3965 30.6654C15.3965 29.983 15.2685 29.3574 15.0126 28.7887C14.7852 28.1916 14.3871 27.6087 13.8184 27.04C13.2497 26.4429 12.4678 25.7889 11.4726 25.0781C10.5058 24.3388 9.28316 23.4858 7.80459 22.519C6.46819 21.6376 5.21709 20.7561 4.05129 19.8746C2.88549 18.9932 1.94716 17.9838 1.23631 16.8464C0.553893 15.709 0.212683 14.3442 0.212683 12.7519C0.212683 10.989 0.639195 9.55306 1.49222 8.44413C2.34524 7.30677 3.45417 6.46796 4.81901 5.92771C6.21228 5.38746 7.69085 5.11734 9.25473 5.11734ZM8.40171 -0.000798543V41.4561H7.54868V-0.000798543H8.40171ZM12.3683 -0.000798543V41.4561H11.5152V-0.000798543H12.3683ZM33.2093 13.3064V31.6037C33.2093 32.9117 33.4653 33.7931 33.9771 34.2481C34.4889 34.703 35.3703 34.9305 36.6214 34.9305V35.8262C36.0528 35.7977 35.214 35.7693 34.105 35.7409C33.0245 35.684 31.9014 35.6556 30.7356 35.6556C29.3139 35.6556 27.949 35.684 26.6411 35.7409C25.3615 35.7693 24.3663 35.7977 23.6555 35.8262V34.9305C24.9635 34.9305 25.9871 34.703 26.7264 34.2481C27.4657 33.7647 27.8353 32.8264 27.8353 31.4331V21.0262C27.8353 19.6614 27.7074 18.652 27.4514 17.998C27.1955 17.344 26.7406 16.9175 26.0866 16.7185C25.4326 16.5194 24.5369 16.4199 23.3996 16.4199V15.4816C25.7027 15.4247 27.6078 15.2399 29.1148 14.9271C30.6503 14.6143 32.0151 14.0741 33.2093 13.3064ZM52.9222 11.9842C52.9222 13.7755 52.9364 15.183 52.9648 16.2066C52.9933 17.2018 53.0359 18.0833 53.0928 18.851C52.8653 18.7941 52.4246 18.7515 51.7706 18.7231C51.145 18.6946 50.42 18.6804 49.5954 18.6804C48.7708 18.652 47.9604 18.6378 47.1643 18.6378H41.2784L40.6386 26.2297C41.3211 25.8316 42.1314 25.4762 43.0698 25.1634C44.0365 24.8506 45.2165 24.6942 46.6098 24.6942C48.458 24.6942 49.9793 24.9928 51.1735 25.5899C52.3677 26.1586 53.2492 26.9547 53.8179 27.9784C54.3865 28.9736 54.6709 30.0967 54.6709 31.3478C54.6709 32.997 54.2017 34.4898 53.2634 35.8262C52.3251 37.1626 51.074 38.2999 49.5101 39.2383C47.9746 40.1766 46.2686 40.8874 44.3919 41.3708C42.5153 41.8826 40.6244 42.1385 38.7193 42.1385V41.3708C40.0273 41.3708 41.2926 41.1576 42.5153 40.7311C43.738 40.3045 44.8469 39.679 45.8421 38.8544C46.8373 38.0582 47.6192 37.0631 48.1879 35.8688C48.785 34.6746 49.0836 33.2813 49.0836 31.689C49.0836 29.8977 48.6428 28.5186 47.7614 27.5518C46.9084 26.5567 45.6715 26.0591 44.0507 26.0591C43.2546 26.0591 42.5722 26.1586 42.0035 26.3576C41.4632 26.5567 40.8946 26.8126 40.2974 27.1253L39.7856 26.7841L40.9372 13.6476C41.25 13.7044 41.6054 13.7471 42.0035 13.7755C42.43 13.804 42.8423 13.8182 43.2404 13.8182H49.5101C50.4768 13.8182 51.1166 13.6902 51.4294 13.4343C51.7422 13.15 51.9412 12.6666 52.0265 11.9842H52.9222Z" fill="#D4AF37"/>
<path d="M64.3718 36.0094C64.2903 36.2129 64.1682 36.3642 64.0054 36.463C63.8483 36.5619 63.6855 36.6113 63.5168 36.6113H62.8625L68.1057 23.5514C68.1813 23.3652 68.2889 23.2228 68.4285 23.1239C68.5681 23.025 68.7338 22.9756 68.9258 22.9756H69.5801L64.3718 36.0094ZM77.1447 31.3071C77.2261 31.4467 77.2959 31.595 77.3541 31.752C77.418 31.9032 77.4791 32.0574 77.5373 32.2144C77.5954 32.0515 77.6565 31.8974 77.7205 31.752C77.7844 31.6008 77.8571 31.4496 77.9386 31.2984L82.1698 23.6124C82.2454 23.4787 82.3239 23.3972 82.4053 23.3682C82.4867 23.3391 82.6031 23.3245 82.7543 23.3245H84.0018V35.8262H82.5187V26.6397C82.5187 26.5176 82.5216 26.3867 82.5274 26.2471C82.5333 26.1075 82.542 25.965 82.5536 25.8196L78.2701 33.6364C78.1247 33.8981 77.9211 34.029 77.6594 34.029H77.4151C77.1534 34.029 76.9498 33.8981 76.8044 33.6364L72.4249 25.7935C72.4424 25.9447 72.454 26.093 72.4598 26.2384C72.4715 26.3838 72.4773 26.5176 72.4773 26.6397V35.8262H70.9942V23.3245H72.2417C72.3929 23.3245 72.5093 23.3391 72.5907 23.3682C72.6721 23.3972 72.7506 23.4787 72.8262 23.6124L77.1447 31.3071ZM90.3778 26.8491C91.0234 26.8491 91.605 26.9567 92.1226 27.1719C92.646 27.3871 93.0881 27.6924 93.4487 28.0879C93.8151 28.4834 94.0942 28.9632 94.2862 29.5274C94.4839 30.0857 94.5828 30.7109 94.5828 31.4031C94.5828 32.101 94.4839 32.7291 94.2862 33.2875C94.0942 33.8458 93.8151 34.3227 93.4487 34.7182C93.0881 35.1137 92.646 35.419 92.1226 35.6342C91.605 35.8436 91.0234 35.9483 90.3778 35.9483C89.7322 35.9483 89.1477 35.8436 88.6242 35.6342C88.1066 35.419 87.6646 35.1137 87.2982 34.7182C86.9317 34.3227 86.6497 33.8458 86.4519 33.2875C86.2542 32.7291 86.1553 32.101 86.1553 31.4031C86.1553 30.7109 86.2542 30.0857 86.4519 29.5274C86.6497 28.9632 86.9317 28.4834 87.2982 28.0879C87.6646 27.6924 88.1066 27.3871 88.6242 27.1719C89.1477 26.9567 89.7322 26.8491 90.3778 26.8491ZM90.3778 34.7357C91.2502 34.7357 91.9016 34.4449 92.332 33.8632C92.7624 33.2758 92.9775 32.4587 92.9775 31.4118C92.9775 30.3591 92.7624 29.539 92.332 28.9516C91.9016 28.3642 91.2502 28.0704 90.3778 28.0704C89.9357 28.0704 89.5519 28.1461 89.2262 28.2973C88.9005 28.4485 88.6271 28.6666 88.4061 28.9516C88.1909 29.2366 88.0281 29.5884 87.9176 30.0072C87.8129 30.4201 87.7605 30.8883 87.7605 31.4118C87.7605 31.9352 87.8129 32.4034 87.9176 32.8164C88.0281 33.2293 88.1909 33.5783 88.4061 33.8632C88.6271 34.1424 88.9005 34.3576 89.2262 34.5088C89.5519 34.6601 89.9357 34.7357 90.3778 34.7357ZM96.4962 35.8262V26.9887H97.421C97.642 26.9887 97.7816 27.0963 97.8397 27.3115L97.9619 28.2711C98.3457 27.8465 98.7732 27.5034 99.2443 27.2417C99.7212 26.9799 100.271 26.8491 100.893 26.8491C101.376 26.8491 101.8 26.9305 102.167 27.0933C102.539 27.2504 102.847 27.4772 103.092 27.7738C103.342 28.0646 103.531 28.4165 103.659 28.8294C103.787 29.2424 103.851 29.6989 103.851 30.1991V35.8262H102.298V30.1991C102.298 29.5303 102.144 29.0127 101.835 28.6462C101.533 28.274 101.068 28.0879 100.44 28.0879C99.98 28.0879 99.5497 28.1984 99.1483 28.4194C98.7529 28.6404 98.3864 28.9399 98.0491 29.318V35.8262H96.4962ZM108.87 35.9658C108.172 35.9658 107.634 35.7709 107.256 35.3812C106.884 34.9916 106.698 34.4303 106.698 33.6975V28.2886H105.633C105.54 28.2886 105.462 28.2624 105.398 28.21C105.334 28.1519 105.302 28.0646 105.302 27.9483V27.3289L106.75 27.1457L107.108 24.415C107.119 24.3278 107.157 24.258 107.221 24.2057C107.285 24.1475 107.366 24.1184 107.465 24.1184H108.25V27.1631H110.78V28.2886H108.25V33.5928C108.25 33.965 108.341 34.2413 108.521 34.4216C108.701 34.6019 108.934 34.692 109.219 34.692C109.382 34.692 109.521 34.6717 109.638 34.631C109.76 34.5844 109.864 34.535 109.952 34.4827C110.039 34.4303 110.112 34.3838 110.17 34.3431C110.234 34.2965 110.289 34.2733 110.336 34.2733C110.417 34.2733 110.49 34.3227 110.554 34.4216L111.007 35.1631C110.74 35.4132 110.417 35.611 110.039 35.7564C109.661 35.896 109.271 35.9658 108.87 35.9658ZM112.701 35.8262V22.9756H114.253V28.1751C114.631 27.7738 115.05 27.4539 115.51 27.2155C115.969 26.9712 116.498 26.8491 117.097 26.8491C117.58 26.8491 118.005 26.9305 118.371 27.0933C118.743 27.2504 119.052 27.4772 119.296 27.7738C119.546 28.0646 119.735 28.4165 119.863 28.8294C119.991 29.2424 120.055 29.6989 120.055 30.1991V35.8262H118.502V30.1991C118.502 29.5303 118.348 29.0127 118.04 28.6462C117.737 28.274 117.272 28.0879 116.644 28.0879C116.184 28.0879 115.754 28.1984 115.353 28.4194C114.957 28.6404 114.591 28.9399 114.253 29.318V35.8262H112.701Z" fill="white"/>
</svg>
