<svg width="105" height="43" viewBox="0 0 105 43" fill="none" xmlns="http://www.w3.org/2000/svg">
<path d="M9.25473 5.11734C10.847 5.11734 12.0697 5.28795 12.9227 5.62915C13.7758 5.97036 14.515 6.34001 15.1406 6.73808C15.4818 6.93712 15.7519 7.09351 15.951 7.20725C16.1784 7.29255 16.3917 7.3352 16.5907 7.3352C16.8751 7.3352 17.0741 7.17881 17.1878 6.86604C17.33 6.55326 17.4438 6.0841 17.5291 5.45855H18.51C18.4816 5.9988 18.4389 6.62435 18.3821 7.3352C18.3536 8.04605 18.3252 8.9986 18.2968 10.1928C18.2968 11.3586 18.2968 12.9083 18.2968 14.8418H17.3158C17.1452 13.1926 16.7898 11.6998 16.2495 10.3634C15.7093 9.02703 14.9273 7.97497 13.9037 7.20725C12.9085 6.41109 11.5579 6.01301 9.85184 6.01301C8.2311 6.01301 6.96578 6.42531 6.05589 7.2499C5.17443 8.04605 4.73371 9.06968 4.73371 10.3208C4.73371 11.0601 4.86166 11.7425 5.11757 12.368C5.40191 12.9652 5.84264 13.5623 6.43975 14.1594C7.0653 14.7565 7.87567 15.4105 8.87087 16.1213C9.86606 16.8038 11.1029 17.6141 12.5815 18.5525C14.0032 19.4339 15.2685 20.3296 16.3775 21.2395C17.4864 22.1209 18.3536 23.1161 18.9792 24.2251C19.6332 25.3056 19.9602 26.6277 19.9602 28.1916C19.9602 30.0398 19.491 31.5753 18.5527 32.7979C17.6428 34.0206 16.4201 34.9305 14.8847 35.5276C13.3777 36.1247 11.7143 36.4233 9.8945 36.4233C8.21688 36.4233 6.8947 36.2385 5.92794 35.8688C4.98961 35.4992 4.22189 35.158 3.62478 34.8452C3.25513 34.6462 2.92814 34.504 2.6438 34.4187C2.38789 34.3049 2.1462 34.2481 1.91873 34.2481C1.63439 34.2481 1.42113 34.4045 1.27896 34.7172C1.16523 35.03 1.06571 35.4992 0.980404 36.1247H-0.0005723C0.0562959 35.4707 0.08473 34.703 0.08473 33.8216C0.113164 32.9401 0.127381 31.8027 0.127381 30.4095C0.155815 28.9878 0.170032 27.1964 0.170032 25.0354H1.15101C1.29318 26.7415 1.54909 28.2485 1.91873 29.5565C2.28837 30.8644 2.80019 31.9591 3.45417 32.8406C4.10816 33.722 4.94696 34.3902 5.97059 34.8452C7.02265 35.2717 8.27375 35.485 9.72389 35.485C10.8897 35.485 11.8991 35.3144 12.7521 34.9731C13.6051 34.6035 14.2591 34.0633 14.7141 33.3524C15.169 32.6131 15.3965 31.7174 15.3965 30.6654C15.3965 29.983 15.2685 29.3574 15.0126 28.7887C14.7852 28.1916 14.3871 27.6087 13.8184 27.04C13.2497 26.4429 12.4678 25.7889 11.4726 25.0781C10.5058 24.3388 9.28316 23.4858 7.80459 22.519C6.46819 21.6376 5.21709 20.7561 4.05129 19.8746C2.88549 18.9932 1.94716 17.9838 1.23631 16.8464C0.553893 15.709 0.212683 14.3442 0.212683 12.7519C0.212683 10.989 0.639195 9.55306 1.49222 8.44413C2.34524 7.30677 3.45417 6.46796 4.81901 5.92771C6.21228 5.38746 7.69085 5.11734 9.25473 5.11734ZM8.40171 -0.000798543V41.4561H7.54868V-0.000798543H8.40171ZM12.3683 -0.000798543V41.4561H11.5152V-0.000798543H12.3683ZM37.2612 11.9842C37.2612 13.7755 37.2754 15.183 37.3039 16.2066C37.3323 17.2018 37.3749 18.0833 37.4318 18.851C37.2043 18.7941 36.7636 18.7515 36.1096 18.7231C35.4841 18.6946 34.759 18.6804 33.9344 18.6804C33.1098 18.652 32.2995 18.6378 31.5033 18.6378H25.6174L24.9777 26.2297C25.6601 25.8316 26.4705 25.4762 27.4088 25.1634C28.3756 24.8506 29.5556 24.6942 30.9488 24.6942C32.7971 24.6942 34.3183 24.9928 35.5125 25.5899C36.7067 26.1586 37.5882 26.9547 38.1569 27.9784C38.7256 28.9736 39.0099 30.0967 39.0099 31.3478C39.0099 32.997 38.5407 34.4898 37.6024 35.8262C36.6641 37.1626 35.413 38.2999 33.8491 39.2383C32.3137 40.1766 30.6076 40.8874 28.731 41.3708C26.8543 41.8826 24.9635 42.1385 23.0584 42.1385V41.3708C24.3663 41.3708 25.6317 41.1576 26.8543 40.7311C28.077 40.3045 29.1859 39.679 30.1811 38.8544C31.1763 38.0582 31.9582 37.0631 32.5269 35.8688C33.124 34.6746 33.4226 33.2813 33.4226 31.689C33.4226 29.8977 32.9819 28.5186 32.1004 27.5518C31.2474 26.5567 30.0105 26.0591 28.3898 26.0591C27.5936 26.0591 26.9112 26.1586 26.3425 26.3576C25.8023 26.5567 25.2336 26.8126 24.6365 27.1253L24.1247 26.7841L25.2762 13.6476C25.589 13.7044 25.9444 13.7471 26.3425 13.7755C26.769 13.804 27.1813 13.8182 27.5794 13.8182H33.8491C34.8159 13.8182 35.4556 13.6902 35.7684 13.4343C36.0812 13.15 36.2802 12.6666 36.3655 11.9842H37.2612Z" fill="#D4AF37"/>
<path d="M48.7108 36.0094C48.6294 36.2129 48.5072 36.3642 48.3444 36.463C48.1874 36.5619 48.0245 36.6113 47.8558 36.6113H47.2015L52.4447 23.5514C52.5203 23.3652 52.6279 23.2228 52.7675 23.1239C52.9071 23.025 53.0729 22.9756 53.2648 22.9756H53.9191L48.7108 36.0094ZM61.4837 31.3071C61.5651 31.4467 61.6349 31.595 61.6931 31.752C61.7571 31.9032 61.8181 32.0574 61.8763 32.2144C61.9344 32.0515 61.9955 31.8974 62.0595 31.752C62.1235 31.6008 62.1962 31.4496 62.2776 31.2984L66.5088 23.6124C66.5844 23.4787 66.6629 23.3972 66.7443 23.3682C66.8258 23.3391 66.9421 23.3245 67.0933 23.3245H68.3408V35.8262H66.8577V26.6397C66.8577 26.5176 66.8607 26.3867 66.8665 26.2471C66.8723 26.1075 66.881 25.965 66.8926 25.8196L62.6091 33.6364C62.4637 33.8981 62.2601 34.029 61.9984 34.029H61.7541C61.4924 34.029 61.2889 33.8981 61.1435 33.6364L56.764 25.7935C56.7814 25.9447 56.793 26.093 56.7989 26.2384C56.8105 26.3838 56.8163 26.5176 56.8163 26.6397V35.8262H55.3332V23.3245H56.5808C56.732 23.3245 56.8483 23.3391 56.9297 23.3682C57.0111 23.3972 57.0897 23.4787 57.1653 23.6124L61.4837 31.3071ZM74.7168 26.8491C75.3624 26.8491 75.944 26.9567 76.4616 27.1719C76.9851 27.3871 77.4271 27.6924 77.7877 28.0879C78.1541 28.4834 78.4333 28.9632 78.6252 29.5274C78.8229 30.0857 78.9218 30.7109 78.9218 31.4031C78.9218 32.101 78.8229 32.7291 78.6252 33.2875C78.4333 33.8458 78.1541 34.3227 77.7877 34.7182C77.4271 35.1137 76.9851 35.419 76.4616 35.6342C75.944 35.8436 75.3624 35.9483 74.7168 35.9483C74.0712 35.9483 73.4867 35.8436 72.9633 35.6342C72.4456 35.419 72.0036 35.1137 71.6372 34.7182C71.2708 34.3227 70.9887 33.8458 70.791 33.2875C70.5932 32.7291 70.4943 32.101 70.4943 31.4031C70.4943 30.7109 70.5932 30.0857 70.791 29.5274C70.9887 28.9632 71.2708 28.4834 71.6372 28.0879C72.0036 27.6924 72.4456 27.3871 72.9633 27.1719C73.4867 26.9567 74.0712 26.8491 74.7168 26.8491ZM74.7168 34.7357C75.5892 34.7357 76.2406 34.4449 76.671 33.8632C77.1014 33.2758 77.3166 32.4587 77.3166 31.4118C77.3166 30.3591 77.1014 29.539 76.671 28.9516C76.2406 28.3642 75.5892 28.0704 74.7168 28.0704C74.2748 28.0704 73.8909 28.1461 73.5652 28.2973C73.2395 28.4485 72.9662 28.6666 72.7451 28.9516C72.53 29.2366 72.3671 29.5884 72.2566 30.0072C72.1519 30.4201 72.0996 30.8883 72.0996 31.4118C72.0996 31.9352 72.1519 32.4034 72.2566 32.8164C72.3671 33.2293 72.53 33.5783 72.7451 33.8632C72.9662 34.1424 73.2395 34.3576 73.5652 34.5088C73.8909 34.6601 74.2748 34.7357 74.7168 34.7357ZM80.8352 35.8262V26.9887H81.76C81.981 26.9887 82.1206 27.0963 82.1788 27.3115L82.3009 28.2711C82.6848 27.8465 83.1122 27.5034 83.5833 27.2417C84.0603 26.9799 84.6099 26.8491 85.2322 26.8491C85.7149 26.8491 86.1395 26.9305 86.5059 27.0933C86.8781 27.2504 87.1864 27.4772 87.4307 27.7738C87.6808 28.0646 87.8698 28.4165 87.9977 28.8294C88.1257 29.2424 88.1897 29.6989 88.1897 30.1991V35.8262H86.6368V30.1991C86.6368 29.5303 86.4827 29.0127 86.1744 28.6462C85.872 28.274 85.4067 28.0879 84.7785 28.0879C84.3191 28.0879 83.8887 28.1984 83.4874 28.4194C83.0919 28.6404 82.7255 28.9399 82.3881 29.318V35.8262H80.8352ZM93.2089 35.9658C92.511 35.9658 91.973 35.7709 91.5949 35.3812C91.2227 34.9916 91.0366 34.4303 91.0366 33.6975V28.2886H89.9722C89.8792 28.2886 89.8007 28.2624 89.7367 28.21C89.6727 28.1519 89.6407 28.0646 89.6407 27.9483V27.3289L91.0889 27.1457L91.4466 24.415C91.4582 24.3278 91.4961 24.258 91.56 24.2057C91.624 24.1475 91.7054 24.1184 91.8043 24.1184H92.5895V27.1631H95.1195V28.2886H92.5895V33.5928C92.5895 33.965 92.6796 34.2413 92.8599 34.4216C93.0402 34.6019 93.2729 34.692 93.5578 34.692C93.7207 34.692 93.8603 34.6717 93.9766 34.631C94.0987 34.5844 94.2034 34.535 94.2907 34.4827C94.3779 34.4303 94.4506 34.3838 94.5088 34.3431C94.5728 34.2965 94.628 34.2733 94.6745 34.2733C94.756 34.2733 94.8287 34.3227 94.8926 34.4216L95.3463 35.1631C95.0787 35.4132 94.756 35.611 94.3779 35.7564C93.9999 35.896 93.6102 35.9658 93.2089 35.9658ZM97.0396 35.8262V22.9756H98.5925V28.1751C98.9705 27.7738 99.3893 27.4539 99.8487 27.2155C100.308 26.9712 100.837 26.8491 101.437 26.8491C101.919 26.8491 102.344 26.9305 102.71 27.0933C103.082 27.2504 103.391 27.4772 103.635 27.7738C103.885 28.0646 104.074 28.4165 104.202 28.8294C104.33 29.2424 104.394 29.6989 104.394 30.1991V35.8262H102.841V30.1991C102.841 29.5303 102.687 29.0127 102.379 28.6462C102.076 28.274 101.611 28.0879 100.983 28.0879C100.523 28.0879 100.093 28.1984 99.6917 28.4194C99.2962 28.6404 98.9298 28.9399 98.5925 29.318V35.8262H97.0396Z" fill="white"/>
</svg>
