<svg width="127" height="43" viewBox="0 0 127 43" fill="none" xmlns="http://www.w3.org/2000/svg">
<path d="M9.25473 5.11734C10.847 5.11734 12.0697 5.28795 12.9227 5.62915C13.7758 5.97036 14.515 6.34001 15.1406 6.73808C15.4818 6.93712 15.7519 7.09351 15.951 7.20725C16.1784 7.29255 16.3917 7.3352 16.5907 7.3352C16.8751 7.3352 17.0741 7.17881 17.1878 6.86604C17.33 6.55326 17.4438 6.0841 17.5291 5.45855H18.51C18.4816 5.9988 18.4389 6.62435 18.3821 7.3352C18.3536 8.04605 18.3252 8.9986 18.2968 10.1928C18.2968 11.3586 18.2968 12.9083 18.2968 14.8418H17.3158C17.1452 13.1926 16.7898 11.6998 16.2495 10.3634C15.7093 9.02703 14.9273 7.97497 13.9037 7.20725C12.9085 6.41109 11.5579 6.01301 9.85184 6.01301C8.2311 6.01301 6.96578 6.42531 6.05589 7.2499C5.17443 8.04605 4.73371 9.06968 4.73371 10.3208C4.73371 11.0601 4.86166 11.7425 5.11757 12.368C5.40191 12.9652 5.84264 13.5623 6.43975 14.1594C7.0653 14.7565 7.87567 15.4105 8.87087 16.1213C9.86606 16.8038 11.1029 17.6141 12.5815 18.5525C14.0032 19.4339 15.2685 20.3296 16.3775 21.2395C17.4864 22.1209 18.3536 23.1161 18.9792 24.2251C19.6332 25.3056 19.9602 26.6277 19.9602 28.1916C19.9602 30.0398 19.491 31.5753 18.5527 32.7979C17.6428 34.0206 16.4201 34.9305 14.8847 35.5276C13.3777 36.1247 11.7143 36.4233 9.8945 36.4233C8.21688 36.4233 6.8947 36.2385 5.92794 35.8688C4.98961 35.4992 4.22189 35.158 3.62478 34.8452C3.25513 34.6462 2.92814 34.504 2.6438 34.4187C2.38789 34.3049 2.1462 34.2481 1.91873 34.2481C1.63439 34.2481 1.42113 34.4045 1.27896 34.7172C1.16523 35.03 1.06571 35.4992 0.980404 36.1247H-0.0005723C0.0562959 35.4707 0.08473 34.703 0.08473 33.8216C0.113164 32.9401 0.127381 31.8027 0.127381 30.4095C0.155815 28.9878 0.170032 27.1964 0.170032 25.0354H1.15101C1.29318 26.7415 1.54909 28.2485 1.91873 29.5565C2.28837 30.8644 2.80019 31.9591 3.45417 32.8406C4.10816 33.722 4.94696 34.3902 5.97059 34.8452C7.02265 35.2717 8.27375 35.485 9.72389 35.485C10.8897 35.485 11.8991 35.3144 12.7521 34.9731C13.6051 34.6035 14.2591 34.0633 14.7141 33.3524C15.169 32.6131 15.3965 31.7174 15.3965 30.6654C15.3965 29.983 15.2685 29.3574 15.0126 28.7887C14.7852 28.1916 14.3871 27.6087 13.8184 27.04C13.2497 26.4429 12.4678 25.7889 11.4726 25.0781C10.5058 24.3388 9.28316 23.4858 7.80459 22.519C6.46819 21.6376 5.21709 20.7561 4.05129 19.8746C2.88549 18.9932 1.94716 17.9838 1.23631 16.8464C0.553893 15.709 0.212683 14.3442 0.212683 12.7519C0.212683 10.989 0.639195 9.55306 1.49222 8.44413C2.34524 7.30677 3.45417 6.46796 4.81901 5.92771C6.21228 5.38746 7.69085 5.11734 9.25473 5.11734ZM8.40171 -0.000798543V41.4561H7.54868V-0.000798543H8.40171ZM12.3683 -0.000798543V41.4561H11.5152V-0.000798543H12.3683ZM32.8255 13.1784C34.958 13.1784 36.6357 13.6476 37.8583 14.5859C39.1094 15.5242 39.735 16.8606 39.735 18.5951C39.735 19.704 39.4506 20.7419 38.882 21.7086C38.3417 22.647 37.6309 23.5426 36.7494 24.3957C35.8679 25.2203 34.9154 26.0306 33.8918 26.8268C32.8966 27.5945 31.9156 28.348 30.9488 29.0873C30.0105 29.8266 29.2001 30.5801 28.5177 31.3478H37.6024C38.7682 31.3478 39.5075 31.2056 39.8203 30.9213C40.1331 30.6085 40.3463 30.0825 40.46 29.3432H41.2704C41.2704 31.1061 41.2846 32.4709 41.3131 33.4377C41.3415 34.4045 41.3842 35.2717 41.441 36.0394C41.1851 35.9826 40.716 35.9399 40.0335 35.9115C39.3511 35.883 38.5692 35.8546 37.6877 35.8262C36.8063 35.8262 35.939 35.8262 35.086 35.8262H23.4849V35.0158C24.3095 34.1628 25.3047 33.2245 26.4705 32.2008C27.6647 31.1488 28.8163 29.9972 29.9252 28.7461C31.0626 27.495 32.0009 26.1301 32.7402 24.6516C33.5079 23.173 33.8918 21.5665 33.8918 19.832C33.8918 18.2965 33.5363 17.1734 32.8255 16.4625C32.1431 15.7517 31.1337 15.3963 29.7973 15.3963C28.6315 15.3963 27.5652 15.709 26.5984 16.3346C25.6601 16.9317 24.8213 17.8132 24.082 18.979L23.3996 18.5098C23.9398 17.5715 24.608 16.7042 25.4042 15.9081C26.2288 15.0835 27.2382 14.4295 28.4324 13.9461C29.6551 13.4343 31.1194 13.1784 32.8255 13.1784ZM58.9617 11.9842C58.9617 13.7755 58.9759 15.183 59.0043 16.2066C59.0327 17.2018 59.0754 18.0833 59.1323 18.851C58.9048 18.7941 58.4641 18.7515 57.8101 18.7231C57.1845 18.6946 56.4594 18.6804 55.6349 18.6804C54.8103 18.652 53.9999 18.6378 53.2037 18.6378H47.3179L46.6781 26.2297C47.3605 25.8316 48.1709 25.4762 49.1092 25.1634C50.076 24.8506 51.256 24.6942 52.6493 24.6942C54.4975 24.6942 56.0187 24.9928 57.213 25.5899C58.4072 26.1586 59.2886 26.9547 59.8573 27.9784C60.426 28.9736 60.7103 30.0967 60.7103 31.3478C60.7103 32.997 60.2412 34.4898 59.3029 35.8262C58.3645 37.1626 57.1134 38.2999 55.5496 39.2383C54.0141 40.1766 52.3081 40.8874 50.4314 41.3708C48.5548 41.8826 46.6639 42.1385 44.7588 42.1385V41.3708C46.0668 41.3708 47.3321 41.1576 48.5548 40.7311C49.7774 40.3045 50.8864 39.679 51.8816 38.8544C52.8768 38.0582 53.6587 37.0631 54.2274 35.8688C54.8245 34.6746 55.123 33.2813 55.123 31.689C55.123 29.8977 54.6823 28.5186 53.8009 27.5518C52.9478 26.5567 51.711 26.0591 50.0902 26.0591C49.2941 26.0591 48.6116 26.1586 48.043 26.3576C47.5027 26.5567 46.934 26.8126 46.3369 27.1253L45.8251 26.7841L46.9767 13.6476C47.2895 13.7044 47.6449 13.7471 48.043 13.7755C48.4695 13.804 48.8818 13.8182 49.2798 13.8182H55.5496C56.5163 13.8182 57.1561 13.6902 57.4689 13.4343C57.7816 13.15 57.9807 12.6666 58.066 11.9842H58.9617Z" fill="#D4AF37"/>
<path d="M70.4112 36.0094C70.3298 36.2129 70.2077 36.3642 70.0448 36.463C69.8878 36.5619 69.7249 36.6113 69.5563 36.6113H68.902L74.1452 23.5514C74.2208 23.3652 74.3284 23.2228 74.4679 23.1239C74.6075 23.025 74.7733 22.9756 74.9652 22.9756H75.6195L70.4112 36.0094ZM83.1841 31.3071C83.2656 31.4467 83.3354 31.595 83.3935 31.752C83.4575 31.9032 83.5186 32.0574 83.5767 32.2144C83.6349 32.0515 83.696 31.8974 83.7599 31.752C83.8239 31.6008 83.8966 31.4496 83.978 31.2984L88.2092 23.6124C88.2848 23.4787 88.3633 23.3972 88.4448 23.3682C88.5262 23.3391 88.6425 23.3245 88.7937 23.3245H90.0413V35.8262H88.5582V26.6397C88.5582 26.5176 88.5611 26.3867 88.5669 26.2471C88.5727 26.1075 88.5814 25.965 88.5931 25.8196L84.3095 33.6364C84.1641 33.8981 83.9606 34.029 83.6989 34.029H83.4546C83.1929 34.029 82.9893 33.8981 82.8439 33.6364L78.4644 25.7935C78.4818 25.9447 78.4935 26.093 78.4993 26.2384C78.5109 26.3838 78.5167 26.5176 78.5167 26.6397V35.8262H77.0336V23.3245H78.2812C78.4324 23.3245 78.5487 23.3391 78.6302 23.3682C78.7116 23.3972 78.7901 23.4787 78.8657 23.6124L83.1841 31.3071ZM96.4172 26.8491C97.0628 26.8491 97.6444 26.9567 98.1621 27.1719C98.6855 27.3871 99.1275 27.6924 99.4881 28.0879C99.8545 28.4834 100.134 28.9632 100.326 29.5274C100.523 30.0857 100.622 30.7109 100.622 31.4031C100.622 32.101 100.523 32.7291 100.326 33.2875C100.134 33.8458 99.8545 34.3227 99.4881 34.7182C99.1275 35.1137 98.6855 35.419 98.1621 35.6342C97.6444 35.8436 97.0628 35.9483 96.4172 35.9483C95.7717 35.9483 95.1871 35.8436 94.6637 35.6342C94.1461 35.419 93.704 35.1137 93.3376 34.7182C92.9712 34.3227 92.6891 33.8458 92.4914 33.2875C92.2936 32.7291 92.1948 32.101 92.1948 31.4031C92.1948 30.7109 92.2936 30.0857 92.4914 29.5274C92.6891 28.9632 92.9712 28.4834 93.3376 28.0879C93.704 27.6924 94.1461 27.3871 94.6637 27.1719C95.1871 26.9567 95.7717 26.8491 96.4172 26.8491ZM96.4172 34.7357C97.2896 34.7357 97.941 34.4449 98.3714 33.8632C98.8018 33.2758 99.017 32.4587 99.017 31.4118C99.017 30.3591 98.8018 29.539 98.3714 28.9516C97.941 28.3642 97.2896 28.0704 96.4172 28.0704C95.9752 28.0704 95.5914 28.1461 95.2657 28.2973C94.94 28.4485 94.6666 28.6666 94.4456 28.9516C94.2304 29.2366 94.0675 29.5884 93.957 30.0072C93.8523 30.4201 93.8 30.8883 93.8 31.4118C93.8 31.9352 93.8523 32.4034 93.957 32.8164C94.0675 33.2293 94.2304 33.5783 94.4456 33.8632C94.6666 34.1424 94.94 34.3576 95.2657 34.5088C95.5914 34.6601 95.9752 34.7357 96.4172 34.7357ZM102.536 35.8262V26.9887H103.46C103.681 26.9887 103.821 27.0963 103.879 27.3115L104.001 28.2711C104.385 27.8465 104.813 27.5034 105.284 27.2417C105.761 26.9799 106.31 26.8491 106.933 26.8491C107.415 26.8491 107.84 26.9305 108.206 27.0933C108.579 27.2504 108.887 27.4772 109.131 27.7738C109.381 28.0646 109.57 28.4165 109.698 28.8294C109.826 29.2424 109.89 29.6989 109.89 30.1991V35.8262H108.337V30.1991C108.337 29.5303 108.183 29.0127 107.875 28.6462C107.572 28.274 107.107 28.0879 106.479 28.0879C106.02 28.0879 105.589 28.1984 105.188 28.4194C104.792 28.6404 104.426 28.9399 104.089 29.318V35.8262H102.536ZM114.909 35.9658C114.211 35.9658 113.673 35.7709 113.295 35.3812C112.923 34.9916 112.737 34.4303 112.737 33.6975V28.2886H111.673C111.58 28.2886 111.501 28.2624 111.437 28.21C111.373 28.1519 111.341 28.0646 111.341 27.9483V27.3289L112.789 27.1457L113.147 24.415C113.159 24.3278 113.196 24.258 113.26 24.2057C113.324 24.1475 113.406 24.1184 113.505 24.1184H114.29V27.1631H116.82V28.2886H114.29V33.5928C114.29 33.965 114.38 34.2413 114.56 34.4216C114.741 34.6019 114.973 34.692 115.258 34.692C115.421 34.692 115.561 34.6717 115.677 34.631C115.799 34.5844 115.904 34.535 115.991 34.4827C116.078 34.4303 116.151 34.3838 116.209 34.3431C116.273 34.2965 116.328 34.2733 116.375 34.2733C116.456 34.2733 116.529 34.3227 116.593 34.4216L117.047 35.1631C116.779 35.4132 116.456 35.611 116.078 35.7564C115.7 35.896 115.311 35.9658 114.909 35.9658ZM118.74 35.8262V22.9756H120.293V28.1751C120.671 27.7738 121.09 27.4539 121.549 27.2155C122.009 26.9712 122.538 26.8491 123.137 26.8491C123.62 26.8491 124.044 26.9305 124.411 27.0933C124.783 27.2504 125.091 27.4772 125.335 27.7738C125.586 28.0646 125.775 28.4165 125.903 28.8294C126.03 29.2424 126.094 29.6989 126.094 30.1991V35.8262H124.542V30.1991C124.542 29.5303 124.387 29.0127 124.079 28.6462C123.777 28.274 123.311 28.0879 122.683 28.0879C122.224 28.0879 121.793 28.1984 121.392 28.4194C120.997 28.6404 120.63 28.9399 120.293 29.318V35.8262H118.74Z" fill="white"/>
</svg>
