<svg width="76" height="76" viewBox="0 0 76 76" fill="none" xmlns="http://www.w3.org/2000/svg">
<g opacity="0.2">
<path d="M50.172 65.8535C48.5087 65.8535 46.9135 65.1928 45.7373 64.0166C44.5611 62.8405 43.9004 61.2452 43.9004 59.5819V40.7671C43.9004 39.1038 44.5611 37.5086 45.7373 36.3324C46.9135 35.1563 48.5087 34.4955 50.172 34.4955C51.0037 34.4955 51.8013 34.1651 52.3893 33.577C52.9774 32.989 53.3078 32.1914 53.3078 31.3597L53.3078 28.2239C53.3078 26.5606 52.647 24.9653 51.4709 23.7892C50.2947 22.613 48.6995 21.9523 47.0362 21.9523C46.2045 21.9523 45.4069 21.6219 44.8188 21.0338C44.2308 20.4458 43.9004 19.6481 43.9004 18.8165V12.5449C43.9004 11.7132 44.2308 10.9156 44.8188 10.3275C45.4069 9.73945 46.2045 9.40907 47.0362 9.40907C52.0262 9.40907 56.8118 11.3913 60.3403 14.9198C63.8687 18.4483 65.851 23.2339 65.851 28.2239V59.5819C65.851 61.2452 65.1903 62.8405 64.0141 64.0166C62.8379 65.1928 61.2427 65.8535 59.5794 65.8535H50.172Z" stroke="#D4AF37" stroke-width="6.27161" stroke-linecap="round" stroke-linejoin="round"/>
<path d="M15.6779 65.8535C14.0145 65.8535 12.4193 65.1928 11.2432 64.0166C10.067 62.8405 9.40625 61.2452 9.40625 59.5819L9.40625 40.7671C9.40625 39.1038 10.067 37.5086 11.2432 36.3324C12.4193 35.1563 14.0145 34.4955 15.6779 34.4955C16.5095 34.4955 17.3071 34.1651 17.8952 33.577C18.4833 32.989 18.8137 32.1914 18.8137 31.3597L18.8137 28.2239C18.8137 26.5606 18.1529 24.9653 16.9767 23.7892C15.8006 22.613 14.2054 21.9523 12.5421 21.9523C11.7104 21.9523 10.9128 21.6219 10.3247 21.0338C9.73663 20.4458 9.40625 19.6481 9.40625 18.8165L9.40625 12.5449C9.40625 11.7132 9.73663 10.9156 10.3247 10.3275C10.9128 9.73945 11.7104 9.40907 12.5421 9.40907C17.5321 9.40907 22.3177 11.3913 25.8461 14.9198C29.3746 18.4483 31.3569 23.2339 31.3569 28.2239L31.3569 59.5819C31.3569 61.2452 30.6961 62.8405 29.52 64.0166C28.3438 65.1928 26.7486 65.8535 25.0853 65.8535H15.6779Z" stroke="#D4AF37" stroke-width="6.27161" stroke-linecap="round" stroke-linejoin="round"/>
</g>
</svg>
