<svg width="72" height="72" viewBox="0 0 72 72" fill="none" xmlns="http://www.w3.org/2000/svg">
<path d="M0 35.8333C0 16.0431 16.0431 0 35.8333 0C55.6235 0 71.6667 16.0431 71.6667 35.8333C71.6667 55.6235 55.6235 71.6667 35.8333 71.6667C16.0431 71.6667 0 55.6235 0 35.8333Z" fill="#D4AF37"/>
<path d="M40.3764 36.9961L42.3556 48.1347C42.3778 48.2658 42.3594 48.4006 42.3028 48.521C42.2463 48.6415 42.1544 48.7418 42.0394 48.8085C41.9243 48.8753 41.7916 48.9053 41.659 48.8946C41.5264 48.8839 41.4003 48.833 41.2974 48.7487L36.6204 45.2383C36.3946 45.0696 36.1203 44.9785 35.8385 44.9785C35.5567 44.9785 35.2824 45.0696 35.0566 45.2383L30.3718 48.7474C30.269 48.8316 30.143 48.8824 30.0105 48.8931C29.8781 48.9038 29.7456 48.8739 29.6306 48.8073C29.5156 48.7407 29.4237 48.6407 29.367 48.5205C29.3104 48.4003 29.2917 48.2657 29.3136 48.1347L31.2915 36.9961" stroke="#0A2E5C" stroke-width="2.61285" stroke-linecap="round" stroke-linejoin="round"/>
<path d="M35.8327 38.4466C40.1618 38.4466 43.6712 34.9372 43.6712 30.6081C43.6712 26.279 40.1618 22.7695 35.8327 22.7695C31.5036 22.7695 27.9941 26.279 27.9941 30.6081C27.9941 34.9372 31.5036 38.4466 35.8327 38.4466Z" stroke="#0A2E5C" stroke-width="2.61285" stroke-linecap="round" stroke-linejoin="round"/>
</svg>
