<svg width="113" height="56" viewBox="0 0 113 56" fill="none" xmlns="http://www.w3.org/2000/svg">
<path d="M20.4379 9.16207C19.1706 8.73758 18.0475 8.54 17.1848 8.44451C16.4384 8.36179 14.9523 8.25212 13.1139 8.5277C12.4399 8.62886 11.5819 8.76264 10.5113 9.16159C9.55972 9.51612 8.8606 9.92405 8.34253 10.2294C7.59803 10.6681 7.00432 11.0959 6.57417 11.4305C6.35247 11.587 6.29386 11.8451 6.39076 11.9978C6.47301 12.1273 6.6446 12.1453 6.67438 12.1481C7.00196 11.8545 7.37917 11.5487 7.80885 11.2471C8.54863 10.7281 9.25956 10.3528 9.87738 10.0791C10.3576 9.88482 10.9953 9.65651 11.7625 9.46176C12.2191 9.34594 13.2827 9.09967 14.6819 9.02782C15.2401 8.99946 16.082 8.98669 17.1011 9.09447C18.1505 9.20555 19.0468 9.40881 19.7539 9.6116L20.1543 9.82857C20.3164 9.87678 20.4857 9.82762 20.5712 9.71181C20.6856 9.55724 20.6426 9.29584 20.4379 9.16112V9.16207Z" fill="#1AAAC2"/>
<path d="M26.8308 16.3325C26.8601 16.3642 26.9239 16.4422 26.9447 16.5604C26.9745 16.7291 26.895 16.8582 26.8752 16.8884C26.8752 16.8884 26.8638 17.0109 26.5192 16.9442C26.0853 16.558 25.6518 16.1723 25.2179 15.7861C24.585 15.2661 23.8197 14.7121 22.9154 14.186C22.3434 13.8532 21.7932 13.5762 21.2789 13.3451C20.1941 12.8596 18.7216 12.3529 16.9315 12.1477C16.1662 12.0598 15.4586 12.0404 14.8238 12.0603C13.8557 12.0622 12.3984 12.1813 10.7808 12.8067C10.2807 13 9.67421 13.2775 9.01243 13.6826C6.8678 14.9957 3.25356 18.1978 2.90613 18.3458C2.79882 18.3916 2.69058 18.3944 2.69058 18.3944C2.57855 18.3977 2.48448 18.3661 2.41688 18.3349C2.41688 18.3349 2.23915 18.1014 2.41688 17.9123C3.24883 17.1442 3.9834 16.5211 4.55537 16.0536C5.44924 15.3224 6.49059 14.4763 7.94508 13.5526C8.62009 13.1239 9.13202 12.7986 9.76071 12.4919C11.8817 11.4567 13.851 11.3508 14.863 11.3059C15.6765 11.2699 18.6271 11.2085 21.7256 12.6753C22.6455 13.1106 23.3872 13.5904 23.7275 13.8121C25.104 14.7083 26.1316 15.6315 26.8308 16.3335V16.3325Z" fill="#1AAAC2"/>
<path d="M24.5477 12.5164C24.6314 12.6072 24.6635 12.7093 24.6635 12.7093C24.7079 12.8511 24.6744 12.9835 24.6479 13.0586C24.6479 13.0586 24.5893 13.242 24.239 13.1253C23.6968 12.7717 22.8748 12.2857 21.8127 11.8438C19.3272 10.8095 17.1727 10.7032 16.0141 10.6564C15.4242 10.6323 14.0127 10.5812 12.5336 10.8289C12.4547 10.8421 10.6178 11.1886 8.82057 12.0773C7.96641 12.4999 7.24602 12.983 7.15384 13.0454C6.95153 13.182 6.7563 13.3139 6.50057 13.5143C5.9981 13.909 5.77782 14.1765 5.03143 14.8601C4.8329 15.042 4.63436 15.2236 4.43583 15.4056C4.39376 15.4311 4.31529 15.458 4.21414 15.4779C4.09454 15.5015 3.95793 15.4991 3.88939 15.397C3.88939 15.397 3.65588 15.0761 3.8979 14.8672C5.07775 13.857 6.13282 13.1267 6.89528 12.6384C8.5379 11.5866 10.0571 10.6138 12.2703 10.1345C13.5286 9.86176 14.4958 9.86034 15.3778 9.85939C18.257 9.85514 20.3468 10.5481 21.0129 10.7854C21.5881 10.9901 22.0566 11.1952 22.386 11.3489C23.5574 11.8962 24.3964 12.351 24.5486 12.516L24.5477 12.5164Z" fill="#1AAAC2"/>
<path d="M28.4691 20.4854C28.4691 20.4854 28.5523 20.8692 28.3774 20.9193C28.3774 20.9193 28.2191 21.0526 28.0352 20.9694C27.5242 20.293 26.7627 19.3604 25.735 18.3488C24.5476 17.1798 23.1763 15.852 21.0449 14.8437C19.4363 14.0832 18.057 13.8175 17.5437 13.731C14.249 13.1756 11.4785 14.0647 10.0008 14.6825C10.0008 14.6825 5.96352 16.718 1.80945 21.6061L1.52584 21.894C1.52584 21.894 1.25073 22.0609 1.0919 21.8817C1.0919 21.8817 0.841843 21.669 1.08765 21.3731C1.08765 21.3731 4.46034 16.9383 9.69925 14.0089C10.932 13.4625 13.1722 12.6788 15.9979 12.8371C18.6195 12.9841 20.55 13.8752 21.4113 14.2831C21.6878 14.414 22.5505 14.8324 23.5961 15.5443C24.826 16.3819 26.7173 17.9044 28.4701 20.4863L28.4691 20.4854Z" fill="#1AAAC2"/>
<path d="M29.1911 24.5157C29.1911 24.5157 29.4412 24.9497 29.1911 25.0494C29.1911 25.0494 28.9576 25.2248 28.8073 25.0494C28.3823 24.1872 27.7243 22.9974 26.751 21.6975C25.8283 20.4647 24.3138 18.4813 21.6918 16.9275C20.9421 16.4832 19.7135 15.7675 18.034 15.3709C14.4751 14.5305 11.3643 15.708 9.91593 16.3853C9.91593 16.3853 4.63023 19.213 0.979111 25.1525C0.979111 25.1525 0.626007 25.3916 0.425583 25.2413C0.425583 25.2413 0.108403 25.0688 0.364605 24.7076C1.39319 23.1983 2.37215 22.0289 3.1176 21.204C4.60896 19.5529 6.4988 17.4962 9.50752 15.8985C10.5768 15.3307 11.6323 14.7701 13.0584 14.461C16.9927 13.6073 20.4916 15.3714 22.0983 16.3433C22.0983 16.3433 25.8742 18.0284 29.1916 24.5153L29.1911 24.5157Z" fill="#1AAAC2"/>
<path d="M29.621 27.7764C29.621 27.7764 29.8267 28.1659 29.6432 28.277C29.6432 28.277 29.4263 28.4496 29.2315 28.3049C29.0165 28.0137 28.7035 27.5798 28.3447 27.0404C27.8191 26.251 27.4722 25.654 27.2575 25.2905C26.3623 23.7727 25.5506 22.5503 25.4391 22.3839C23.7322 19.8337 21.2571 18.3414 21.1182 18.2591C20.2385 17.7401 17.6481 16.2109 14.29 16.5778C12.127 16.8141 10.4711 17.7463 9.77341 18.1481C8.8786 18.6628 8.25227 19.1724 7.56024 19.7358C7.06108 20.1419 5.80417 21.1998 4.41255 22.8419C3.82121 23.5396 3.44069 24.0653 2.77466 24.9856C1.8581 26.2525 1.14527 27.3373 0.65319 28.1139C0.65319 28.1139 0.380917 28.4254 0.130387 28.2198C0.130387 28.2198 -0.147559 28.0473 0.10817 27.7084C0.600721 26.9705 1.30268 25.94 2.17669 24.7247C3.40665 23.015 4.03912 22.1419 4.89612 21.2404C5.31068 20.8046 6.31989 19.7841 7.79707 18.7356C9.44914 17.5629 10.9079 16.5277 13.088 16.0682C16.1752 15.4178 18.6998 16.3447 19.5039 16.652C21.5899 17.4489 22.9144 18.6382 23.5152 19.188C25.1687 20.7006 26.3221 22.538 27.2358 23.993C27.3738 24.2128 27.7302 24.7947 28.3537 25.7779C28.7763 26.4444 29.1989 27.1109 29.6215 27.7774L29.621 27.7764Z" fill="#1AAAC2"/>
<path d="M29.5941 29.9032C29.5941 29.9032 29.7387 30.2927 29.5941 30.4038C29.5941 30.4038 29.4939 30.7153 29.1601 30.4596C28.7602 30.01 28.3603 29.5605 27.9604 29.111C27.57 28.5291 26.9895 27.6541 26.3017 26.5778C25.0973 24.6931 24.7971 24.1207 24.3027 23.4008C23.588 22.3608 22.4346 20.965 20.5519 19.5483C19.4618 18.9205 18.4852 18.6043 17.806 18.4346C17.0652 18.2493 14.455 17.6348 11.5649 18.7806C10.8913 19.0477 10.4234 19.3228 10.0202 19.562C8.08209 20.7121 6.82283 22.1009 6.08164 23.0628C5.58436 23.6513 5.20195 24.1491 4.95 24.488C4.28586 25.38 3.67466 26.3074 2.63378 27.89C2.3166 28.3721 2.16629 28.6056 1.89543 28.9521C1.35372 29.6465 0.830915 30.1542 0.465047 30.4813C0.465047 30.4813 0.131323 30.4927 0.0755451 30.3144C0.0755451 30.3144 -0.0913167 30.0143 0.25328 29.7472C0.25328 29.7472 1.81034 27.9453 3.17833 25.8101C3.54089 25.2036 4.08402 24.3622 4.83135 23.4272C5.90627 22.0819 7.3877 20.2285 9.89631 18.8922C10.9646 18.3231 12.9211 17.3115 15.6079 17.3781C18.3916 17.4472 20.3472 18.6341 20.7735 18.9035C21.5549 19.397 22.0593 19.8768 22.6658 20.4592C23.605 21.362 24.8302 22.7291 25.9675 24.6761C25.9675 24.6761 28.4142 29.0916 29.5936 29.9037L29.5941 29.9032Z" fill="#1AAAC2"/>
<path d="M25.6567 27.0571C25.6567 27.0571 27.1665 29.9764 29.3603 31.6451C29.3603 31.6451 29.6689 31.9788 29.477 32.2123C29.4354 32.2605 29.3924 32.2893 29.3541 32.3073C29.139 32.4066 28.8214 32.2723 28.551 31.9845C28.361 31.8271 28.1677 31.6602 27.972 31.4834C27.702 31.2395 27.4501 30.9979 27.2166 30.7611C27.2166 30.7611 25.9171 29.4456 25.0644 27.4745C25.028 27.3903 25.0256 27.3251 25.028 27.2858C25.0351 27.1634 25.1032 27.0632 25.1731 26.9909C25.1731 26.9909 25.5248 26.816 25.6572 27.0575L25.6567 27.0571Z" fill="#1AAAC2"/>
<path d="M0.149682 31.7525C0.610089 31.389 1.11635 30.9352 1.62213 30.3751C1.92608 30.039 2.18937 29.709 2.41721 29.3966C2.75944 28.9532 3.10499 28.4838 3.45006 27.9875C3.99082 27.2094 4.47155 26.4512 4.89887 25.7242C4.89887 25.7242 5.08795 25.3574 5.37724 25.5238C5.66653 25.6906 5.56632 25.9133 5.56632 25.9133C5.56632 25.9133 2.78591 30.4289 0.583618 32.2309C0.583618 32.2309 0.283455 32.3977 0.149682 32.2309C0.149682 32.2309 -0.0838307 32.0754 0.149682 31.7525Z" fill="#1AAAC2"/>
<path d="M4.43116 28.6718C4.43116 28.6718 4.5758 28.305 4.90953 28.505C4.90953 28.505 5.27634 28.6803 5.10995 28.893C5.10995 28.893 3.03008 32.5201 0.627837 33.8436C0.627837 33.8436 0.360763 33.888 0.238335 33.6545C0.238335 33.6545 0.115905 33.3208 0.516279 33.1209C0.516279 33.1209 2.40707 31.975 4.43116 28.6718Z" fill="#1AAAC2"/>
<path d="M4.16435 31.6417L4.49808 31.1463C4.49808 31.1463 4.76515 30.9402 4.98732 31.1463C4.98732 31.1463 5.23218 31.3637 5.07619 31.5528L4.42008 32.3053C4.42008 32.3053 4.13079 32.5535 3.99749 32.4202C3.99749 32.4202 3.71954 32.3091 3.93084 32.0307L4.16435 31.6412V31.6417Z" fill="#1AAAC2"/>
<path d="M27.9254 32.7142C28.1154 32.7425 28.2369 32.8749 28.3012 32.942C28.4661 33.1145 28.7091 33.3353 29.0962 33.6317C29.0962 33.6317 29.3855 34.171 28.6845 34.11C28.5626 34.0377 28.434 33.9545 28.3021 33.8576C28.0639 33.6827 27.8663 33.5036 27.7056 33.3377C27.5845 33.2701 27.5099 33.1457 27.5118 33.0139C27.5141 32.8645 27.6148 32.7699 27.6332 32.7534C27.6999 32.7265 27.8044 32.6962 27.9249 32.7146L27.9254 32.7142Z" fill="#1AAAC2"/>
<path d="M26.539 31.5468C26.539 31.5468 26.5276 31.2187 26.8226 31.2353C26.8226 31.2353 27.1672 31.2017 27.1842 31.5468C27.1738 32.1088 27.1067 32.5787 27.0381 32.9294C26.8093 34.1003 26.3787 34.8949 26.2832 35.0669C26.105 35.3879 25.9018 35.7491 25.534 36.1423C24.9668 36.7488 24.349 37.0669 23.959 37.23C23.959 37.23 26.8174 33.9155 26.5394 31.5463L26.539 31.5468Z" fill="#1AAAC2"/>
<path d="M25.2828 30.3452C25.2828 30.3452 25.219 29.9783 25.5721 29.9363C25.5721 29.9363 25.9418 29.8862 25.9838 30.2199C25.9928 30.5848 25.9843 31.0948 25.9035 31.6975C25.7196 33.0693 25.2682 34.1234 24.9411 34.7578C24.6234 35.3742 24.319 35.7963 24.0789 36.1267C23.5868 36.8036 22.6778 37.9083 21.246 38.9284C20.6977 39.3188 20.2519 39.5694 20.1219 39.6417C18.7908 40.3796 17.472 40.7511 16.3328 40.9303C15.8558 40.996 15.1941 41.0494 14.4098 40.9917C12.5625 40.856 11.2139 40.1895 10.5351 39.8459C10.1778 39.6649 9.56612 39.3321 8.8618 38.8107C7.57133 37.8558 6.71291 36.8202 6.18113 36.0672C5.92871 35.7925 5.74767 35.55 5.62855 35.3789C5.35817 34.9908 5.29908 34.8145 5.0632 34.6155C4.80842 34.4004 4.5456 34.3262 4.36976 34.2766C3.46312 34.0208 2.53805 34.4094 2.26862 34.5318C2.26862 34.5318 1.42627 34.9407 1.17574 35.2073C1.17574 35.2073 0.791909 35.3992 0.599994 35.2489C0.599994 35.2489 0.291323 34.9903 0.524835 34.6902C0.524835 34.6902 2.27665 33.1468 4.07857 33.3803C4.41182 33.4234 5.13741 33.5132 5.70607 34.0558C5.89279 34.2345 5.98874 34.391 6.14757 34.6401C6.53093 35.2413 6.96534 35.8095 7.34491 36.4136C7.72071 37.0121 8.63301 37.9433 11.0192 39.3864C11.7944 39.7518 12.8589 40.1333 14.1588 40.2633C17.637 40.6112 20.2188 38.9014 20.9373 38.3853C21.3869 38.0624 22.3507 37.3137 23.2583 36.0591C24.9009 33.7883 25.211 31.4498 25.2833 30.3442L25.2828 30.3452Z" fill="#1AAAC2"/>
<path d="M28.0839 34.9523C28.0839 34.9523 28.4119 34.7188 28.6232 34.9079C28.6232 34.9079 28.8009 35.0412 28.6733 35.3026C27.9619 35.9279 26.9149 36.8109 25.5909 37.7956C22.9452 39.7629 21.4845 40.8492 19.3304 41.5649C18.2395 41.927 16.0438 42.628 13.2695 42.1543C10.0935 41.6121 8.00651 39.8457 7.15187 39.0293C7.15187 39.0293 4.69432 36.3099 4.48822 36.2763C4.48822 36.2763 3.49792 35.2586 1.57972 36.5599C1.57972 36.5599 1.09567 36.7103 1.02902 36.4933C1.02902 36.4933 0.862161 36.2432 1.12924 36.0263C1.12924 36.0263 3.11835 34.3581 5.12684 35.8093C5.12684 35.8093 8.90369 41.2812 14.1591 41.615C14.1591 41.615 17.6793 42.1822 22.1506 39.3796C22.9972 38.7977 23.8433 38.2153 24.6899 37.6334C25.8215 36.74 26.9527 35.8466 28.0843 34.9528L28.0839 34.9523Z" fill="#1AAAC2"/>
<path d="M27.6131 37.1062C27.6131 37.1062 27.9719 36.9479 28.0636 37.1478C28.0636 37.1478 28.247 37.3483 28.0636 37.6068C28.0636 37.6068 20.89 44.1135 15.1675 43.6295C13.6331 43.638 12.4537 43.3681 11.7017 43.1416C8.96144 42.3158 6.47883 40.4288 5.4077 39.1251C5.29047 38.9824 5.00875 38.626 4.52329 38.2743C3.74239 37.7085 2.91801 37.5057 2.33753 37.4234C2.33753 37.4234 1.8984 37.3511 1.99814 37.0788C1.99814 37.0788 1.99246 36.6619 2.47083 36.7229C2.73885 36.7295 3.03524 36.7621 3.34958 36.8392C4.76294 37.1847 5.62231 38.1982 5.9773 38.6808C6.35641 39.1322 6.96193 39.7864 7.81373 40.4411C10.639 42.6122 15.2195 42.9389 15.6454 42.9299C18.9136 42.8594 21.2218 41.5108 23.4614 40.2019C25.3187 39.1171 26.6989 37.9618 27.6127 37.1072L27.6131 37.1062Z" fill="#1AAAC2"/>
<path d="M26.3389 39.9076C26.3389 39.9076 26.6168 39.685 26.8281 39.9299C26.8281 39.9299 27.0058 40.1856 26.8281 40.3302C26.8281 40.3302 24.3757 42.2097 23.202 42.7604C23.202 42.7604 19.5566 45.3186 14.9856 44.9683C13.6001 44.9414 12.4874 44.7178 11.7197 44.5136C11.0008 44.3222 7.94006 43.5072 5.77605 41.2813C5.49857 40.9958 5.14925 40.5978 4.5234 40.1279C3.54964 39.3967 2.60567 39.0157 1.98502 38.8119C1.98502 38.8119 1.71085 38.7174 1.76616 38.4224C1.76616 38.4224 1.82714 38.0722 2.18308 38.1554C2.18308 38.1554 4.20197 38.6281 5.60871 40.1019C6.38725 40.9778 7.87624 42.4153 10.1792 43.373C12.6788 44.4125 14.9861 44.3694 16.3753 44.2617C19.2489 44.0385 21.3108 43.0043 22.7482 42.265C24.3167 41.459 25.5154 40.5822 26.3379 39.9072L26.3389 39.9076Z" fill="#1AAAC2"/>
<path d="M24.3154 42.9494C24.3154 42.9494 25.0661 42.6492 24.7493 43.3833C23.5241 44.2554 22.4081 44.7924 21.6026 45.1224C18.2474 46.497 15.3034 46.3216 14.0886 46.236C13.3602 46.1845 12.3184 46.1051 10.9948 45.7208C9.18531 45.1956 7.83009 44.3859 6.96505 43.7752C6.07496 43.0666 5.13761 42.3557 4.15061 41.6494C3.78475 41.3876 3.4203 41.1323 3.05821 40.8832C3.05821 40.8832 2.75805 40.5386 3.05821 40.3717C3.05821 40.3717 3.32528 40.2384 3.50302 40.3717C4.68051 41.2789 5.858 42.1855 7.03596 43.0926C8.51739 44.0139 10.9343 45.2145 14.0806 45.5213C15.3805 45.648 16.4573 45.5884 17.1744 45.5147C20.3098 45.1918 22.7522 43.96 24.3159 42.9494H24.3154Z" fill="#1AAAC2"/>
<path d="M21.7462 45.6766C21.7462 45.6766 22.33 45.6265 22.0299 46.1105C22.0299 46.1105 21.3794 46.6943 19.0268 47.3117C19.0268 47.3117 13.7884 48.544 8.73336 46.293C8.73336 46.293 6.51452 45.2767 5.14654 43.9754C5.14654 43.9754 4.89648 43.4913 5.27984 43.4081C5.27984 43.4081 5.56345 43.358 5.91372 43.7749C5.91372 43.7749 8.91015 46.3441 13.2093 46.8281C13.2093 46.8281 18.2426 47.6288 21.7462 45.6771V45.6766Z" fill="#1AAAC2"/>
<path d="M47.103 28.0691C46.5937 28.0691 46.1328 27.9575 45.7185 27.7353C45.3152 27.5122 44.9494 27.2205 44.6202 26.8602C44.302 26.499 44.0103 26.1176 43.7451 25.7143C43.639 25.5552 43.5119 25.3321 43.3628 25.0459C43.2147 24.7487 43.0602 24.4249 42.901 24.0756C42.7419 23.7254 42.5828 23.3861 42.4237 23.0569C42.2755 22.7176 42.1429 22.4305 42.0259 22.1973C41.8988 21.922 41.7927 21.7465 41.7077 21.6724C41.6336 21.5983 41.6226 21.5343 41.6757 21.4813C41.6866 21.4813 41.6912 21.4758 41.6912 21.4657C41.7333 21.4227 41.7863 21.4127 41.8503 21.4337C41.9034 21.4548 41.9509 21.4758 41.9939 21.4977L42.153 21.5608C42.5353 21.6879 42.9431 21.752 43.3784 21.752C43.8137 21.752 44.291 21.6779 44.7464 21.5288C45.2028 21.3697 45.6216 21.153 46.0038 20.8768C46.3861 20.5906 46.6878 20.2458 46.911 19.8425C47.1442 19.4292 47.2612 18.9674 47.2612 18.458C47.2612 18.0017 47.1497 17.5673 46.9274 17.1531C46.7043 16.7398 46.376 16.395 45.9407 16.1188C45.4524 15.8116 44.8269 15.5784 44.0633 15.4193C43.2997 15.2492 42.5096 15.1641 41.6921 15.1641C41.0666 15.1641 40.4347 15.2281 39.7983 15.3553C39.1728 15.4723 38.5884 15.6525 38.048 15.8966C37.5066 16.1298 37.0512 16.427 36.6799 16.7873C36.4037 17.0635 36.155 17.4183 35.9319 17.8536C35.7088 18.2889 35.5981 18.7232 35.5981 19.1585C35.5981 19.3597 35.6301 19.5563 35.6932 19.7474C35.7883 20.0437 35.9694 20.2724 36.2346 20.4315C36.5107 20.5796 36.818 20.6537 37.1573 20.6537C37.4225 20.6537 37.6986 20.6061 37.9849 20.511H38.0004C38.0114 20.5001 38.0214 20.4946 38.0324 20.4946C38.0644 20.4946 38.08 20.5055 38.08 20.5266C38.08 20.5796 38.048 20.6171 37.9849 20.6381C37.6986 20.7442 37.3749 20.7973 37.0146 20.7973C36.6753 20.7973 36.3461 20.7332 36.0279 20.6061C35.7206 20.479 35.4655 20.2824 35.2643 20.0172C35.0732 19.752 34.9781 19.4127 34.9781 18.9994C34.9781 18.6601 35.0256 18.352 35.1217 18.0767C35.2168 17.7896 35.3448 17.5299 35.5039 17.2967C35.7801 16.8833 36.1459 16.5276 36.6022 16.2304C37.0585 15.9332 37.5724 15.6899 38.1458 15.4988C38.7183 15.3077 39.3127 15.1696 39.9281 15.0846C40.5435 14.9895 41.148 14.9419 41.7424 14.9419C42.5801 14.9419 43.3866 15.005 44.1612 15.1321C44.9458 15.2492 45.5932 15.4193 46.1026 15.6415C46.8131 15.9387 47.3225 16.3264 47.6297 16.8038C47.937 17.2811 48.0916 17.7795 48.0916 18.2989C48.0916 18.8933 47.9535 19.4182 47.6782 19.8745C47.403 20.3309 47.0363 20.7177 46.5799 21.0359C46.1346 21.3432 45.6408 21.5819 45.1003 21.752C44.5699 21.9111 44.045 21.9906 43.5247 21.9906C43.3016 21.9906 43.0794 21.9797 42.8562 21.9586C42.6441 21.9266 42.4374 21.8846 42.2353 21.8315C42.3834 22.0327 42.5691 22.2979 42.7922 22.6271C43.0153 22.9453 43.243 23.2846 43.4762 23.6458C43.7204 23.9961 43.9426 24.3243 44.1447 24.6325C44.3569 24.9398 44.527 25.173 44.6541 25.3321C44.8873 25.6403 45.1634 25.9686 45.4817 26.3188C45.7999 26.669 46.1447 26.9662 46.5159 27.2095C46.8982 27.4537 47.2905 27.5762 47.6938 27.5762C47.9699 27.5762 48.2086 27.5067 48.4098 27.3686C48.611 27.2314 48.7655 27.0723 48.8716 26.8913C48.9886 26.6901 49.0463 26.4359 49.0463 26.1277C49.0463 25.8835 49.0143 25.6403 48.9512 25.3961C48.8871 25.141 48.8131 24.9188 48.728 24.7276C48.5899 24.4204 48.4738 24.2027 48.3778 24.0756C48.3247 23.9906 48.2982 23.9375 48.2982 23.9165C48.2982 23.8735 48.3193 23.8525 48.3622 23.8525C48.4262 23.8525 48.5159 23.9 48.6329 23.9961C48.8661 24.2292 49.0463 24.5045 49.1743 24.8227C49.3124 25.141 49.3809 25.4702 49.3809 25.8094C49.3809 26.2658 49.2538 26.6956 48.9987 27.0988C48.8186 27.3851 48.5634 27.6183 48.2351 27.7984C47.9059 27.9786 47.5301 28.0691 47.1058 28.0691H47.103ZM35.1372 27.5277C35.0311 27.5277 34.861 27.5122 34.6279 27.4802C34.4047 27.4591 34.1981 27.3951 34.0069 27.2891C33.8158 27.183 33.7207 27.0138 33.7207 26.7806C33.7207 26.6425 33.7527 26.5364 33.8158 26.4624C33.8579 26.4093 33.9009 26.3828 33.9429 26.3828C33.985 26.3828 33.996 26.4093 33.9749 26.4624C33.9429 26.6215 34.0014 26.7696 34.1496 26.9077C34.2977 27.0559 34.4468 27.1519 34.5949 27.1939C34.701 27.215 34.8016 27.2314 34.8976 27.2415C34.9927 27.2625 35.0833 27.2735 35.1683 27.2735C35.5926 27.2735 35.9804 27.1619 36.3297 26.9397C36.6799 26.7276 36.9927 26.4514 37.2688 26.1121C37.5551 25.7829 37.8102 25.4491 38.0324 25.1099C38.3506 24.6215 38.6634 24.0646 38.9716 23.4391C39.2797 22.8127 39.598 22.1708 39.9263 21.5133C40.2555 20.8448 40.6002 20.1983 40.9605 19.5719C41.3318 18.9464 41.7351 18.3895 42.1695 17.9011C42.6048 17.4027 43.0821 17.0205 43.6015 16.7553C43.9408 16.5752 44.2645 16.4855 44.5718 16.4855C44.7419 16.4855 44.8955 16.5066 45.0336 16.5486C45.0756 16.5596 45.0866 16.5861 45.0656 16.6282C45.0546 16.6712 45.0281 16.6867 44.986 16.6757C44.944 16.6547 44.8955 16.6447 44.8425 16.6447H44.6989C44.1475 16.6447 43.5695 16.9995 42.9641 17.71C42.4978 18.2624 42.0945 18.8503 41.7552 19.4768C41.4159 20.0922 41.1032 20.7287 40.8161 21.3862C40.5298 22.0327 40.2326 22.6747 39.9254 23.3111C39.6282 23.9476 39.2733 24.5575 38.8591 25.141C38.5729 25.5443 38.2491 25.921 37.8888 26.2713C37.5285 26.6316 37.1308 26.9233 36.6955 27.1464C36.4513 27.2625 36.1971 27.3531 35.9319 27.4171C35.6777 27.4911 35.4125 27.5277 35.1363 27.5277H35.1372ZM51.3141 26.2072C50.6987 26.2072 50.2643 26.0481 50.0092 25.7299C49.8821 25.5918 49.7915 25.4281 49.7385 25.237C49.6855 25.0459 49.6589 24.8493 49.6589 24.6481C49.6589 24.3939 49.691 24.1387 49.7541 23.8845C49.8181 23.6193 49.8976 23.3751 49.9927 23.152C50.1409 22.8027 50.3375 22.4524 50.5816 22.1022C50.8258 21.741 51.1175 21.4392 51.4568 21.195C51.807 20.9509 52.1893 20.8293 52.6026 20.8293C52.8788 20.8293 53.0955 20.8978 53.2546 21.0359C53.4138 21.174 53.4933 21.3862 53.4933 21.6724C53.4933 22.0016 53.3927 22.3354 53.1906 22.6746C52.9894 23.0039 52.7343 23.28 52.427 23.5022C52.1198 23.7254 51.8015 23.8369 51.4723 23.8369C51.1751 23.8369 50.9154 23.7309 50.6923 23.5187C50.6283 23.6879 50.5752 23.879 50.5332 24.0912C50.4911 24.2923 50.4692 24.4999 50.4692 24.7121C50.4692 25.0404 50.5332 25.3266 50.6603 25.5708C50.7984 25.8149 51.0425 25.9366 51.3919 25.9366C51.6461 25.9366 51.8902 25.8735 52.1234 25.7464C52.3676 25.6083 52.5852 25.4437 52.7755 25.2525C52.9876 25.0303 53.1888 24.7916 53.3799 24.5365C53.571 24.2823 53.7567 23.9851 53.9368 23.6458C53.9579 23.6138 53.9743 23.5983 53.9844 23.5983C54.0264 23.5983 54.0484 23.6458 54.0484 23.7409C54.0484 23.8049 54.0274 23.8735 53.9844 23.9476C53.8253 24.2347 53.6396 24.5264 53.4275 24.8227C53.2153 25.1099 52.9977 25.3586 52.7755 25.5708C52.5743 25.7619 52.3566 25.9155 52.1234 26.0326C51.8902 26.1487 51.6196 26.2072 51.3114 26.2072H51.3141ZM50.7737 23.28C50.8478 23.3861 50.9328 23.4657 51.0279 23.5187C51.134 23.5608 51.2401 23.5818 51.3461 23.5818C51.6013 23.5818 51.8656 23.4867 52.1417 23.2956C52.4179 23.0944 52.6401 22.8603 52.8102 22.5951C52.8843 22.479 52.9483 22.3244 53.0013 22.1342C53.0653 21.9431 53.0964 21.7629 53.0964 21.5928C53.0964 21.4447 53.0644 21.3167 53.0013 21.2106C52.9483 21.0944 52.8367 21.0359 52.6675 21.0359C52.4764 21.0359 52.2487 21.153 51.9835 21.3862C51.7293 21.6194 51.4851 21.922 51.251 22.2933C51.177 22.4204 51.0919 22.5686 50.9968 22.7387C50.9118 22.9088 50.8377 23.0889 50.7737 23.28ZM59.8863 26.1752C59.5681 26.1752 59.324 26.0801 59.1548 25.889C58.9847 25.6878 58.9006 25.4382 58.9006 25.141C58.9006 24.8127 58.9856 24.4835 59.1548 24.1552C59.3249 23.815 59.5151 23.4867 59.7272 23.1685C59.9504 22.8502 60.1461 22.5475 60.3162 22.2613C60.4862 21.9751 60.5704 21.7199 60.5704 21.4977C60.5704 21.4127 60.5493 21.3386 60.5064 21.2746C60.4643 21.2005 60.3847 21.163 60.2677 21.163C59.9284 21.163 59.5727 21.3222 59.2014 21.6404C58.8411 21.9486 58.4909 22.3464 58.1507 22.8338C57.8114 23.3221 57.5032 23.8315 57.228 24.3618C56.9628 24.8922 56.7561 25.3796 56.6071 25.8259C56.437 25.7829 56.3208 25.7198 56.2568 25.6348C56.2038 25.5388 56.1773 25.4382 56.1773 25.3321C56.1773 25.1629 56.1983 24.9983 56.2413 24.8392C56.2943 24.6801 56.3739 24.4835 56.48 24.2503C56.586 24.0171 56.7241 23.7199 56.8933 23.3596C57.0634 22.9883 57.2646 22.511 57.4978 21.9266C57.5298 21.8425 57.5508 21.7675 57.5618 21.7044C57.5728 21.6404 57.5773 21.5819 57.5773 21.5288C57.5773 21.2856 57.4767 21.163 57.2746 21.163C57.0204 21.163 56.7598 21.2691 56.4946 21.4813C56.2294 21.6834 55.9697 21.9531 55.7146 22.2933C55.4704 22.6326 55.2372 22.9984 55.0141 23.3907C54.7909 23.7839 54.5898 24.1707 54.4096 24.553C54.2295 24.9242 54.0804 25.247 53.9643 25.5232C53.8582 25.7674 53.7311 25.9265 53.582 26.0006C53.4339 26.0646 53.2903 26.0957 53.1522 26.0957C53.1101 26.0957 53.0571 26.0911 52.9931 26.0801H52.834C53.0461 25.6558 53.2693 25.194 53.5025 24.6956C53.7466 24.1863 53.9688 23.6778 54.1709 23.1685C54.3721 22.6591 54.5367 22.1708 54.6638 21.7044C54.7909 21.2371 54.855 20.8347 54.855 20.4946C54.855 20.4525 54.8495 20.4205 54.8394 20.3995V20.3354C54.8394 20.3044 54.8504 20.2879 54.8714 20.2879C54.9775 20.2879 55.0625 20.3574 55.1265 20.4946C55.1906 20.6226 55.2326 20.7707 55.2537 20.9408C55.2857 21.0999 55.3012 21.2271 55.3012 21.3222C55.3012 21.5874 55.2692 21.8635 55.2061 22.1497C55.1421 22.4259 55.068 22.6591 54.983 22.8502C55.3863 22.3089 55.7996 21.8471 56.2239 21.4657C56.6592 21.0835 57.0881 20.8924 57.5124 20.8924C57.7986 20.8924 58.0053 20.9509 58.1333 21.0679C58.2604 21.1841 58.3244 21.3487 58.3244 21.5608C58.3244 21.7099 58.2979 21.858 58.2449 22.0062C58.2028 22.1552 58.1278 22.3564 58.0217 22.6116C58.425 22.0592 58.8173 21.6349 59.1996 21.3386C59.5919 21.0414 59.9796 20.8924 60.361 20.8924C60.6682 20.8924 60.8968 20.9619 61.045 21.0999C61.2041 21.2371 61.2837 21.4227 61.2837 21.6568C61.2837 21.9111 61.1986 22.2138 61.0294 22.564C60.8703 22.9033 60.6847 23.2581 60.4725 23.6294C60.2604 23.9906 60.0692 24.3353 59.9001 24.6636C59.7409 24.9818 59.6614 25.2471 59.6614 25.4592C59.6614 25.5763 59.6879 25.6823 59.7409 25.7774C59.794 25.8735 59.8891 25.921 60.0272 25.921C60.2073 25.921 60.3774 25.8625 60.5365 25.7464C60.7066 25.6183 60.8493 25.4857 60.9663 25.3485C61.2105 25.0834 61.4327 24.7916 61.6348 24.4734C61.847 24.1442 62.0536 23.7994 62.2557 23.4391C62.2877 23.3962 62.3088 23.3751 62.3197 23.3751C62.3618 23.3751 62.3838 23.4227 62.3838 23.5187C62.3838 23.5818 62.3728 23.6294 62.3518 23.6614C62.1606 24.0116 61.9594 24.3563 61.7473 24.6956C61.5351 25.0248 61.2754 25.3431 60.9673 25.6503C60.8292 25.7884 60.67 25.91 60.4899 26.0161C60.3097 26.1222 60.1076 26.1752 59.8854 26.1752H59.8863ZM63.6686 26.2072C63.0531 26.2072 62.6188 26.0481 62.3636 25.7299C62.2365 25.5918 62.146 25.4281 62.093 25.237C62.0399 25.0459 62.0134 24.8493 62.0134 24.6481C62.0134 24.3939 62.0454 24.1387 62.1085 23.8845C62.1725 23.6193 62.2521 23.3751 62.3472 23.152C62.4953 22.8027 62.6919 22.4524 62.9361 22.1022C63.1803 21.741 63.472 21.4392 63.8112 21.195C64.1615 20.9509 64.5428 20.8293 64.9571 20.8293C65.2332 20.8293 65.45 20.8978 65.6091 21.0359C65.7682 21.174 65.8478 21.3862 65.8478 21.6724C65.8478 22.0016 65.7472 22.3354 65.5451 22.6746C65.3439 23.0039 65.0887 23.28 64.7815 23.5022C64.4742 23.7254 64.156 23.8369 63.8268 23.8369C63.5296 23.8369 63.2699 23.7309 63.0467 23.5187C62.9827 23.6879 62.9297 23.879 62.8876 24.0912C62.8456 24.2923 62.8236 24.4999 62.8236 24.7121C62.8236 25.0404 62.8876 25.3266 63.0147 25.5708C63.1528 25.8149 63.397 25.9366 63.7463 25.9366C64.0005 25.9366 64.2447 25.8735 64.4779 25.7464C64.7221 25.6083 64.9397 25.4437 65.1299 25.2525C65.3421 25.0303 65.5432 24.7916 65.7344 24.5365C65.9255 24.2823 66.1111 23.9851 66.2913 23.6458C66.3123 23.6138 66.3288 23.5983 66.3388 23.5983C66.3809 23.5983 66.4028 23.6458 66.4028 23.7409C66.4028 23.8049 66.3818 23.8735 66.3388 23.9476C66.1797 24.2347 65.9941 24.5264 65.7819 24.8227C65.5698 25.1099 65.3521 25.3586 65.1299 25.5708C64.9287 25.7619 64.7111 25.9155 64.4779 26.0326C64.2447 26.1487 63.974 26.2072 63.6668 26.2072H63.6686ZM63.1272 23.28C63.2013 23.3861 63.2863 23.4657 63.3814 23.5187C63.4875 23.5608 63.5936 23.5818 63.6997 23.5818C63.9539 23.5818 64.2191 23.4867 64.4953 23.2956C64.7714 23.0944 64.9937 22.8603 65.1637 22.5951C65.2378 22.479 65.3018 22.3244 65.3549 22.1342C65.4189 21.9431 65.45 21.7629 65.45 21.5928C65.45 21.4447 65.418 21.3167 65.3549 21.2106C65.3018 21.0944 65.1903 21.0359 65.0211 21.0359C64.83 21.0359 64.6023 21.153 64.3371 21.3862C64.0828 21.6194 63.8387 21.922 63.6055 22.2933C63.5314 22.4204 63.4464 22.5686 63.3513 22.7387C63.2662 22.9088 63.1921 23.0889 63.1281 23.28H63.1272ZM72.2408 26.1752C71.9226 26.1752 71.6784 26.0801 71.5092 25.889C71.3391 25.6878 71.255 25.4382 71.255 25.141C71.255 24.8127 71.34 24.4835 71.5092 24.1552C71.6793 23.815 71.8695 23.4867 72.0817 23.1685C72.3048 22.8502 72.5005 22.5475 72.6706 22.2613C72.8407 21.9751 72.9248 21.7199 72.9248 21.4977C72.9248 21.4127 72.9038 21.3386 72.8608 21.2746C72.8187 21.2005 72.7392 21.163 72.6221 21.163C72.2829 21.163 71.9271 21.3222 71.5559 21.6404C71.1956 21.9486 70.8453 22.3464 70.5061 22.8338C70.1668 23.3221 69.8586 23.8315 69.5834 24.3618C69.3182 24.8922 69.1115 25.3796 68.9624 25.8259C68.7923 25.7829 68.6762 25.7198 68.6122 25.6348C68.5592 25.5388 68.5326 25.4382 68.5326 25.3321C68.5326 25.1629 68.5537 24.9983 68.5966 24.8392C68.6497 24.6801 68.7292 24.4835 68.8353 24.2503C68.9414 24.0171 69.0795 23.7199 69.2487 23.3596C69.4188 22.9883 69.6199 22.511 69.8531 21.9266C69.8851 21.8425 69.9062 21.7675 69.9171 21.7044C69.9281 21.6404 69.9327 21.5819 69.9327 21.5288C69.9327 21.2856 69.8321 21.163 69.63 21.163C69.3758 21.163 69.1151 21.2691 68.85 21.4813C68.5848 21.6834 68.3251 21.9531 68.0699 22.2933C67.8258 22.6326 67.5926 22.9984 67.3694 23.3907C67.1463 23.7839 66.9451 24.1707 66.765 24.553C66.5848 24.9242 66.4358 25.247 66.3196 25.5232C66.2135 25.7674 66.0864 25.9265 65.9374 26.0006C65.7892 26.0646 65.6457 26.0957 65.5076 26.0957C65.4655 26.0957 65.4125 26.0911 65.3485 26.0801H65.1893C65.4015 25.6558 65.6246 25.194 65.8578 24.6956C66.102 24.1863 66.3242 23.6778 66.5263 23.1685C66.7275 22.6591 66.8921 22.1708 67.0192 21.7044C67.1463 21.2371 67.2103 20.8347 67.2103 20.4946C67.2103 20.4525 67.2048 20.4205 67.1948 20.3995V20.3354C67.1948 20.3044 67.2057 20.2879 67.2268 20.2879C67.3329 20.2879 67.4179 20.3574 67.481 20.4946C67.545 20.6226 67.5871 20.7707 67.6081 20.9408C67.6401 21.0999 67.6557 21.2271 67.6557 21.3222C67.6557 21.5874 67.6237 21.8635 67.5606 22.1497C67.4965 22.4259 67.4225 22.6591 67.3374 22.8502C67.7407 22.3089 68.154 21.8471 68.5784 21.4657C69.0136 21.0835 69.4425 20.8924 69.8668 20.8924C70.1531 20.8924 70.3597 20.9509 70.4878 21.0679C70.6149 21.1841 70.6789 21.3487 70.6789 21.5608C70.6789 21.7099 70.6524 21.858 70.5993 22.0062C70.5573 22.1552 70.4823 22.3564 70.3762 22.6116C70.7795 22.0592 71.1718 21.6349 71.554 21.3386C71.9463 21.0414 72.3341 20.8924 72.7154 20.8924C73.0227 20.8924 73.2513 20.9619 73.3994 21.0999C73.5585 21.2371 73.6381 21.4227 73.6381 21.6568C73.6381 21.9111 73.5531 22.2138 73.3839 22.564C73.2248 22.9033 73.0391 23.2581 72.827 23.6294C72.6148 23.9906 72.4237 24.3353 72.2545 24.6636C72.0954 24.9818 72.0158 25.2471 72.0158 25.4592C72.0158 25.5763 72.0424 25.6823 72.0954 25.7774C72.1484 25.8735 72.2435 25.921 72.3816 25.921C72.5618 25.921 72.7319 25.8625 72.891 25.7464C73.0611 25.6183 73.2037 25.4857 73.3208 25.3485C73.5649 25.0834 73.7872 24.7916 73.9893 24.4734C74.2014 24.1442 74.4081 23.7994 74.6102 23.4391C74.6422 23.3962 74.6632 23.3751 74.6742 23.3751C74.7163 23.3751 74.7382 23.4227 74.7382 23.5187C74.7382 23.5818 74.7272 23.6294 74.7062 23.6614C74.5151 24.0116 74.3139 24.3563 74.1017 24.6956C73.8896 25.0248 73.6299 25.3431 73.3217 25.6503C73.1836 25.7884 73.0245 25.91 72.8443 26.0161C72.6642 26.1222 72.4621 26.1752 72.2399 26.1752H72.2408ZM75.0034 26.2868C74.6641 26.2868 74.42 26.1862 74.2718 25.985C74.1337 25.7829 74.0652 25.5388 74.0652 25.2525C74.0652 25.0404 74.0972 24.8337 74.1603 24.6325C74.2243 24.3984 74.3349 24.0802 74.494 23.6778C74.6532 23.2745 74.8278 22.8393 75.0189 22.3729C75.2201 21.8955 75.4222 21.4392 75.6234 21.0039C75.7085 20.8128 75.8036 20.6006 75.9096 20.3674C76.0267 20.1233 76.1373 19.8846 76.2434 19.6514C76.3605 19.4182 76.4556 19.2271 76.5296 19.079C76.7208 18.7077 76.9485 18.2669 77.2137 17.7585C77.4789 17.2491 77.7816 16.7452 78.1208 16.2469C78.4711 15.7375 78.8579 15.3022 79.2822 14.9419C79.7065 14.5807 80.1683 14.3631 80.6667 14.289C80.7088 14.2789 80.7618 14.2734 80.8258 14.2734C81.07 14.2734 81.2501 14.3475 81.3672 14.4957C81.4943 14.6447 81.5583 14.8249 81.5583 15.037C81.5583 15.2281 81.5208 15.4028 81.4467 15.5619C81.2766 15.9442 81.0069 16.3475 80.6347 16.7718C80.2744 17.1961 79.8812 17.6094 79.4569 18.0127C79.0435 18.405 78.6722 18.7607 78.343 19.079C78.0669 19.3442 77.8236 19.5774 77.6115 19.7785C77.3993 19.9697 77.2027 20.1608 77.0225 20.3519C76.8424 20.543 76.6458 20.7552 76.4336 20.9884C76.3166 21.2536 76.2004 21.5243 76.0834 21.7995C75.9773 22.0647 75.9188 22.2183 75.9087 22.2613C76.2059 21.858 76.5297 21.5078 76.879 21.2106C77.2393 20.9033 77.5685 20.7497 77.8657 20.7497C78.2159 20.7497 78.4546 20.8393 78.5817 21.0204C78.7198 21.2005 78.7884 21.4282 78.7884 21.7044C78.7884 21.9586 78.7463 22.2293 78.6613 22.5155C78.5762 22.8027 78.4756 23.0779 78.3586 23.3431C78.2525 23.5983 78.1464 23.815 78.0403 23.9961C77.9343 24.1652 77.8126 24.3454 77.6746 24.5365C77.5474 24.7167 77.4039 24.8922 77.2448 25.0614C77.2868 25.1995 77.3563 25.3001 77.4514 25.3641C77.5465 25.4281 77.6581 25.4592 77.7852 25.4592C77.9334 25.4592 78.0879 25.4281 78.247 25.3641C78.4061 25.29 78.5442 25.205 78.6604 25.1099C78.9045 24.9078 79.1267 24.6691 79.3288 24.3939C79.53 24.1177 79.7156 23.8315 79.8857 23.5342C79.8967 23.5132 79.9013 23.5022 79.9013 23.5022H79.9168C79.9379 23.5022 79.9488 23.5498 79.9488 23.6458V23.7729C79.9488 23.8049 79.9379 23.8369 79.9168 23.868C79.7367 24.1863 79.551 24.4734 79.3599 24.7276C79.1688 24.9718 78.9356 25.1894 78.6594 25.3796C78.3732 25.5817 78.065 25.6823 77.7367 25.6823C77.5886 25.6823 77.4505 25.6503 77.3234 25.5872C77.1963 25.5232 77.1058 25.4171 77.0527 25.269C76.7555 25.5552 76.4318 25.7994 76.0825 26.0006C75.7432 26.1917 75.382 26.2868 75.0007 26.2868H75.0034ZM76.6906 20.4315C76.9348 20.1553 77.1625 19.9111 77.3746 19.699C77.5868 19.4768 77.8465 19.2061 78.1547 18.8878C78.4519 18.5906 78.7911 18.2404 79.1734 17.838C79.5657 17.4347 79.9315 17.026 80.2716 16.6127C80.6219 16.1984 80.8761 15.8326 81.0352 15.5144C81.1623 15.2602 81.2264 15.0526 81.2264 14.8934C81.2264 14.5862 81.0462 14.4591 80.685 14.5121C80.3347 14.5542 79.9955 14.7298 79.6663 15.037C79.348 15.3452 79.0408 15.732 78.7436 16.1984C78.4573 16.6547 78.1867 17.143 77.9324 17.6625C77.6782 18.1828 77.4441 18.6867 77.232 19.1741C77.0308 19.6624 76.8497 20.0812 76.6906 20.4315ZM75.6874 25.7619C75.9206 25.6028 76.1437 25.3851 76.3559 25.1099C76.5681 24.8337 76.7537 24.5575 76.9128 24.2823C77.0829 24.0061 77.21 23.7885 77.2951 23.6294C77.3591 23.5132 77.4432 23.3331 77.5502 23.0889C77.6672 22.8338 77.7733 22.564 77.8684 22.2769C77.9635 21.9906 78.012 21.741 78.012 21.5288C78.012 21.3807 77.98 21.2636 77.9169 21.1795C77.8639 21.0835 77.7633 21.0359 77.6142 21.0359C77.4761 21.0359 77.3115 21.1155 77.1204 21.2746C76.9402 21.4227 76.7601 21.6139 76.579 21.8471C76.3559 22.1232 76.1127 22.457 75.8475 22.8502C75.5823 23.2316 75.3381 23.6294 75.1159 24.0436C74.9037 24.457 74.7446 24.8337 74.6385 25.173C74.6065 25.3001 74.591 25.4116 74.591 25.5077C74.591 25.6768 74.633 25.7994 74.7181 25.8735C74.8132 25.9475 74.9248 25.985 75.0519 25.985C75.264 25.985 75.4762 25.91 75.6883 25.7619H75.6874ZM81.3672 26.2072C80.7517 26.2072 80.3165 26.0481 80.0622 25.7299C79.9351 25.5918 79.8446 25.4281 79.7916 25.237C79.7385 25.0459 79.712 24.8493 79.712 24.6481C79.712 24.3939 79.744 24.1387 79.8071 23.8845C79.8711 23.6193 79.9507 23.3751 80.0458 23.152C80.1939 22.8027 80.3905 22.4524 80.6347 22.1022C80.8788 21.741 81.1706 21.4392 81.5098 21.195C81.8601 20.9509 82.2414 20.8293 82.6557 20.8293C82.9318 20.8293 83.1486 20.8978 83.3077 21.0359C83.4668 21.174 83.5464 21.3862 83.5464 21.6724C83.5464 22.0016 83.4458 22.3354 83.2437 22.6746C83.0425 23.0039 82.7873 23.28 82.4801 23.5022C82.1728 23.7254 81.8546 23.8369 81.5254 23.8369C81.2282 23.8369 80.9685 23.7309 80.7453 23.5187C80.6813 23.6879 80.6283 23.879 80.5862 24.0912C80.5442 24.2923 80.5222 24.4999 80.5222 24.7121C80.5222 25.0404 80.5862 25.3266 80.7133 25.5708C80.8514 25.8149 81.0956 25.9366 81.4449 25.9366C81.6991 25.9366 81.9433 25.8735 82.1765 25.7464C82.4206 25.6083 82.6383 25.4437 82.8285 25.2525C83.0407 25.0303 83.2418 24.7916 83.433 24.5365C83.6241 24.2823 83.8097 23.9851 83.9899 23.6458C84.0109 23.6138 84.0274 23.5983 84.0374 23.5983C84.0795 23.5983 84.1014 23.6458 84.1014 23.7409C84.1014 23.8049 84.0804 23.8735 84.0374 23.9476C83.8783 24.2347 83.6927 24.5264 83.4805 24.8227C83.2684 25.1099 83.0507 25.3586 82.8285 25.5708C82.6273 25.7619 82.4097 25.9155 82.1765 26.0326C81.9433 26.1487 81.6726 26.2072 81.3654 26.2072H81.3672ZM80.8267 23.28C80.9008 23.3861 80.9858 23.4657 81.0809 23.5187C81.187 23.5608 81.2931 23.5818 81.3992 23.5818C81.6534 23.5818 81.9186 23.4867 82.1948 23.2956C82.4709 23.0944 82.6932 22.8603 82.8632 22.5951C82.9373 22.479 83.0013 22.3244 83.0544 22.1342C83.1184 21.9431 83.1495 21.7629 83.1495 21.5928C83.1495 21.4447 83.1175 21.3167 83.0544 21.2106C83.0013 21.0944 82.8898 21.0359 82.7206 21.0359C82.5295 21.0359 82.3018 21.153 82.0366 21.3862C81.7823 21.6194 81.5382 21.922 81.305 22.2933C81.2309 22.4204 81.1459 22.5686 81.0508 22.7387C80.9657 22.9088 80.8917 23.0889 80.8276 23.28H80.8267ZM87.0908 25.7939C86.9107 25.942 86.7305 26.0481 86.5495 26.1121C86.3794 26.1862 86.2203 26.2237 86.0721 26.2237C85.8069 26.2237 85.5838 26.1332 85.4036 25.953C85.2335 25.7619 85.1494 25.5122 85.1494 25.205C85.1494 25.0248 85.1915 24.8072 85.2765 24.553C85.4146 24.1707 85.6213 23.8049 85.8974 23.4547C86.1736 23.1044 86.4388 22.7496 86.693 22.3884C86.8521 22.1763 86.9317 21.9696 86.9317 21.7675C86.9317 21.6614 86.8997 21.5718 86.8366 21.4977C86.7836 21.4227 86.683 21.3807 86.5339 21.3697C86.4489 21.3487 86.3538 21.3386 86.2477 21.3386H85.3085C85.2555 21.3386 85.2079 21.3331 85.165 21.3222C85.1229 21.5874 85.0324 21.8846 84.8943 22.2138C84.7672 22.5421 84.6181 22.8713 84.4489 23.2005C84.2788 23.5288 84.1152 23.826 83.956 24.0912C83.914 24.1552 83.8765 24.1863 83.8445 24.1863C83.8125 24.1863 83.7969 24.1552 83.7969 24.0912C83.7969 24.0171 83.8125 23.9586 83.8445 23.9165C84.0676 23.4812 84.2798 23.0569 84.4809 22.6436C84.6931 22.2183 84.8367 21.7785 84.9107 21.3222C84.6666 21.1841 84.502 20.9454 84.4178 20.6061C84.4069 20.5531 84.3968 20.5055 84.3858 20.4635V20.3199C84.3858 20.1288 84.4233 19.9697 84.4974 19.8425C84.5824 19.7045 84.6775 19.6359 84.7836 19.6359C84.9318 19.6359 85.0543 19.7785 85.1494 20.0657C85.1704 20.1398 85.1869 20.2248 85.197 20.3199C85.2079 20.4049 85.2125 20.49 85.2125 20.5741C85.2125 20.6701 85.207 20.7598 85.197 20.8448C85.197 20.9189 85.1915 20.9829 85.1814 21.0359C85.2555 21.057 85.3515 21.0734 85.4677 21.0835C85.5948 21.0944 85.7328 21.0999 85.881 21.0999C86.1041 21.0999 86.3373 21.0944 86.5815 21.0835C86.8256 21.0624 87.0323 21.0515 87.2024 21.0515C87.4036 21.0515 87.5417 21.0944 87.6157 21.1795C87.6898 21.2636 87.7273 21.3697 87.7273 21.4977C87.7273 21.6568 87.6852 21.8315 87.6002 22.0226C87.5261 22.2028 87.452 22.3564 87.3771 22.4835C87.239 22.7387 87.1064 22.9664 86.9793 23.1685C86.8622 23.3596 86.7296 23.5663 86.5815 23.7885C86.3583 24.1287 86.1946 24.4414 86.0886 24.7276C85.9935 25.0038 85.945 25.237 85.945 25.4281C85.945 25.7564 86.0666 25.921 86.3108 25.921C86.512 25.921 86.7726 25.7774 87.0908 25.4912C87.292 25.3111 87.4776 25.0989 87.6477 24.8547C87.8279 24.6005 87.987 24.3454 88.1251 24.0912C88.2732 23.826 88.3958 23.6083 88.4909 23.4391C88.5119 23.4071 88.5329 23.3907 88.5549 23.3907C88.597 23.3907 88.6189 23.4337 88.6189 23.5187C88.6189 23.5818 88.6034 23.6403 88.5714 23.6934C88.3912 24.0226 88.1845 24.3829 87.9504 24.7752C87.7172 25.1675 87.431 25.5077 87.0908 25.7939ZM91.8854 28.1166C91.7683 28.1166 91.6046 28.1011 91.3925 28.0691C91.1803 28.0481 90.9892 27.984 90.82 27.878C90.6499 27.7719 90.5658 27.6128 90.5658 27.4006C90.5658 27.2845 90.5978 27.1784 90.6609 27.0824C90.7139 27.0293 90.7615 26.9973 90.8045 26.9873C90.8365 26.9873 90.8465 27.0138 90.8365 27.0668C90.7944 27.226 90.8475 27.3741 90.9956 27.5122C91.1337 27.6603 91.2763 27.7563 91.4254 27.7984C91.5955 27.8414 91.7756 27.8624 91.9668 27.8624C92.4021 27.8624 92.7998 27.7509 93.1601 27.5277C93.5204 27.3156 93.8442 27.0403 94.1304 26.701C94.4276 26.3718 94.6928 26.0381 94.926 25.6979C95.4673 24.9023 95.9548 24.0857 96.39 23.248C96.8253 22.3994 97.2652 21.5553 97.7105 20.7177C98.1559 19.88 98.6543 19.0735 99.2066 18.2989C99.3867 18.0447 99.6099 17.7585 99.8751 17.4402C100.14 17.111 100.432 16.7983 100.75 16.5011C101.068 16.2039 101.398 15.9707 101.737 15.8006C101.599 15.8006 101.483 15.796 101.387 15.7851C101.291 15.7741 101.132 15.764 100.909 15.7531C100.496 15.721 100.019 15.7055 99.4773 15.7055C99.1801 15.7055 98.8884 15.711 98.6021 15.721C98.326 15.721 98.0663 15.732 97.8221 15.7531C96.9524 15.8061 96.0828 15.9707 95.2122 16.2469C94.3526 16.5221 93.6156 16.9409 93.0001 17.5033C92.6398 17.8326 92.3426 18.2038 92.1094 18.6172C91.8762 19.0314 91.7592 19.4393 91.7592 19.8425C91.7592 20.2989 91.8808 20.6272 92.125 20.8293C92.3801 21.0204 92.6764 21.1155 93.0157 21.1155C93.2809 21.1155 93.5461 21.0679 93.8112 20.9719C94.3307 20.7918 94.755 20.4735 95.0842 20.0172C95.4235 19.5508 95.5725 19.0314 95.5295 18.458C95.5186 18.3629 95.4975 18.2669 95.4655 18.1718C95.4335 18.0767 95.3914 18.0127 95.3384 17.9807C95.2963 17.9487 95.2744 17.9176 95.2744 17.8856C95.2854 17.8536 95.3165 17.838 95.3695 17.838C95.6027 17.8591 95.7618 17.9917 95.8469 18.2358C95.942 18.469 95.9904 18.6912 95.9904 18.9034C95.9904 19.2326 95.9054 19.5508 95.7362 19.8581C95.5661 20.1553 95.3439 20.4205 95.0677 20.6537C94.8025 20.8768 94.5163 21.0469 94.2081 21.163C93.8789 21.2902 93.5296 21.3542 93.1583 21.3542C92.67 21.3542 92.2411 21.2161 91.8689 20.9408C91.5086 20.6647 91.3276 20.2138 91.3276 19.5883C91.3276 19.121 91.4391 18.6812 91.6613 18.2669C91.8945 17.8536 92.1762 17.4823 92.5045 17.1531C93.215 16.4535 94.0371 15.9762 94.9708 15.721C95.9145 15.4668 96.8747 15.3397 97.8504 15.3397C98.614 15.3397 99.3776 15.3818 100.142 15.4668C100.906 15.5409 101.665 15.5784 102.417 15.5784H102.831C102.884 15.5884 102.931 15.6104 102.974 15.6415C103.027 15.6634 103.043 15.7 103.022 15.7531C103.022 15.8171 102.984 15.8491 102.91 15.8491C102.762 15.8491 102.645 15.8701 102.56 15.9122C102.337 15.9862 102.147 16.1243 101.987 16.3264C101.828 16.5166 101.675 16.7507 101.526 17.026C101.325 17.3872 101.202 17.8115 101.16 18.2989C101.128 18.7763 101.107 19.2171 101.096 19.6194C101.085 20.1818 101.064 20.7652 101.032 21.3697C101.011 21.9751 100.92 22.5686 100.761 23.152C100.644 23.6083 100.469 24.0381 100.236 24.4414C100.013 24.8447 99.7215 25.2105 99.3611 25.5388C99.6373 25.4327 99.9126 25.2315 100.189 24.9343C100.465 24.6371 100.725 24.3143 100.969 23.964C101.223 23.6138 101.431 23.3166 101.59 23.0724C102.046 22.3729 102.523 21.6038 103.022 20.7652C103.531 19.9276 104.062 19.1 104.613 18.2834C105.164 17.4558 105.738 16.7242 106.331 16.0877C106.851 15.5254 107.36 15.1166 107.859 14.8624C108.369 14.6072 108.83 14.4801 109.244 14.4801C109.604 14.4801 109.918 14.5706 110.183 14.7508C110.448 14.92 110.634 15.1641 110.74 15.4824V15.5144C110.751 15.5144 110.756 15.5199 110.756 15.5308C110.756 15.6049 110.719 15.647 110.645 15.6579C110.571 15.668 110.522 15.6579 110.501 15.6259C110.406 15.1907 110.13 14.973 109.674 14.973C109.376 14.973 109.011 15.0901 108.575 15.3232C108.14 15.5573 107.647 15.9387 107.096 16.4691C106.522 17.0205 105.955 17.6734 105.393 18.426C104.831 19.1796 104.279 19.9541 103.738 20.7497C103.207 21.5453 102.677 22.2933 102.147 22.9929C101.955 23.248 101.711 23.5553 101.415 23.9165C101.129 24.2768 100.811 24.6371 100.46 24.9983C100.11 25.3486 99.7553 25.6403 99.3941 25.8735C99.0329 26.0957 98.689 26.1972 98.3598 26.1752C98.2958 26.1752 98.2592 26.1542 98.2482 26.1121C98.2482 26.0692 98.2748 26.0326 98.3278 26.0006C98.6881 25.7463 98.9798 25.4062 99.2029 24.9818C99.4261 24.5575 99.6062 24.0966 99.7443 23.5983C99.9245 22.9087 100.042 22.2083 100.095 21.4977C100.159 20.7863 100.238 20.0757 100.333 19.3652C100.386 19.036 100.45 18.6912 100.524 18.3309C100.609 17.9597 100.737 17.6259 100.907 17.3287C101.045 17.0845 101.236 16.8193 101.479 16.5331C101.723 16.2469 101.994 16.0393 102.29 15.9122C102.11 15.8701 101.903 15.9332 101.669 16.1033C101.446 16.2734 101.224 16.4956 101.001 16.7718C100.778 17.037 100.576 17.2967 100.396 17.5509C100.226 17.806 100.105 17.9917 100.031 18.1078C99.5212 18.9144 99.0548 19.7575 98.6305 20.6381C98.2171 21.5188 97.7928 22.3884 97.3575 23.248C96.9223 24.1067 96.4184 24.9188 95.8459 25.6823C95.5387 26.0957 95.1884 26.4889 94.7961 26.8602C94.4038 27.2415 93.985 27.5387 93.5387 27.7509C93.2735 27.8889 92.9974 27.984 92.7111 28.0371C92.435 28.0901 92.1597 28.1166 91.8835 28.1166H91.8854ZM104.79 26.8913C104.387 26.8913 104.063 26.7642 103.82 26.5099C103.587 26.2548 103.47 25.8789 103.47 25.3796C103.481 24.8813 103.565 24.3673 103.724 23.8369C103.894 23.3066 104.106 22.7807 104.361 22.2613C104.626 21.7309 104.896 21.2271 105.172 20.7497C105.797 19.6779 106.424 18.7287 107.049 17.9011C107.686 17.0735 108.2 16.3795 108.593 15.8171C108.625 15.764 108.683 15.743 108.767 15.7531C108.852 15.7531 108.873 15.7796 108.831 15.8326C108.407 16.384 107.977 17.0635 107.543 17.8691C107.119 18.6647 106.679 19.5243 106.222 20.447C106.148 20.6061 106.031 20.8658 105.872 21.227C105.724 21.5773 105.559 21.9797 105.379 22.436C105.209 22.8923 105.045 23.3486 104.886 23.8049C104.727 24.2503 104.606 24.6481 104.521 24.9983C104.489 25.1364 104.462 25.269 104.441 25.3961C104.42 25.5122 104.409 25.6293 104.409 25.7464C104.409 26.0006 104.462 26.2018 104.568 26.3508C104.685 26.5099 104.86 26.5895 105.093 26.5895C105.326 26.5895 105.597 26.4724 105.873 26.2392C106.149 26.0161 106.419 25.7409 106.685 25.4117C106.918 25.1364 107.13 24.8447 107.322 24.5365C107.523 24.2292 107.687 23.9531 107.814 23.7089C107.868 23.6458 107.905 23.6138 107.926 23.6138C107.958 23.6138 107.974 23.6403 107.974 23.6934C107.974 23.7574 107.953 23.8315 107.91 23.9165C107.782 24.1597 107.612 24.4469 107.4 24.7752C107.188 25.0934 106.949 25.4016 106.684 25.6979C106.387 26.0271 106.074 26.3078 105.745 26.5419C105.416 26.7751 105.098 26.8913 104.79 26.8913ZM109.385 26.2072C108.769 26.2072 108.335 26.0481 108.08 25.7299C107.953 25.5918 107.862 25.4281 107.809 25.237C107.756 25.0459 107.729 24.8493 107.729 24.6481C107.729 24.3939 107.761 24.1387 107.825 23.8845C107.889 23.6193 107.968 23.3751 108.063 23.152C108.211 22.8027 108.408 22.4524 108.652 22.1022C108.896 21.741 109.188 21.4392 109.527 21.195C109.878 20.9509 110.259 20.8293 110.673 20.8293C110.949 20.8293 111.166 20.8978 111.325 21.0359C111.484 21.174 111.564 21.3862 111.564 21.6724C111.564 22.0016 111.463 22.3354 111.262 22.6746C111.06 23.0039 110.806 23.28 110.498 23.5022C110.19 23.7254 109.872 23.8369 109.544 23.8369C109.247 23.8369 108.987 23.7309 108.764 23.5187C108.7 23.6879 108.647 23.879 108.605 24.0912C108.563 24.2923 108.541 24.4999 108.541 24.7121C108.541 25.0404 108.605 25.3266 108.732 25.5708C108.87 25.8149 109.114 25.9366 109.464 25.9366C109.718 25.9366 109.963 25.8735 110.196 25.7464C110.44 25.6083 110.658 25.4437 110.848 25.2525C111.06 25.0303 111.262 24.7916 111.453 24.5365C111.643 24.2823 111.829 23.9851 112.01 23.6458C112.031 23.6138 112.047 23.5983 112.058 23.5983C112.1 23.5983 112.121 23.6458 112.121 23.7409C112.121 23.8049 112.1 23.8735 112.058 23.9476C111.898 24.2347 111.713 24.5264 111.501 24.8227C111.289 25.1099 111.071 25.3586 110.848 25.5708C110.647 25.7619 110.429 25.9155 110.196 26.0326C109.963 26.1487 109.692 26.2072 109.385 26.2072ZM108.843 23.28C108.917 23.3861 109.002 23.4657 109.097 23.5187C109.204 23.5608 109.31 23.5818 109.416 23.5818C109.67 23.5818 109.935 23.4867 110.211 23.2956C110.487 23.0944 110.711 22.8603 110.88 22.5951C110.954 22.479 111.018 22.3244 111.071 22.1342C111.135 21.9431 111.166 21.7629 111.166 21.5928C111.166 21.4447 111.135 21.3167 111.071 21.2106C111.018 21.0944 110.906 21.0359 110.737 21.0359C110.546 21.0359 110.317 21.153 110.052 21.3862C109.798 21.6194 109.554 21.922 109.321 22.2933C109.247 22.4204 109.161 22.5686 109.066 22.7387C108.981 22.9088 108.907 23.0889 108.843 23.28Z" fill="#D8B119"/>
<path d="M33.7207 34.1286V33.9996L33.8378 33.9649C33.9118 33.9411 33.963 33.9045 33.9896 33.8533C34.017 33.7984 34.0307 33.729 34.0307 33.643V30.746C34.0307 30.6673 34.0206 30.6051 34.0014 30.5585C33.9822 30.5082 33.9329 30.4689 33.8551 30.4414L33.7207 30.3884V30.2604H34.8382L35.9383 33.1217L36.9744 30.2604H38.1156V30.3884L38.0224 30.4177C37.9483 30.4414 37.898 30.4789 37.8706 30.5292C37.8431 30.5759 37.8294 30.6381 37.8294 30.7167C37.8257 30.9426 37.8239 31.1694 37.8239 31.3952V32.9928C37.8239 33.2196 37.8257 33.4436 37.8294 33.6659C37.8294 33.7482 37.8395 33.8103 37.8587 33.8533C37.8779 33.8963 37.9245 33.932 37.9995 33.9585L38.1165 33.9996V34.1286H36.6946V33.9996L36.8235 33.9585C36.8976 33.932 36.9424 33.8963 36.9579 33.8533C36.9771 33.8067 36.9872 33.7445 36.9872 33.6659V32.3966L36.9991 30.8273L35.8048 34.1286H35.4774L34.2191 30.863L34.2429 32.1972V33.6485C34.2429 33.7344 34.2548 33.803 34.2776 33.8533C34.3014 33.9045 34.3499 33.9393 34.4239 33.9585L34.541 33.9996V34.1286H33.7216H33.7207ZM39.9656 34.1286V34.006L40.0827 33.9649C40.1531 33.9448 40.2015 33.9118 40.229 33.8652C40.2564 33.8149 40.2719 33.7463 40.2756 33.6604V30.7167C40.2719 30.6344 40.2582 30.5722 40.2345 30.5292C40.2107 30.4826 40.1622 30.4469 40.0881 30.4241L39.9656 30.3829V30.2604H42.7511L42.7922 31.1968H42.6285L42.3944 30.6701C42.3633 30.596 42.3277 30.5393 42.2893 30.5C42.2499 30.457 42.1914 30.4359 42.1137 30.4359H41.1187C41.1151 30.6774 41.1133 30.927 41.1133 31.1849V32.0454H41.693C41.7708 32.0454 41.8293 32.0253 41.8686 31.9869C41.9116 31.9439 41.9509 31.8872 41.9857 31.8168L42.0853 31.5946H42.2143V32.6773H42.0853L41.9802 32.4551C41.9491 32.3847 41.9134 32.328 41.875 32.285C41.8357 32.242 41.7772 32.221 41.6994 32.221H41.1142V33.4903C41.1178 33.6466 41.1197 33.8012 41.1197 33.953H42.2435C42.3213 33.953 42.3816 33.9338 42.4246 33.8945C42.4676 33.8515 42.5023 33.793 42.5298 33.7189L42.7465 33.1922H42.9102L42.869 34.1286H39.9665H39.9656ZM44.7748 34.1286V33.9996L44.8918 33.9649C44.9659 33.9411 45.0171 33.9045 45.0436 33.8533C45.0711 33.7984 45.0848 33.729 45.0848 33.643V30.746C45.0848 30.6673 45.0747 30.6051 45.0555 30.5585C45.0363 30.5082 44.9869 30.4689 44.9092 30.4414L44.7748 30.3884V30.2604H45.8923L46.9924 33.1217L48.0285 30.2604H49.1697V30.3884L49.0764 30.4177C49.0024 30.4414 48.9512 30.4789 48.9246 30.5292C48.8972 30.5759 48.8835 30.6381 48.8835 30.7167C48.8798 30.9426 48.878 31.1694 48.878 31.3952V32.9928C48.878 33.2196 48.8798 33.4436 48.8835 33.6659C48.8835 33.7482 48.8935 33.8103 48.9127 33.8533C48.932 33.8963 48.9795 33.932 49.0536 33.9585L49.1706 33.9996V34.1286H47.7486V33.9996L47.8776 33.9585C47.9516 33.932 47.9965 33.8963 48.012 33.8533C48.0312 33.8067 48.0413 33.7445 48.0413 33.6659V32.3966L48.0531 30.8273L46.8589 34.1286H46.5315L45.2732 30.863L45.2969 32.1972V33.6485C45.2969 33.7344 45.3088 33.803 45.3317 33.8533C45.3555 33.9045 45.4039 33.9393 45.478 33.9585L45.5951 33.9996V34.1286H44.7757H44.7748ZM52.7416 34.2283C52.5039 34.2283 52.2752 34.1853 52.0567 34.0993C51.8381 34.0133 51.6415 33.8862 51.4659 33.7189C51.294 33.547 51.1578 33.3348 51.0563 33.0806C50.9548 32.8273 50.9045 32.531 50.9045 32.1917C50.9045 31.8525 50.9548 31.5672 51.0563 31.3138C51.1578 31.0596 51.294 30.8475 51.4659 30.6755C51.6415 30.5036 51.8381 30.3747 52.0567 30.2896C52.2789 30.1991 52.5075 30.1543 52.7416 30.1543C52.9757 30.1543 53.2025 30.1973 53.4202 30.2832C53.6424 30.3692 53.8399 30.4981 54.0109 30.6701C54.1828 30.8374 54.3191 31.0477 54.4206 31.302C54.5221 31.5553 54.5724 31.8516 54.5724 32.1917C54.5724 32.5319 54.5221 32.8154 54.4206 33.0696C54.3191 33.3229 54.1828 33.5351 54.0109 33.707C53.839 33.8789 53.6442 34.0097 53.4256 34.0993C53.2071 34.1853 52.9794 34.2283 52.7407 34.2283H52.7416ZM52.7416 34.0527C52.9638 34.0527 53.1431 33.996 53.2802 33.8826C53.4165 33.7655 53.5162 33.5707 53.5784 33.2973C53.6405 33.0248 53.6716 32.6554 53.6716 32.1917C53.6716 31.7281 53.6405 31.3605 53.5784 31.0907C53.5162 30.8182 53.4165 30.6253 53.2802 30.5119C53.144 30.3948 52.9638 30.3363 52.7416 30.3363C52.5194 30.3363 52.3438 30.3948 52.203 30.5119C52.0667 30.6253 51.9671 30.8182 51.9049 31.0907C51.8427 31.3605 51.8116 31.7272 51.8116 32.1917C51.8116 32.6563 51.8427 33.0248 51.9049 33.2973C51.9671 33.5707 52.0667 33.7655 52.203 33.8826C52.3438 33.996 52.5231 34.0527 52.7416 34.0527ZM56.308 34.1286V34.006L56.4306 33.9704C56.5083 33.9475 56.5577 33.9137 56.5769 33.8707C56.6007 33.8241 56.6116 33.76 56.6116 33.6777C56.6153 33.4519 56.6171 33.2251 56.6171 32.9992V31.3952C56.6171 31.1694 56.6153 30.9426 56.6116 30.7167C56.6116 30.6344 56.6016 30.5722 56.5824 30.5292C56.5632 30.4826 56.5138 30.4469 56.4361 30.4241L56.3071 30.3829V30.2604H57.9459C58.4022 30.2604 58.7533 30.3482 58.9993 30.5237C59.249 30.6948 59.3742 30.9371 59.3742 31.2489C59.3742 31.4208 59.3057 31.5946 59.1694 31.7702C59.0368 31.9457 58.832 32.0802 58.5549 32.1734L59.3505 33.7244C59.4163 33.8533 59.5206 33.9411 59.6605 33.9877L59.772 34.0115V34.1286H58.736L57.8636 32.3024H57.442V33.0513C57.442 33.2745 57.4438 33.483 57.4475 33.6777C57.4475 33.7564 57.4594 33.8186 57.4822 33.8652C57.5097 33.9118 57.5599 33.9448 57.634 33.9649L57.7748 34.006V34.1286H56.3062H56.308ZM57.4438 32.1332H57.7602C58.0373 32.1332 58.2403 32.0628 58.3692 31.922C58.4982 31.782 58.5622 31.5672 58.5622 31.2782C58.5622 30.9892 58.5 30.777 58.3747 30.6408C58.254 30.5 58.0565 30.4296 57.784 30.4296H57.4502C57.4502 30.5823 57.4484 30.7377 57.4447 30.8978V32.1332H57.4438ZM61.5461 34.1286V34.006L61.6632 33.9704C61.7409 33.9429 61.7921 33.9082 61.815 33.8652C61.8424 33.8186 61.8561 33.7536 61.8561 33.6722V30.7167C61.8561 30.6344 61.8424 30.5722 61.815 30.5292C61.7912 30.4826 61.7409 30.4451 61.6632 30.4177L61.5461 30.3829V30.2604H63.0093V30.3829L62.8922 30.4177C62.8181 30.4451 62.7678 30.4826 62.7404 30.5292C62.713 30.5722 62.6993 30.6344 62.6993 30.7167V33.6722C62.6993 33.7536 62.713 33.8186 62.7404 33.8652C62.7678 33.9082 62.8181 33.9429 62.8922 33.9704L63.0093 34.006V34.1286H61.5461ZM64.7641 34.1286V34.006L64.9223 33.9585C65.0046 33.9356 65.0668 33.8999 65.1098 33.8533C65.1564 33.8067 65.1939 33.7427 65.2214 33.6604L66.4038 30.2421H66.8893L68.0653 33.6841C68.0964 33.7692 68.1321 33.8359 68.1705 33.8826C68.2098 33.9256 68.272 33.9612 68.358 33.9877L68.4458 34.0115V34.1286H66.9588V34.0115L67.0585 33.9823C67.1445 33.9548 67.1948 33.9118 67.2103 33.8533C67.2295 33.7948 67.2259 33.7225 67.1984 33.6366L66.9524 32.8821H65.6594L65.4079 33.6256C65.3805 33.7107 65.3732 33.7811 65.3841 33.8359C65.396 33.8908 65.4445 33.9338 65.5304 33.9649L65.6594 34.006V34.1286H64.7641ZM65.7188 32.7121H66.9012L66.3279 30.9508L65.7188 32.7121ZM70.2107 34.1286V34.006L70.3277 33.9704C70.41 33.9429 70.4622 33.9082 70.4859 33.8652C70.5097 33.8186 70.5207 33.7536 70.5207 33.6722V30.7103C70.5207 30.6326 70.5088 30.5722 70.4859 30.5292C70.4622 30.4826 70.4119 30.4451 70.3341 30.4177L70.2116 30.3829V30.2604H71.6629V30.3829L71.5513 30.4177C71.4772 30.4451 71.426 30.4826 71.3995 30.5292C71.3757 30.5759 71.3647 30.6408 71.3647 30.7222V33.953H72.2253C72.3579 33.953 72.4575 33.9201 72.5234 33.8533C72.5901 33.7875 72.6523 33.6915 72.7108 33.5671L72.9276 33.0806H73.0913L73.0327 34.1286H70.2116H70.2107ZM76.141 34.2283C75.9261 34.2283 75.7075 34.2008 75.4853 34.1459C75.2668 34.0957 75.083 34.0271 74.9348 33.9411L74.9696 33.1281H75.1397L75.3207 33.5314C75.3756 33.6448 75.4323 33.7381 75.4908 33.8122C75.5494 33.8862 75.6271 33.9429 75.7249 33.9823C75.7917 34.0097 75.8539 34.0289 75.9124 34.0408C75.9746 34.049 76.0432 34.0527 76.1172 34.0527C76.355 34.0527 76.5425 33.9923 76.6787 33.8707C76.8195 33.7463 76.889 33.5826 76.889 33.3796C76.889 33.1958 76.8406 33.0513 76.7427 32.9462C76.6494 32.841 76.4967 32.7395 76.2864 32.6416L76.0468 32.5365C75.7194 32.392 75.4597 32.2247 75.2686 32.0335C75.0811 31.8424 74.9879 31.5882 74.9879 31.2727C74.9879 31.0386 75.0464 30.8392 75.1634 30.6755C75.2842 30.5082 75.4506 30.3793 75.6609 30.2896C75.8712 30.1991 76.1172 30.1543 76.398 30.1543C76.6046 30.1543 76.7976 30.1817 76.9777 30.2366C77.1615 30.2915 77.3216 30.3655 77.4578 30.4588L77.4167 31.1849H77.2466L77.0299 30.746C76.9677 30.617 76.9073 30.5256 76.8488 30.4707C76.7939 30.4122 76.7263 30.3747 76.644 30.3591C76.5973 30.3518 76.5562 30.3454 76.5214 30.3418C76.4903 30.3381 76.4474 30.3363 76.3925 30.3363C76.2014 30.3363 76.0358 30.393 75.895 30.5054C75.7588 30.6152 75.6902 30.767 75.6902 30.9627C75.6902 31.1584 75.7432 31.3019 75.8484 31.419C75.9535 31.5361 76.1063 31.6394 76.3047 31.729L76.5681 31.8406C76.9467 32.0043 77.2173 32.1798 77.3819 32.3673C77.5456 32.5502 77.6279 32.7861 77.6279 33.0751C77.6279 33.418 77.4972 33.6979 77.2356 33.9118C76.9777 34.1231 76.6138 34.2283 76.141 34.2283ZM85.2418 34.1286V34.006L85.3588 33.9704C85.4411 33.9429 85.4933 33.9082 85.517 33.8652C85.5408 33.8186 85.5518 33.7536 85.5518 33.6722V30.7103C85.5518 30.6326 85.5399 30.5722 85.517 30.5292C85.4933 30.4826 85.443 30.4451 85.3652 30.4177L85.2427 30.3829V30.2604H86.694V30.3829L86.5824 30.4177C86.5083 30.4451 86.4571 30.4826 86.4306 30.5292C86.4068 30.5759 86.3958 30.6408 86.3958 30.7222V33.953H87.2564C87.389 33.953 87.4886 33.9201 87.5545 33.8533C87.6203 33.7875 87.6834 33.6915 87.7419 33.5671L87.9587 33.0806H88.1224L88.0638 34.1286H85.2427H85.2418ZM89.9257 34.1286V34.006L90.0427 33.9704C90.125 33.9429 90.1772 33.9082 90.2009 33.8652C90.2247 33.8186 90.2357 33.7536 90.2357 33.6722V30.7103C90.2357 30.6326 90.2238 30.5722 90.2009 30.5292C90.1772 30.4826 90.1269 30.4451 90.0491 30.4177L89.9266 30.3829V30.2604H91.3779V30.3829L91.2663 30.4177C91.1922 30.4451 91.1419 30.4826 91.1145 30.5292C91.0907 30.5759 91.0797 30.6408 91.0797 30.7222V33.953H91.9403C92.0729 33.953 92.1725 33.9201 92.2384 33.8533C92.3042 33.7875 92.3673 33.6915 92.4258 33.5671L92.6426 33.0806H92.8063L92.7477 34.1286H89.9266H89.9257ZM96.5821 34.2283C96.2035 34.2283 95.8624 34.1496 95.5579 33.9941C95.2534 33.8378 95.012 33.6073 94.8318 33.3037C94.6562 32.9992 94.5684 32.6279 94.5684 32.1917C94.5684 31.8634 94.6215 31.5726 94.7266 31.3193C94.8364 31.066 94.9845 30.853 95.1711 30.681C95.3622 30.5055 95.5807 30.3747 95.8267 30.2896C96.0727 30.1991 96.3343 30.1543 96.6114 30.1543C96.8263 30.1543 97.0265 30.1799 97.214 30.2311C97.4015 30.2777 97.5807 30.3482 97.7526 30.4414L97.7764 31.2078H97.6182L97.3722 30.746C97.3329 30.6673 97.2899 30.5978 97.2433 30.5347C97.2003 30.4725 97.1436 30.4277 97.0732 30.4003C96.9753 30.3537 96.861 30.3299 96.7275 30.3299C96.497 30.3299 96.2867 30.3884 96.0956 30.5054C95.9081 30.6225 95.7582 30.8182 95.6448 31.0907C95.5314 31.3605 95.4747 31.729 95.4747 32.1972C95.4747 32.6654 95.5277 33.0303 95.6329 33.3037C95.7426 33.5762 95.888 33.7719 96.0718 33.889C96.2556 34.0015 96.4623 34.0582 96.6918 34.0582C96.797 34.0582 96.883 34.0508 96.9497 34.0353C97.0165 34.0198 97.0823 33.9978 97.1491 33.9704C97.2268 33.9393 97.2881 33.8945 97.3301 33.8359C97.3731 33.7738 97.4106 33.7033 97.4417 33.6256L97.6639 33.0925H97.8221L97.7983 33.9356C97.6301 34.0289 97.4454 34.1011 97.2423 34.1523C97.0393 34.2026 96.8189 34.2283 96.5812 34.2283H96.5821Z" fill="#D8B119"/>
<path d="M33.7207 40.5299V40.3717L34.177 40.3232C34.1862 40.0452 34.1898 39.6209 34.1898 39.0503V38.8089C34.1898 38.2382 34.1853 37.813 34.177 37.5323L33.7207 37.4838V37.3302H35.0247V37.4838L34.5684 37.5323C34.5593 37.8039 34.5556 38.2227 34.5556 38.7869H36.1971C36.1971 38.2254 36.1943 37.8066 36.1879 37.5323L35.7316 37.4838V37.3302H37.0393V37.4838L36.5784 37.5323C36.5729 37.8103 36.5693 38.2355 36.5693 38.8089V39.0503C36.5693 39.6182 36.572 40.0425 36.5784 40.3232L37.0393 40.3717V40.5299H35.7316V40.3717L36.1879 40.3278C36.1934 40.0525 36.1971 39.6008 36.1971 38.9717H34.5556C34.5556 39.5981 34.5602 40.0489 34.5684 40.3232L35.0247 40.3717V40.5299H33.7207ZM37.8267 40.2976C37.6017 40.0809 37.4883 39.7855 37.4883 39.4106C37.4883 39.0357 37.6008 38.733 37.8267 38.5108C38.0288 38.3114 38.2757 38.2126 38.5683 38.2126C38.8609 38.2126 39.1042 38.3114 39.3054 38.5108C39.5303 38.733 39.6437 39.0329 39.6437 39.4106C39.6437 39.7883 39.5321 40.0809 39.3099 40.2976C39.1078 40.4933 38.8591 40.5912 38.5637 40.5912C38.2683 40.5912 38.0251 40.4933 37.8267 40.2976ZM38.0507 40.1614C38.1705 40.3306 38.3415 40.4156 38.5646 40.4156C38.7878 40.4156 38.9643 40.3306 39.0868 40.1614C39.213 39.9858 39.2752 39.7352 39.2752 39.4106C39.2752 39.086 39.2121 38.8345 39.0868 38.6552C38.9643 38.4769 38.7914 38.3882 38.5692 38.3882C38.347 38.3882 38.1723 38.4769 38.047 38.6552C37.9245 38.8345 37.8623 39.086 37.8623 39.4106C37.8623 39.7352 37.9254 39.9858 38.0507 40.1614ZM40.0689 40.5299V40.3891L40.4375 40.3369C40.4466 40.091 40.4503 39.8221 40.4503 39.5295V39.2881C40.4503 39.1152 40.4448 38.9076 40.4329 38.6644V38.6205L40.0424 38.5894V38.4495L40.6743 38.2163L40.7356 38.2602L40.7703 38.6644C40.8993 38.5236 41.041 38.4138 41.1965 38.3352C41.3519 38.2529 41.5019 38.2126 41.6482 38.2126C41.8531 38.2126 42.0039 38.2785 42.1 38.4102C42.1996 38.5473 42.249 38.7686 42.249 39.0722V39.5295C42.249 39.8221 42.2536 40.0891 42.2618 40.3324L42.6084 40.3891V40.5299H41.533V40.3891L41.9061 40.3369C41.9116 40.0151 41.9152 39.7453 41.9152 39.5295V39.0905C41.9152 38.8674 41.8814 38.7101 41.8146 38.6159C41.7506 38.5281 41.6464 38.4842 41.5028 38.4842C41.2779 38.4842 41.0374 38.6013 40.7831 38.8354V39.5295C40.7831 39.7425 40.7859 40.0105 40.7923 40.3324L41.1389 40.3891V40.5299H40.068H40.0689ZM43.3226 40.2976C43.0976 40.0809 42.9843 39.7855 42.9843 39.4106C42.9843 39.0357 43.0967 38.733 43.3226 38.5108C43.5247 38.3114 43.7716 38.2126 44.0642 38.2126C44.3569 38.2126 44.6001 38.3114 44.8013 38.5108C45.0263 38.733 45.1397 39.0329 45.1397 39.4106C45.1397 39.7883 45.0281 40.0809 44.8059 40.2976C44.6038 40.4933 44.355 40.5912 44.0597 40.5912C43.7643 40.5912 43.521 40.4933 43.3226 40.2976ZM43.5457 40.1614C43.6655 40.3306 43.8365 40.4156 44.0597 40.4156C44.2828 40.4156 44.4593 40.3306 44.5818 40.1614C44.708 39.9858 44.7702 39.7352 44.7702 39.4106C44.7702 39.086 44.7071 38.8345 44.5818 38.6552C44.4593 38.4769 44.2865 38.3882 44.0642 38.3882C43.842 38.3882 43.6674 38.4769 43.5421 38.6552C43.4195 38.8345 43.3574 39.086 43.3574 39.4106C43.3574 39.7352 43.4205 39.9858 43.5457 40.1614ZM45.5731 40.5299V40.3891L45.9334 40.3369C45.9426 40.091 45.9462 39.8221 45.9462 39.5295V39.2881C45.9462 39.1152 45.9407 38.9085 45.9288 38.669V38.6205L45.5384 38.5894V38.4495L46.1703 38.2163L46.2315 38.2602L46.2754 38.8354C46.3541 38.6424 46.4583 38.4906 46.5873 38.3791C46.7162 38.2675 46.8506 38.2126 46.9914 38.2126C47.0646 38.2126 47.1323 38.2273 47.1935 38.2565C47.2576 38.2858 47.3015 38.3233 47.3252 38.3699C47.3252 38.5693 47.2429 38.669 47.0792 38.669C46.9914 38.669 46.8982 38.626 46.7985 38.5418L46.7372 38.4888C46.5415 38.6178 46.3888 38.8308 46.2809 39.1299V39.5295C46.2809 39.7371 46.2836 40.005 46.2901 40.3324L46.6942 40.3891V40.5299H45.5749H45.5731ZM47.5401 40.5299V40.3891L47.9178 40.3324C47.9233 40.0105 47.9269 39.7425 47.9269 39.5295V39.2835C47.9269 38.9844 47.9242 38.7622 47.9178 38.6159L47.5136 38.5894V38.4449L48.2031 38.2163L48.269 38.2602L48.2562 38.8839V39.5295C48.2562 39.7425 48.2589 40.0105 48.2653 40.3324L48.6119 40.3891V40.5299H47.541H47.5401ZM48.0797 37.0842C48.162 37.0842 48.2287 37.1089 48.2818 37.1592C48.3348 37.2086 48.3604 37.2726 48.3604 37.3521C48.3604 37.4317 48.333 37.4957 48.2772 37.5451C48.2241 37.5945 48.1583 37.6201 48.0797 37.6201C48.001 37.6201 47.9352 37.5945 47.8821 37.5451C47.8291 37.4957 47.8035 37.4308 47.8035 37.3521C47.8035 37.2735 47.83 37.2086 47.8821 37.1592C47.9352 37.1089 48.001 37.0842 48.0797 37.0842ZM48.985 40.5299V40.3891L49.3535 40.3369C49.3627 40.091 49.3663 39.8221 49.3663 39.5295V39.2881C49.3663 39.1152 49.3608 38.9076 49.3489 38.6644V38.6205L48.9585 38.5894V38.4495L49.5904 38.2163L49.6516 38.2602L49.6864 38.6644C49.8153 38.5236 49.9571 38.4138 50.1125 38.3352C50.268 38.2529 50.418 38.2126 50.5643 38.2126C50.7691 38.2126 50.92 38.2785 51.016 38.4102C51.1157 38.5473 51.1651 38.7686 51.1651 39.0722V39.5295C51.1651 39.8221 51.1696 40.0891 51.1779 40.3324L51.5245 40.3891V40.5299H50.449V40.3891L50.8221 40.3369C50.8276 40.0151 50.8313 39.7453 50.8313 39.5295V39.0905C50.8313 38.8674 50.7975 38.7101 50.7307 38.6159C50.6667 38.5281 50.5624 38.4842 50.4189 38.4842C50.1939 38.4842 49.9534 38.6013 49.6992 38.8354V39.5295C49.6992 39.7425 49.7019 40.0105 49.7083 40.3324L50.0549 40.3891V40.5299H48.9841H48.985ZM52.8486 41.6803C52.524 41.6803 52.2762 41.6245 52.107 41.5129C51.946 41.4105 51.8656 41.267 51.8656 41.0832C51.8656 40.8692 52.0192 40.689 52.3264 40.5427C52.1216 40.4878 52.0192 40.3708 52.0192 40.1915C52.0192 40.037 52.1262 39.8623 52.3393 39.6694C52.096 39.5322 51.9753 39.3063 51.9753 38.9936C51.9753 38.7504 52.0558 38.5592 52.2167 38.4184C52.3722 38.2812 52.5734 38.2126 52.8221 38.2126C53.0534 38.2126 53.2446 38.2712 53.3973 38.3882L53.9414 38.2163L54.0164 38.2648V38.5236L53.5162 38.5199C53.6094 38.6452 53.657 38.8034 53.657 38.9936C53.657 39.2396 53.5784 39.4325 53.4202 39.5734C53.2684 39.7105 53.0672 39.7791 52.8184 39.7791C52.6867 39.7791 52.5642 39.759 52.4499 39.7178C52.3502 39.844 52.3008 39.9565 52.3008 40.0562C52.3008 40.2108 52.4078 40.2885 52.6209 40.2885H53.2665C53.7494 40.2885 53.9908 40.4833 53.9908 40.8719C53.9908 41.0914 53.8957 41.2779 53.7055 41.4297C53.4951 41.5962 53.2098 41.6803 52.8495 41.6803H52.8486ZM52.8532 41.5001C53.1165 41.5001 53.3241 41.4489 53.4769 41.3465C53.6204 41.2496 53.6917 41.1252 53.6917 40.9734C53.6917 40.7155 53.5308 40.5866 53.2089 40.5866H52.6474C52.5624 40.5866 52.4846 40.5829 52.4151 40.5738C52.2688 40.7174 52.1957 40.8683 52.1957 41.0255C52.1957 41.1828 52.256 41.3035 52.3758 41.3858C52.4901 41.4617 52.6493 41.5001 52.8541 41.5001H52.8532ZM52.8093 39.6209C52.9702 39.6209 53.0973 39.5624 53.1915 39.4453C53.2848 39.3283 53.3324 39.1747 53.3324 38.9845C53.3324 38.7942 53.2866 38.6525 53.1961 38.5418C53.1056 38.4275 52.9812 38.3699 52.823 38.3699C52.6648 38.3699 52.5377 38.4285 52.4408 38.5455C52.3475 38.6598 52.2999 38.8107 52.2999 38.9982C52.2999 39.1856 52.3457 39.3356 52.4362 39.4499C52.5267 39.5642 52.6511 39.6209 52.8093 39.6209ZM56.5559 40.5299V40.3717L57.0122 40.3232C57.0213 40.0452 57.025 39.6209 57.025 39.0503V38.8089C57.025 38.2382 57.0204 37.813 57.0122 37.5323L56.5559 37.4838V37.3302H58.9042L58.9353 38.155H58.7204L58.6015 37.5231H57.4036C57.3944 37.7984 57.3908 38.2282 57.3908 38.8135H58.1589L58.2248 38.3398H58.4049V39.4499H58.2248L58.1635 38.989H57.3908C57.3908 39.6008 57.3953 40.0489 57.4036 40.3324H58.6893L58.8036 39.7005H59.0231L58.992 40.5299H56.5559ZM60.3363 40.561L59.4803 38.4669L59.1904 38.4275V38.2739H60.2878V38.4275L59.8662 38.476L60.4936 40.1349L61.0733 38.4842L60.6737 38.4275V38.2739H61.5607V38.4275L61.2846 38.4797L60.5036 40.561H60.3372H60.3363ZM62.8812 40.5912C62.5648 40.5912 62.3124 40.4888 62.1222 40.2839C61.9229 40.0736 61.8241 39.7837 61.8241 39.4152C61.8241 39.0466 61.9311 38.765 62.1442 38.5373C62.349 38.3206 62.6005 38.2126 62.8995 38.2126C63.1574 38.2126 63.3677 38.2931 63.5314 38.4541C63.6951 38.6178 63.7774 38.8354 63.7774 39.1079C63.7774 39.2277 63.7673 39.3182 63.7463 39.3795L62.1789 39.3758C62.1817 39.6886 62.2594 39.9318 62.4112 40.1038C62.5548 40.2647 62.7477 40.3452 62.991 40.3452C63.2598 40.3452 63.4903 40.2318 63.6805 40.0032L63.7728 40.0736C63.5771 40.4183 63.2799 40.5912 62.8821 40.5912H62.8812ZM62.1835 39.2085H63.2104C63.301 39.2085 63.3659 39.1866 63.4034 39.1427C63.4327 39.1079 63.4473 39.0503 63.4473 38.9717C63.4473 38.8134 63.3942 38.6772 63.2891 38.5638C63.1775 38.4467 63.0403 38.3882 62.8767 38.3882C62.7038 38.3882 62.5548 38.455 62.4286 38.5894C62.2914 38.7394 62.2091 38.9451 62.1826 39.2085H62.1835ZM64.2154 40.5299V40.3891L64.5757 40.3369C64.5849 40.091 64.5885 39.8221 64.5885 39.5295V39.2881C64.5885 39.1152 64.5831 38.9085 64.5712 38.669V38.6205L64.1807 38.5894V38.4495L64.8126 38.2163L64.8739 38.2602L64.9177 38.8354C64.9964 38.6424 65.1006 38.4906 65.2296 38.3791C65.3585 38.2675 65.4929 38.2126 65.6338 38.2126C65.7069 38.2126 65.7746 38.2273 65.8359 38.2565C65.8999 38.2858 65.9438 38.3233 65.9676 38.3699C65.9676 38.5693 65.8853 38.669 65.7216 38.669C65.6338 38.669 65.5405 38.626 65.4408 38.5418L65.3796 38.4888C65.1839 38.6178 65.0311 38.8308 64.9232 39.1299V39.5295C64.9232 39.7371 64.926 40.005 64.9324 40.3324L65.3366 40.3891V40.5299H64.2173H64.2154ZM66.3928 41.7279C66.2812 41.7279 66.1879 41.7032 66.112 41.6538C66.0297 41.6007 65.9877 41.534 65.9849 41.4517C65.9968 41.3959 66.0307 41.352 66.0855 41.32C66.1349 41.2907 66.1934 41.2761 66.2611 41.2761C66.369 41.2761 66.4787 41.3301 66.5903 41.4389L66.6251 41.4736C66.8244 41.3328 66.9863 41.0905 67.1125 40.7448L67.1518 40.6442L66.283 38.4495L66.0023 38.4102V38.2739H67.0905V38.4138L66.669 38.4623L67.3146 40.2098L67.9382 38.4669L67.5084 38.4102V38.2739H68.4256V38.4102L68.1577 38.4623L67.3502 40.6003C67.2012 40.9954 67.0485 41.2834 66.8939 41.4645C66.7421 41.6401 66.5748 41.7279 66.3937 41.7279H66.3928ZM70.8426 40.5299V40.3717L71.2989 40.3232C71.308 40.0425 71.3117 39.62 71.3117 39.0549V38.8089C71.3117 38.2355 71.3071 37.8103 71.2989 37.5323L70.8426 37.4838V37.3302H72.1466V37.4838L71.6903 37.5323C71.6811 37.813 71.6775 38.2456 71.6775 38.8308V39.1381C71.6775 39.6566 71.6821 40.0544 71.6903 40.3324H72.8489L72.9897 39.6566H73.222L73.1827 40.5299H70.8435H70.8426ZM73.6024 40.5299V40.3891L73.9801 40.3324C73.9856 40.0105 73.9893 39.7425 73.9893 39.5295V39.2835C73.9893 38.9844 73.9865 38.7622 73.9801 38.6159L73.5759 38.5894V38.4449L74.2654 38.2163L74.3313 38.2602L74.3185 38.8839V39.5295C74.3185 39.7425 74.3212 40.0105 74.3276 40.3324L74.6742 40.3891V40.5299H73.6034H73.6024ZM74.142 37.0842C74.2243 37.0842 74.291 37.1089 74.3441 37.1592C74.3971 37.2086 74.4227 37.2726 74.4227 37.3521C74.4227 37.4317 74.3953 37.4957 74.3395 37.5451C74.2865 37.5945 74.2206 37.6201 74.142 37.6201C74.0633 37.6201 73.9975 37.5945 73.9445 37.5451C73.8914 37.4957 73.8658 37.4308 73.8658 37.3521C73.8658 37.2735 73.8923 37.2086 73.9445 37.1592C73.9975 37.1089 74.0633 37.0842 74.142 37.0842ZM75.0162 40.5299V40.3891L75.4241 40.3324C75.4295 39.9757 75.4332 39.7078 75.4332 39.5295V38.476H75.0116V38.3132L75.4378 38.2602C75.4524 38.0032 75.4862 37.7938 75.5384 37.6329C75.5877 37.4719 75.6655 37.3375 75.7706 37.2287C75.9407 37.0385 76.1529 36.9434 76.4071 36.9434C76.5187 36.9434 76.6101 36.9626 76.6833 37.001C76.7656 37.0421 76.8177 37.1007 76.8415 37.1766C76.836 37.2323 76.8104 37.2771 76.7665 37.3128C76.7253 37.3448 76.6686 37.3604 76.5955 37.3604C76.4931 37.3604 76.3833 37.3155 76.2663 37.225L76.1392 37.1235C76.0541 37.1674 75.9855 37.2323 75.9325 37.3165C75.8036 37.5067 75.745 37.8258 75.7569 38.2739H76.4464V38.476H75.7661V39.5295C75.7661 39.7078 75.7688 39.9757 75.7752 40.3324L76.2233 40.3891V40.5299H75.0162ZM77.82 40.5912C77.5036 40.5912 77.2512 40.4888 77.061 40.2839C76.8616 40.0736 76.7628 39.7837 76.7628 39.4152C76.7628 39.0466 76.8698 38.765 77.0829 38.5373C77.2877 38.3206 77.5392 38.2126 77.8382 38.2126C78.0961 38.2126 78.3065 38.2931 78.4701 38.4541C78.6338 38.6178 78.7161 38.8354 78.7161 39.1079C78.7161 39.2277 78.7061 39.3182 78.685 39.3795L77.1176 39.3758C77.1204 39.6886 77.1981 39.9318 77.3499 40.1038C77.4935 40.2647 77.6864 40.3452 77.9297 40.3452C78.1985 40.3452 78.429 40.2318 78.6192 40.0032L78.7116 40.0736C78.5159 40.4183 78.2187 40.5912 77.8209 40.5912H77.82ZM77.1222 39.2085H78.1492C78.2397 39.2085 78.3046 39.1866 78.3421 39.1427C78.3714 39.1079 78.386 39.0503 78.386 38.9717C78.386 38.8134 78.333 38.6772 78.2278 38.5638C78.1162 38.4467 77.9791 38.3882 77.8154 38.3882C77.6426 38.3882 77.4935 38.455 77.3673 38.5894C77.2301 38.7394 77.1478 38.9451 77.1213 39.2085H77.1222Z" fill="#D8B119"/>
<path d="M15.1761 39.7991C20.6182 39.7991 25.03 35.0661 25.03 29.2277C25.03 23.3892 20.6182 18.6562 15.1761 18.6562C9.73398 18.6562 5.32227 23.3892 5.32227 29.2277C5.32227 35.0661 9.73398 39.7991 15.1761 39.7991Z" fill="#D8B119"/>
<path d="M15.1731 35.503C18.5711 35.503 21.3258 32.7583 21.3258 29.3726C21.3258 25.9869 18.5711 23.2422 15.1731 23.2422C11.7751 23.2422 9.02051 25.9869 9.02051 29.3726C9.02051 32.7583 11.7751 35.503 15.1731 35.503Z" fill="#1AAAC2"/>
<path d="M14.9837 26.5538H13.8024V26.2584H14.0979V25.9629H14.3933V26.2584H14.6887V25.9629H14.9842V26.5538H14.9837ZM15.5746 25.668H14.6887V25.9634H15.5746V25.668ZM15.2791 28.6214H15.87V28.3259H15.2791V28.6214ZM15.5746 28.0305H15.87V27.4396H15.5746V28.0305ZM14.0974 26.5538H13.802V27.1447H14.0974V26.5538ZM16.165 25.668H15.8695V25.9634H16.165V25.668ZM17.0513 25.9634H16.7558V26.5543H17.0513V25.9634ZM15.2791 26.5538H15.5746V26.2584H15.87V26.5538H16.4609V25.9629H15.2796V26.5538H15.2791ZM13.2116 29.2123V28.9168H13.8024V28.6214H12.6212V28.9168H12.9166V29.2123H13.212H13.2116ZM13.2116 27.1447H13.507V26.5538H13.2116V27.1447ZM13.507 25.9634H13.2116V26.5543H13.507V25.9634ZM14.3928 27.7355H14.6883V27.4401H14.3928V27.7355H14.0974V27.4401H13.802V28.031H14.3928V27.7355ZM14.0974 27.1447H13.802V27.4401H14.0974V27.1447ZM14.3928 28.9168V28.6214H14.0974V28.9168H14.3928ZM14.6883 28.3259H14.9837V28.0305H14.3928V28.3259H13.802V28.6214H14.6883V28.3259ZM16.4604 26.8492H16.165V27.1447H16.4604V26.8492ZM13.2116 27.4401H13.507V27.1447H13.2116V27.4401ZM15.2791 27.4401H14.9837V28.031H15.2791V27.4401ZM14.6883 29.5077H15.2791V29.2123H14.6883V29.5077ZM14.9837 27.1447H14.6883V27.4401H14.9837V27.1447ZM14.9837 27.1447V26.8492H14.6883V27.1447H14.9837ZM17.3467 29.2123V28.9168H17.9376V28.6214H14.6887V29.2123H14.9842V28.9168H15.2796V29.2123H15.5751V28.9168H16.4614V29.2123H17.3477H17.3467ZM14.3928 26.5538V26.8492H14.6883V26.5538H14.3928ZM15.8695 27.4401H16.4604V27.1447H15.8695V27.4401ZM17.0513 26.5538H16.7558V27.1447H17.0513V26.5538ZM16.165 28.6214H16.4604V28.3259H16.165V28.6214ZM17.0513 27.1447H16.7558V27.4401H17.0513V27.1447ZM18.528 28.6214V28.3259H18.2326V28.6214H18.528ZM17.0513 28.6214H17.3467V28.3259H18.233V28.0305H16.7563V28.3259H17.0518V28.6214H17.0513ZM15.5746 26.8492H15.87V26.5538H15.5746V26.8492ZM16.4604 27.4401H16.165V28.031H16.4604V27.4401ZM11.7349 27.1447H11.4394V27.4401H11.7349V27.1447ZM18.2326 28.9168H18.528V29.2123H18.8234V28.6214H18.2326V28.9168ZM16.7558 31.2798H17.0513V30.9844H16.7558V31.2798ZM17.9371 29.5077H18.2326V30.0986H18.528V30.394H18.8234V29.8031H18.528V29.5077H18.8234V29.2123H17.9371V29.5077ZM17.6417 29.5077H17.9371V30.0986H17.6417V30.6894H17.9371V30.9849H18.8234V33.0524H16.4604V32.757H15.5741V32.4616H15.8695V32.1661H16.165V31.8707H15.5741V31.5753H15.8695V31.2798H16.165V30.9844H15.8695V31.2798H15.5741V31.5753H15.2787V31.8707H14.9832V31.2798H15.2787V30.9844H14.9832V30.689H16.1645V30.0981H16.4599V30.3935H16.7554V29.8027H16.1645V30.0981H15.8691V29.8027H16.1645V29.5072H16.4599V29.2118H17.6412V29.5072H17.3458V29.8027H17.6412V29.5072L17.6417 29.5077ZM16.7558 29.8027H17.0513V29.5072H16.7558V29.8027ZM16.4604 31.5748H17.3467V30.6885H16.4604V31.5748ZM17.6417 32.1657H17.3462V31.8702H17.0508V32.1657H16.4599V32.7565H17.0508V32.4611H17.6417V32.1657ZM18.528 32.1657H18.2326V32.4611H17.9371V32.7565H18.528V32.1657ZM17.6417 30.9844V31.2798H17.9371V31.5753H17.6417V31.8707H17.9371V31.5753H18.2326V31.8707H18.528V31.5753H18.2326V31.2798H17.9371V30.9844H17.6417ZM15.2791 30.0981V29.8027H14.6883V30.0981H14.3928V30.3935H14.0974V29.5072H13.802V30.0981H13.5065V30.3935H13.2111V30.0981H12.9157V29.2118H12.0293V29.5072H12.3248V29.8027H12.0293V29.5072H11.7339V29.2118H11.4385V30.6885H11.7339V29.8022H12.0293V30.0976H12.3248V29.8022H12.6202V30.3931H12.0293V30.6885H12.9157V30.3931H13.2111V30.6885H13.5065V30.3931H14.0974V30.6885H13.802V30.9839H14.0974V31.2794H14.3928V31.5748H14.6883V30.9839H14.3928V30.3931H14.6883V30.6885H14.9837V30.0976H15.2791V30.0981ZM15.5746 29.2123V29.5077H16.1655V29.2123H15.5746ZM15.5746 30.3935H15.87V30.0981H15.5746V30.3935ZM18.2326 26.2584H17.3462V26.5538H18.2326V26.2584ZM18.528 26.5538H18.8234V25.9629H18.528V26.5538ZM16.7558 25.668V25.9634H18.8234V25.668H16.7558ZM18.528 27.1447H18.8234V26.5538H18.528V27.1447ZM16.7558 27.7355H18.8234V27.4401H16.7558V27.7355ZM17.3467 27.1447H18.233V26.5538H17.3467V27.1447ZM18.528 27.4401H18.8234V27.1447H18.528V27.4401ZM13.2116 29.2123V29.5077H13.8024V29.2123H13.2116ZM11.7349 28.9168H12.0303V29.2123H12.3257V28.9168H12.0303V28.6214H11.7349V28.9168H11.4394V29.2123H11.7349V28.9168ZM13.507 29.8027H13.2116V30.0981H13.507V29.8027ZM12.3253 28.6214H13.2116V28.3259H13.507V28.0305H12.0303V28.3259H12.3257V28.6214H12.3253ZM11.7349 28.0305H11.4394V28.3259H11.7349V28.0305ZM13.507 27.4401H11.4394V27.7355H13.507V27.4401ZM12.9161 26.2584H12.0298V26.5538H12.9161V26.2584ZM11.7349 25.9634H11.4394V26.5543H11.7349V25.9634ZM12.0303 27.1447H12.9166V26.5538H12.0303V27.1447ZM11.7349 26.5538H11.4394V27.1447H11.7349V26.5538ZM11.4394 30.9844H13.507V33.052H11.4394V30.9844ZM11.7349 32.7565H13.2116V31.2798H11.7349V32.7565ZM18.2326 30.3935H17.9371V30.689H18.2326V30.3935ZM13.8024 31.5748V32.4611H14.0979V32.7565H13.8024V33.052H14.0979V32.7565H14.6887V33.052H14.9842V32.4611H15.2796V32.1657H14.3933V32.4611H14.0979V31.2798H13.8024V31.5753V31.5748ZM13.507 25.668H11.4394V25.9634H13.507V25.668ZM12.0303 28.6214V28.3259H11.7349V28.6214H12.0303ZM12.0303 32.1657V32.4611H12.9166V31.5748H12.0303V32.1657Z" fill="url(#paint0_linear_811_83)"/>
<path d="M14.9837 26.5538H13.8024V26.2584H14.0979V25.9629H14.3933V26.2584H14.6887V25.9629H14.9842V26.5538H14.9837ZM15.5746 25.668H14.6887V25.9634H15.5746V25.668ZM15.2791 28.6214H15.87V28.3259H15.2791V28.6214ZM15.5746 28.0305H15.87V27.4396H15.5746V28.0305ZM14.0974 26.5538H13.802V27.1447H14.0974V26.5538ZM16.165 25.668H15.8695V25.9634H16.165V25.668ZM17.0513 25.9634H16.7558V26.5543H17.0513V25.9634ZM15.2791 26.5538H15.5746V26.2584H15.87V26.5538H16.4609V25.9629H15.2796V26.5538H15.2791ZM13.2116 29.2123V28.9168H13.8024V28.6214H12.6212V28.9168H12.9166V29.2123H13.212H13.2116ZM13.2116 27.1447H13.507V26.5538H13.2116V27.1447ZM13.507 25.9634H13.2116V26.5543H13.507V25.9634ZM14.3928 27.7355H14.6883V27.4401H14.3928V27.7355H14.0974V27.4401H13.802V28.031H14.3928V27.7355ZM14.0974 27.1447H13.802V27.4401H14.0974V27.1447ZM14.3928 28.9168V28.6214H14.0974V28.9168H14.3928ZM14.6883 28.3259H14.9837V28.0305H14.3928V28.3259H13.802V28.6214H14.6883V28.3259ZM16.4604 26.8492H16.165V27.1447H16.4604V26.8492ZM13.2116 27.4401H13.507V27.1447H13.2116V27.4401ZM15.2791 27.4401H14.9837V28.031H15.2791V27.4401ZM14.6883 29.5077H15.2791V29.2123H14.6883V29.5077ZM14.9837 27.1447H14.6883V27.4401H14.9837V27.1447ZM14.9837 27.1447V26.8492H14.6883V27.1447H14.9837ZM17.3467 29.2123V28.9168H17.9376V28.6214H14.6887V29.2123H14.9842V28.9168H15.2796V29.2123H15.5751V28.9168H16.4614V29.2123H17.3477H17.3467ZM14.3928 26.5538V26.8492H14.6883V26.5538H14.3928ZM15.8695 27.4401H16.4604V27.1447H15.8695V27.4401ZM17.0513 26.5538H16.7558V27.1447H17.0513V26.5538ZM16.165 28.6214H16.4604V28.3259H16.165V28.6214ZM17.0513 27.1447H16.7558V27.4401H17.0513V27.1447ZM18.528 28.6214V28.3259H18.2326V28.6214H18.528ZM17.0513 28.6214H17.3467V28.3259H18.233V28.0305H16.7563V28.3259H17.0518V28.6214H17.0513ZM15.5746 26.8492H15.87V26.5538H15.5746V26.8492ZM16.4604 27.4401H16.165V28.031H16.4604V27.4401ZM11.7349 27.1447H11.4394V27.4401H11.7349V27.1447ZM18.2326 28.9168H18.528V29.2123H18.8234V28.6214H18.2326V28.9168ZM16.7558 31.2798H17.0513V30.9844H16.7558V31.2798ZM17.9371 29.5077H18.2326V30.0986H18.528V30.394H18.8234V29.8031H18.528V29.5077H18.8234V29.2123H17.9371V29.5077ZM17.6417 29.5077H17.9371V30.0986H17.6417V30.6894H17.9371V30.9849H18.8234V33.0524H16.4604V32.757H15.5741V32.4616H15.8695V32.1661H16.165V31.8707H15.5741V31.5753H15.8695V31.2798H16.165V30.9844H15.8695V31.2798H15.5741V31.5753H15.2787V31.8707H14.9832V31.2798H15.2787V30.9844H14.9832V30.689H16.1645V30.0981H16.4599V30.3935H16.7554V29.8027H16.1645V30.0981H15.8691V29.8027H16.1645V29.5072H16.4599V29.2118H17.6412V29.5072H17.3458V29.8027H17.6412V29.5072L17.6417 29.5077ZM16.7558 29.8027H17.0513V29.5072H16.7558V29.8027ZM16.4604 31.5748H17.3467V30.6885H16.4604V31.5748ZM17.6417 32.1657H17.3462V31.8702H17.0508V32.1657H16.4599V32.7565H17.0508V32.4611H17.6417V32.1657ZM18.528 32.1657H18.2326V32.4611H17.9371V32.7565H18.528V32.1657ZM17.6417 30.9844V31.2798H17.9371V31.5753H17.6417V31.8707H17.9371V31.5753H18.2326V31.8707H18.528V31.5753H18.2326V31.2798H17.9371V30.9844H17.6417ZM15.2791 30.0981V29.8027H14.6883V30.0981H14.3928V30.3935H14.0974V29.5072H13.802V30.0981H13.5065V30.3935H13.2111V30.0981H12.9157V29.2118H12.0293V29.5072H12.3248V29.8027H12.0293V29.5072H11.7339V29.2118H11.4385V30.6885H11.7339V29.8022H12.0293V30.0976H12.3248V29.8022H12.6202V30.3931H12.0293V30.6885H12.9157V30.3931H13.2111V30.6885H13.5065V30.3931H14.0974V30.6885H13.802V30.9839H14.0974V31.2794H14.3928V31.5748H14.6883V30.9839H14.3928V30.3931H14.6883V30.6885H14.9837V30.0976H15.2791V30.0981ZM15.5746 29.2123V29.5077H16.1655V29.2123H15.5746ZM15.5746 30.3935H15.87V30.0981H15.5746V30.3935ZM18.2326 26.2584H17.3462V26.5538H18.2326V26.2584ZM18.528 26.5538H18.8234V25.9629H18.528V26.5538ZM16.7558 25.668V25.9634H18.8234V25.668H16.7558ZM18.528 27.1447H18.8234V26.5538H18.528V27.1447ZM16.7558 27.7355H18.8234V27.4401H16.7558V27.7355ZM17.3467 27.1447H18.233V26.5538H17.3467V27.1447ZM18.528 27.4401H18.8234V27.1447H18.528V27.4401ZM13.2116 29.2123V29.5077H13.8024V29.2123H13.2116ZM11.7349 28.9168H12.0303V29.2123H12.3257V28.9168H12.0303V28.6214H11.7349V28.9168H11.4394V29.2123H11.7349V28.9168ZM13.507 29.8027H13.2116V30.0981H13.507V29.8027ZM12.3253 28.6214H13.2116V28.3259H13.507V28.0305H12.0303V28.3259H12.3257V28.6214H12.3253ZM11.7349 28.0305H11.4394V28.3259H11.7349V28.0305ZM13.507 27.4401H11.4394V27.7355H13.507V27.4401ZM12.9161 26.2584H12.0298V26.5538H12.9161V26.2584ZM11.7349 25.9634H11.4394V26.5543H11.7349V25.9634ZM12.0303 27.1447H12.9166V26.5538H12.0303V27.1447ZM11.7349 26.5538H11.4394V27.1447H11.7349V26.5538ZM11.4394 30.9844H13.507V33.052H11.4394V30.9844ZM11.7349 32.7565H13.2116V31.2798H11.7349V32.7565ZM18.2326 30.3935H17.9371V30.689H18.2326V30.3935ZM13.8024 31.5748V32.4611H14.0979V32.7565H13.8024V33.052H14.0979V32.7565H14.6887V33.052H14.9842V32.4611H15.2796V32.1657H14.3933V32.4611H14.0979V31.2798H13.8024V31.5753V31.5748ZM13.507 25.668H11.4394V25.9634H13.507V25.668ZM12.0303 28.6214V28.3259H11.7349V28.6214H12.0303ZM12.0303 32.1657V32.4611H12.9166V31.5748H12.0303V32.1657Z" fill="black"/>
<path d="M14.9837 26.5538H13.8024V26.2584H14.0979V25.9629H14.3933V26.2584H14.6887V25.9629H14.9842V26.5538H14.9837ZM15.5746 25.668H14.6887V25.9634H15.5746V25.668ZM15.2791 28.6214H15.87V28.3259H15.2791V28.6214ZM15.5746 28.0305H15.87V27.4396H15.5746V28.0305ZM14.0974 26.5538H13.802V27.1447H14.0974V26.5538ZM16.165 25.668H15.8695V25.9634H16.165V25.668ZM17.0513 25.9634H16.7558V26.5543H17.0513V25.9634ZM15.2791 26.5538H15.5746V26.2584H15.87V26.5538H16.4609V25.9629H15.2796V26.5538H15.2791ZM13.2116 29.2123V28.9168H13.8024V28.6214H12.6212V28.9168H12.9166V29.2123H13.212H13.2116ZM13.2116 27.1447H13.507V26.5538H13.2116V27.1447ZM13.507 25.9634H13.2116V26.5543H13.507V25.9634ZM14.3928 27.7355H14.6883V27.4401H14.3928V27.7355H14.0974V27.4401H13.802V28.031H14.3928V27.7355ZM14.0974 27.1447H13.802V27.4401H14.0974V27.1447ZM14.3928 28.9168V28.6214H14.0974V28.9168H14.3928ZM14.6883 28.3259H14.9837V28.0305H14.3928V28.3259H13.802V28.6214H14.6883V28.3259ZM16.4604 26.8492H16.165V27.1447H16.4604V26.8492ZM13.2116 27.4401H13.507V27.1447H13.2116V27.4401ZM15.2791 27.4401H14.9837V28.031H15.2791V27.4401ZM14.6883 29.5077H15.2791V29.2123H14.6883V29.5077ZM14.9837 27.1447H14.6883V27.4401H14.9837V27.1447ZM14.9837 27.1447V26.8492H14.6883V27.1447H14.9837ZM17.3467 29.2123V28.9168H17.9376V28.6214H14.6887V29.2123H14.9842V28.9168H15.2796V29.2123H15.5751V28.9168H16.4614V29.2123H17.3477H17.3467ZM14.3928 26.5538V26.8492H14.6883V26.5538H14.3928ZM15.8695 27.4401H16.4604V27.1447H15.8695V27.4401ZM17.0513 26.5538H16.7558V27.1447H17.0513V26.5538ZM16.165 28.6214H16.4604V28.3259H16.165V28.6214ZM17.0513 27.1447H16.7558V27.4401H17.0513V27.1447ZM18.528 28.6214V28.3259H18.2326V28.6214H18.528ZM17.0513 28.6214H17.3467V28.3259H18.233V28.0305H16.7563V28.3259H17.0518V28.6214H17.0513ZM15.5746 26.8492H15.87V26.5538H15.5746V26.8492ZM16.4604 27.4401H16.165V28.031H16.4604V27.4401ZM11.7349 27.1447H11.4394V27.4401H11.7349V27.1447ZM18.2326 28.9168H18.528V29.2123H18.8234V28.6214H18.2326V28.9168ZM16.7558 31.2798H17.0513V30.9844H16.7558V31.2798ZM17.9371 29.5077H18.2326V30.0986H18.528V30.394H18.8234V29.8031H18.528V29.5077H18.8234V29.2123H17.9371V29.5077ZM17.6417 29.5077H17.9371V30.0986H17.6417V30.6894H17.9371V30.9849H18.8234V33.0524H16.4604V32.757H15.5741V32.4616H15.8695V32.1661H16.165V31.8707H15.5741V31.5753H15.8695V31.2798H16.165V30.9844H15.8695V31.2798H15.5741V31.5753H15.2787V31.8707H14.9832V31.2798H15.2787V30.9844H14.9832V30.689H16.1645V30.0981H16.4599V30.3935H16.7554V29.8027H16.1645V30.0981H15.8691V29.8027H16.1645V29.5072H16.4599V29.2118H17.6412V29.5072H17.3458V29.8027H17.6412V29.5072L17.6417 29.5077ZM16.7558 29.8027H17.0513V29.5072H16.7558V29.8027ZM16.4604 31.5748H17.3467V30.6885H16.4604V31.5748ZM17.6417 32.1657H17.3462V31.8702H17.0508V32.1657H16.4599V32.7565H17.0508V32.4611H17.6417V32.1657ZM18.528 32.1657H18.2326V32.4611H17.9371V32.7565H18.528V32.1657ZM17.6417 30.9844V31.2798H17.9371V31.5753H17.6417V31.8707H17.9371V31.5753H18.2326V31.8707H18.528V31.5753H18.2326V31.2798H17.9371V30.9844H17.6417ZM15.2791 30.0981V29.8027H14.6883V30.0981H14.3928V30.3935H14.0974V29.5072H13.802V30.0981H13.5065V30.3935H13.2111V30.0981H12.9157V29.2118H12.0293V29.5072H12.3248V29.8027H12.0293V29.5072H11.7339V29.2118H11.4385V30.6885H11.7339V29.8022H12.0293V30.0976H12.3248V29.8022H12.6202V30.3931H12.0293V30.6885H12.9157V30.3931H13.2111V30.6885H13.5065V30.3931H14.0974V30.6885H13.802V30.9839H14.0974V31.2794H14.3928V31.5748H14.6883V30.9839H14.3928V30.3931H14.6883V30.6885H14.9837V30.0976H15.2791V30.0981ZM15.5746 29.2123V29.5077H16.1655V29.2123H15.5746ZM15.5746 30.3935H15.87V30.0981H15.5746V30.3935ZM18.2326 26.2584H17.3462V26.5538H18.2326V26.2584ZM18.528 26.5538H18.8234V25.9629H18.528V26.5538ZM16.7558 25.668V25.9634H18.8234V25.668H16.7558ZM18.528 27.1447H18.8234V26.5538H18.528V27.1447ZM16.7558 27.7355H18.8234V27.4401H16.7558V27.7355ZM17.3467 27.1447H18.233V26.5538H17.3467V27.1447ZM18.528 27.4401H18.8234V27.1447H18.528V27.4401ZM13.2116 29.2123V29.5077H13.8024V29.2123H13.2116ZM11.7349 28.9168H12.0303V29.2123H12.3257V28.9168H12.0303V28.6214H11.7349V28.9168H11.4394V29.2123H11.7349V28.9168ZM13.507 29.8027H13.2116V30.0981H13.507V29.8027ZM12.3253 28.6214H13.2116V28.3259H13.507V28.0305H12.0303V28.3259H12.3257V28.6214H12.3253ZM11.7349 28.0305H11.4394V28.3259H11.7349V28.0305ZM13.507 27.4401H11.4394V27.7355H13.507V27.4401ZM12.9161 26.2584H12.0298V26.5538H12.9161V26.2584ZM11.7349 25.9634H11.4394V26.5543H11.7349V25.9634ZM12.0303 27.1447H12.9166V26.5538H12.0303V27.1447ZM11.7349 26.5538H11.4394V27.1447H11.7349V26.5538ZM11.4394 30.9844H13.507V33.052H11.4394V30.9844ZM11.7349 32.7565H13.2116V31.2798H11.7349V32.7565ZM18.2326 30.3935H17.9371V30.689H18.2326V30.3935ZM13.8024 31.5748V32.4611H14.0979V32.7565H13.8024V33.052H14.0979V32.7565H14.6887V33.052H14.9842V32.4611H15.2796V32.1657H14.3933V32.4611H14.0979V31.2798H13.8024V31.5753V31.5748ZM13.507 25.668H11.4394V25.9634H13.507V25.668ZM12.0303 28.6214V28.3259H11.7349V28.6214H12.0303ZM12.0303 32.1657V32.4611H12.9166V31.5748H12.0303V32.1657Z" fill="black"/>
<path d="M8.22314 28.7182C8.28743 28.2365 8.09599 28.0644 7.99246 28.0389C7.60911 27.9562 7.52449 28.2738 7.53017 28.4426C7.10238 32.8973 9.8426 35.5316 11.2659 36.2917C12.0151 36.3409 11.7443 35.8961 11.515 35.6678C9.54008 34.2156 8.74642 32.539 8.42782 31.2792C8.10875 30.0195 8.14278 29.3199 8.22314 28.7177V28.7182Z" fill="#013439"/>
<path d="M22.2449 28.9981C22.1981 28.5141 22.3952 28.3496 22.5002 28.3278C22.8864 28.2593 22.9596 28.5793 22.9478 28.7481C23.2144 33.2155 20.3815 35.7482 18.9313 36.4563C18.1807 36.4781 18.4676 36.0437 18.7049 35.8234C20.7309 34.4441 21.5845 32.7972 21.9485 31.5502C22.3125 30.3028 22.304 29.6027 22.2454 28.9976L22.2449 28.9981Z" fill="#013439"/>
<path d="M6.84866 28.6187C6.92902 28.0406 6.68889 27.8341 6.5589 27.8033C6.07817 27.7041 5.97228 28.0846 5.97937 28.2878C5.44617 33.6345 8.88315 36.7988 10.6685 37.713C11.6078 37.7725 11.2679 37.2384 10.9805 36.9642C8.50405 35.22 7.5076 33.2063 7.10676 31.6941C6.70591 30.1819 6.74798 29.342 6.84866 28.6192V28.6187Z" fill="#013439"/>
<path d="M23.6216 28.9486C23.5621 28.3676 23.8098 28.1705 23.9407 28.1441C24.4247 28.0623 24.5165 28.4466 24.5023 28.6494C24.8421 34.0121 21.2931 37.0492 19.4761 37.8977C18.5354 37.9232 18.8942 37.4018 19.1915 37.1381C21.7294 35.485 22.7977 33.5092 23.2525 32.0121C23.7072 30.5156 23.6959 29.6746 23.6212 28.9486H23.6216Z" fill="#013439"/>
<path d="M8.55847 27.3003L8.4904 27.271L8.50033 27.1944C8.506 27.1457 8.49938 27.1107 8.48047 27.0894C8.46015 27.0653 8.42753 27.0436 8.38215 27.0237C8.2583 26.9675 8.13351 26.9122 8.00872 26.8578C7.88393 26.8035 7.75772 26.7486 7.63056 26.6938L7.49821 26.6361C7.37342 26.5818 7.24815 26.5274 7.12336 26.4735C6.99857 26.4192 6.87283 26.3662 6.74709 26.3138C6.70171 26.2939 6.66484 26.2844 6.63648 26.2849C6.60575 26.2849 6.57503 26.3029 6.54336 26.3407L6.48994 26.4021L6.42188 26.3728L6.81232 25.4667C6.92104 25.2143 7.05293 25.0412 7.20844 24.9472C7.36254 24.8503 7.5261 24.8394 7.69863 24.9141C7.79364 24.9552 7.87306 25.0346 7.93734 25.1523C8.00258 25.2677 8.0281 25.4133 8.01392 25.5891L9.06 25.521C9.14698 25.5154 9.21977 25.479 9.27933 25.4128L9.31856 25.357L9.38332 25.3849L9.13658 25.9578L7.92033 26.0022L7.82011 26.2353C7.97327 26.3019 8.11082 26.3615 8.23373 26.4149C8.35663 26.4683 8.47244 26.5175 8.58116 26.5619C8.62417 26.5808 8.66152 26.5893 8.69319 26.5874C8.72533 26.5837 8.75606 26.5633 8.78442 26.5269L8.84067 26.4589L8.90874 26.4882L8.55894 27.3007L8.55847 27.3003ZM7.72699 26.1937L7.80215 26.0188C7.86833 25.8656 7.87778 25.7366 7.83051 25.6316C7.78372 25.5267 7.68067 25.4397 7.5209 25.3702C7.3616 25.3008 7.22924 25.2847 7.12383 25.3206C7.01747 25.3537 6.93192 25.4459 6.86668 25.5971L6.78727 25.7815C6.87141 25.8179 6.95697 25.8567 7.04442 25.8968C7.13045 25.9342 7.22877 25.9767 7.33844 26.0245C7.44621 26.0713 7.57526 26.1275 7.72605 26.1927L7.72699 26.1937Z" fill="black"/>
<path d="M21.1396 25.9217L21.2077 25.8928L21.2559 25.9529C21.2871 25.9907 21.3169 26.0101 21.3453 26.0105C21.3765 26.0124 21.4152 26.0039 21.4606 25.9845C21.5868 25.9335 21.7126 25.881 21.8383 25.8281C21.9636 25.7747 22.0902 25.7212 22.2179 25.6669L22.3507 25.6106C22.476 25.5572 22.6017 25.5043 22.727 25.4509C22.8522 25.3974 22.9775 25.3431 23.1018 25.2878C23.1472 25.2684 23.1793 25.2485 23.1987 25.2273C23.22 25.2055 23.228 25.1701 23.2228 25.1214L23.2153 25.0406L23.2833 25.0117L23.6662 25.9212C23.773 26.1746 23.8066 26.3901 23.7664 26.5678C23.7296 26.747 23.6251 26.8732 23.4521 26.9465C23.3571 26.9871 23.2446 26.99 23.1155 26.9555C22.9869 26.9233 22.8645 26.8411 22.7482 26.7096L22.0746 27.5165C22.0189 27.5837 21.9943 27.6617 22.0014 27.7505L22.0146 27.8176L21.9498 27.8451L21.7078 27.2703L22.5157 26.3565L22.4173 26.1226C22.2637 26.1878 22.1257 26.2464 22.0023 26.2989C21.8789 26.3513 21.7641 26.4014 21.6568 26.4497C21.6138 26.4681 21.5816 26.4894 21.5613 26.5135C21.5419 26.5395 21.5353 26.5754 21.5419 26.6213L21.5518 26.7087L21.4838 26.7375L21.1401 25.9226L21.1396 25.9217ZM22.5109 26.0814L22.5847 26.2568C22.6494 26.4104 22.7359 26.5064 22.8437 26.5451C22.9515 26.5834 23.0857 26.5688 23.2455 26.5007C23.4053 26.4326 23.5088 26.348 23.5551 26.2464C23.6048 26.1462 23.5977 26.0205 23.5339 25.8687L23.4559 25.6834C23.3717 25.7193 23.2847 25.7548 23.1949 25.7902C23.1084 25.8271 23.0101 25.8687 22.9 25.9155C22.7917 25.9614 22.6622 26.0167 22.5109 26.081V26.0814Z" fill="black"/>
<path d="M10.8169 23.634L10.7834 23.5641L10.8377 23.5144C10.8718 23.4823 10.8897 23.4487 10.8911 23.4142C10.8916 23.3774 10.8807 23.3358 10.8585 23.289L10.105 21.7158C10.0847 21.6733 10.063 21.6421 10.0403 21.6218C10.0166 21.5991 9.97977 21.591 9.93061 21.5967L9.84411 21.6033L9.81055 21.5334L10.4165 21.2408L11.7576 22.5066L11.5751 20.6816L12.1939 20.3828L12.2274 20.4528L12.1844 20.4934C12.1504 20.5256 12.1324 20.5591 12.131 20.5936C12.1282 20.6263 12.1372 20.6636 12.1575 20.7061C12.2142 20.83 12.2719 20.9534 12.331 21.0763C12.3886 21.1973 12.4477 21.3197 12.5078 21.445L12.5702 21.5754C12.6288 21.6983 12.6879 21.8212 12.7465 21.9441C12.8056 22.067 12.8646 22.1885 12.9247 22.3081C12.9459 22.3525 12.9677 22.3837 12.9894 22.4022C13.0112 22.4206 13.0457 22.4272 13.093 22.4225L13.1672 22.414L13.2007 22.484L12.4298 22.8564L12.3962 22.7865L12.4553 22.7307C12.4884 22.6967 12.5035 22.6655 12.5007 22.6381C12.4992 22.6073 12.4879 22.5709 12.4681 22.5289L12.1376 21.8392L11.7363 20.9846L11.9476 23.0895L11.7699 23.175L10.2383 21.7314L10.5981 22.4499L10.9757 23.2379C10.998 23.2847 11.0221 23.3183 11.0481 23.34C11.0741 23.3613 11.1095 23.3679 11.1549 23.3589L11.2291 23.3504L11.2627 23.4204L10.8183 23.635L10.8169 23.634Z" fill="black"/>
<path d="M12.0239 38.4511L12.0366 38.3746L12.1094 38.3656C12.1558 38.359 12.1898 38.3424 12.2111 38.315C12.2328 38.2852 12.2479 38.245 12.2564 38.194L12.5448 36.4738C12.5524 36.4275 12.5528 36.3897 12.5462 36.3599C12.5396 36.3278 12.5145 36.2999 12.4711 36.2758L12.3964 36.2309L12.4091 36.1543L13.0728 36.2663L13.441 38.0763L14.3406 36.4809L15.0179 36.5953L15.0052 36.6719L14.9466 36.6799C14.9002 36.6866 14.8667 36.7031 14.8454 36.7305C14.8246 36.7556 14.81 36.7915 14.8024 36.8378C14.7773 36.9721 14.7537 37.1058 14.7315 37.2406C14.7093 37.3724 14.6866 37.5072 14.6639 37.6438L14.6398 37.786C14.6171 37.9203 14.5949 38.055 14.5722 38.1893C14.5495 38.3235 14.5287 38.4573 14.5088 38.5896C14.5008 38.6383 14.5003 38.6766 14.5074 38.704C14.515 38.7314 14.5391 38.757 14.5802 38.7806L14.6455 38.8165L14.6327 38.8931L13.7885 38.7503L13.8012 38.6738L13.8816 38.6624C13.9284 38.6534 13.9586 38.6374 13.9719 38.6133C13.9879 38.5873 14.0002 38.5513 14.0078 38.505L14.134 37.7511L14.2971 36.8208L13.26 38.661L13.0652 38.6279L12.6431 36.5627L12.524 37.3573L12.3793 38.219C12.3708 38.2701 12.3708 38.3117 12.3798 38.3443C12.3888 38.3769 12.4143 38.4024 12.4564 38.4214L12.5216 38.4573L12.5089 38.5339L12.0225 38.4516L12.0239 38.4511Z" fill="black"/>
<path d="M15.625 22.2012L15.6434 22.1261L15.7167 22.1223C15.7635 22.119 15.7985 22.1048 15.8216 22.0788C15.8453 22.0509 15.8632 22.0117 15.8755 21.9616L16.2849 20.266C16.2958 20.2202 16.2991 20.1824 16.2943 20.1521C16.2901 20.1195 16.2669 20.0897 16.2253 20.0628L16.1539 20.0127L16.1724 19.9375L16.8261 20.0968L17.0653 21.9285L18.0755 20.4012L18.7429 20.5638L18.725 20.639L18.6659 20.6428C18.6191 20.6461 18.5841 20.6603 18.5609 20.6863C18.5382 20.7099 18.5217 20.7444 18.5103 20.7898C18.4763 20.9217 18.4432 21.054 18.4111 21.1864C18.3794 21.3164 18.3477 21.4492 18.3151 21.5839L18.2811 21.7243C18.2489 21.8567 18.2173 21.989 18.1851 22.1218C18.153 22.2542 18.1227 22.3861 18.0934 22.5165C18.0816 22.5643 18.0788 22.6026 18.084 22.6305C18.0892 22.6583 18.1119 22.6858 18.1511 22.7122L18.214 22.7529L18.196 22.828L17.3641 22.6253L17.3825 22.5501L17.4638 22.5444C17.5111 22.5392 17.5423 22.525 17.5574 22.5019C17.5753 22.4773 17.59 22.4423 17.6009 22.3965L17.7805 21.6534L18.0088 20.7373L16.8441 22.499L16.6522 22.4523L16.3775 20.3615L16.2026 21.1457L15.9975 21.9952C15.9852 22.0453 15.9824 22.0869 15.989 22.1199C15.9956 22.153 16.0192 22.1804 16.0599 22.2027L16.1228 22.2433L16.1043 22.3185L15.625 22.2017V22.2012Z" fill="black"/>
<path d="M18.3027 22.9352L18.3453 22.8746L18.4015 22.8926C18.4526 22.9058 18.4937 22.9044 18.5244 22.8888C18.557 22.8746 18.5887 22.8463 18.618 22.8042C18.697 22.696 18.7745 22.5868 18.8511 22.4771C18.9291 22.3656 19.0075 22.254 19.0855 22.1424L19.1583 22.0384C19.2363 21.9269 19.3129 21.8153 19.388 21.7042C19.466 21.5927 19.5445 21.4811 19.6225 21.3696C19.6546 21.3233 19.6726 21.284 19.675 21.2514C19.6792 21.2169 19.6646 21.1781 19.632 21.1346L19.596 21.0878L19.6386 21.0273L20.4502 21.6003C20.6804 21.7629 20.817 21.9241 20.86 22.0838C20.9045 22.2417 20.8808 22.3859 20.7891 22.5168C20.7192 22.617 20.6194 22.6818 20.4899 22.7111C20.3618 22.7385 20.1945 22.7054 19.9879 22.6114C20.1826 22.7834 20.297 22.946 20.3306 23.0992C20.3642 23.2523 20.3368 23.3913 20.2493 23.5161C20.2063 23.5775 20.1491 23.631 20.0777 23.6754C20.0078 23.7179 19.9222 23.742 19.8206 23.7482C19.7208 23.7553 19.605 23.7368 19.4727 23.6924C19.3417 23.6461 19.1928 23.5638 19.026 23.4461L18.3032 22.9361L18.3027 22.9352ZM19.5875 22.298L19.7227 22.3934C19.8532 22.4856 19.9676 22.523 20.0654 22.5059C20.1666 22.4885 20.2673 22.4081 20.367 22.2658C20.4705 22.1174 20.5164 21.995 20.5046 21.8971C20.4927 21.7997 20.4289 21.7099 20.3141 21.6286L20.1415 21.5067L19.588 22.2975L19.5875 22.298ZM18.9224 23.2476L19.0808 23.3592C19.225 23.4608 19.3573 23.501 19.4779 23.4802C19.5989 23.4589 19.7142 23.3696 19.8248 23.2117C19.9312 23.0595 19.9714 22.9285 19.9454 22.8179C19.9227 22.7068 19.8333 22.5967 19.6783 22.487L19.5284 22.3811L18.9224 23.2471V23.2476Z" fill="black"/>
<path d="M9.52971 25.4128L9.4815 25.3547L9.50608 25.297C9.54011 25.2185 9.52877 25.1434 9.47204 25.072L8.83674 24.3076C8.75591 24.2103 8.66751 24.1063 8.57203 23.9971C8.47796 23.8855 8.38767 23.7792 8.30164 23.6771C8.23783 23.6028 8.16362 23.5915 8.07853 23.6435L8.0478 23.6638L8.00195 23.6028L9.00407 22.3828L9.42052 22.8423L9.36238 22.9132L9.09956 22.778C9.03102 22.7425 8.97004 22.7302 8.91615 22.7406C8.86368 22.7492 8.81121 22.7851 8.75921 22.8484L8.4841 23.1836L9.11941 23.9479L9.30943 23.7163C9.37372 23.6383 9.39074 23.549 9.36096 23.4478L9.30565 23.2601L9.35245 23.2029L9.79584 23.7347L9.74904 23.7919L9.62425 23.7385C9.52546 23.696 9.44226 23.7158 9.37514 23.7976L9.18511 24.0292C9.29242 24.1578 9.40445 24.2916 9.52073 24.431C9.63749 24.5705 9.7533 24.7047 9.86911 24.8342L10.2161 24.4121C10.2624 24.3559 10.2908 24.2987 10.3021 24.241C10.313 24.1833 10.3068 24.1152 10.2827 24.0373L10.1702 23.6695L10.2284 23.5986L10.6112 24.0987L9.53113 25.4137L9.52971 25.4128Z" fill="black"/>
<path d="M13.5238 22.4325L13.5163 22.3588L13.5839 22.3271C13.6245 22.311 13.6519 22.2883 13.6652 22.2586C13.6784 22.2264 13.6836 22.1848 13.6803 22.1328L13.4978 20.3697C13.4903 20.321 13.4785 20.2841 13.4619 20.26C13.4449 20.2335 13.4137 20.2156 13.3678 20.2061L13.2917 20.1891L13.2842 20.1154L14.9523 19.9414L15.0351 20.4997L14.9367 20.5101L14.7637 20.2094C14.7406 20.1669 14.716 20.1352 14.69 20.1144C14.664 20.0913 14.6276 20.0818 14.5808 20.087L13.9852 20.1494C13.998 20.2945 14.0121 20.4444 14.0282 20.5985C14.0438 20.7502 14.0618 20.9223 14.0816 21.1137L14.4286 21.0773C14.4754 21.0726 14.5089 21.057 14.5302 21.0314C14.5534 21.0031 14.5732 20.9667 14.5898 20.9223L14.6356 20.7828L14.7127 20.7748L14.7798 21.4233L14.7027 21.4313L14.6257 21.3047C14.6025 21.2645 14.578 21.2328 14.552 21.2097C14.526 21.1865 14.4896 21.177 14.4428 21.1822L14.0925 21.2186C14.11 21.3869 14.1251 21.5316 14.1374 21.653C14.1502 21.7745 14.161 21.8832 14.171 21.9792C14.1828 22.0723 14.1936 22.1645 14.2031 22.2557L14.8762 22.1853C14.923 22.1806 14.958 22.165 14.9812 22.139C15.0043 22.1106 15.0218 22.0733 15.0332 22.0274L15.1301 21.6984L15.2284 21.688L15.2619 22.2515L13.5238 22.433V22.4325Z" fill="black"/>
<path d="M15.9028 38.869L15.8858 38.7972L15.9487 38.757C15.987 38.7357 16.0111 38.7097 16.0205 38.6785C16.0295 38.645 16.029 38.6029 16.0196 38.5519L15.6135 36.8265C15.5998 36.7792 15.5833 36.7443 15.5639 36.7225C15.5436 36.6984 15.5105 36.6847 15.4637 36.6809L15.3862 36.6738L15.3691 36.602L17.0014 36.2148L17.1545 36.758L17.0586 36.7807L16.8487 36.5046C16.8203 36.4654 16.792 36.437 16.7636 36.42C16.7348 36.4001 16.6974 36.3959 16.652 36.4068L16.0692 36.5453C16.1004 36.6875 16.1335 36.8341 16.1689 36.9853C16.2039 37.1338 16.2436 37.302 16.2876 37.4897L16.627 37.4093C16.6728 37.3985 16.7045 37.3791 16.7215 37.3507C16.7409 37.3195 16.7556 37.2812 16.7669 37.2349L16.7943 37.0908L16.87 37.0728L17.0193 37.7071L16.9437 37.7251L16.8515 37.6093C16.8236 37.5724 16.7953 37.5441 16.7664 37.5247C16.7376 37.5048 16.7003 37.5006 16.6549 37.5115L16.3122 37.5928C16.3509 37.7573 16.384 37.8991 16.4124 38.0182C16.4403 38.1373 16.4653 38.2432 16.4875 38.3373C16.5112 38.428 16.5339 38.5183 16.5547 38.6076L17.2131 38.4516C17.259 38.4408 17.2916 38.4209 17.3115 38.3921C17.3308 38.3609 17.3431 38.3217 17.3488 38.2744L17.4032 37.9355L17.4991 37.9128L17.6041 38.4672L15.9033 38.8709L15.9028 38.869Z" fill="black"/>
<path d="M20.0264 24.2404L20.084 24.1941L20.1474 24.2338C20.1828 24.2593 20.2169 24.2697 20.249 24.265C20.283 24.2588 20.3209 24.2404 20.3625 24.2097L21.7427 23.0974C21.7796 23.0648 21.8037 23.0346 21.8151 23.0076C21.8283 22.9788 21.8264 22.9429 21.8094 22.8989L21.7824 22.8256L21.8401 22.7793L22.8871 24.0896L22.4636 24.4626L22.4021 24.3855L22.561 24.0764C22.5841 24.0338 22.5974 23.996 22.6012 23.9629C22.6064 23.9284 22.5945 23.893 22.5652 23.8561L22.1913 23.3881C22.0765 23.4775 21.9588 23.5711 21.8377 23.6684C21.7186 23.7644 21.5844 23.8726 21.4345 23.9937L21.6524 24.2664C21.6818 24.3033 21.713 24.3231 21.746 24.3269C21.7824 24.3307 21.8236 24.3279 21.8694 24.3179L22.0112 24.2806L22.0594 24.3411L21.5518 24.75L21.5035 24.6895L21.5683 24.5557C21.5896 24.5146 21.6028 24.4768 21.6085 24.4422C21.6137 24.4077 21.6019 24.3718 21.5726 24.3354L21.3528 24.0603C21.2209 24.1667 21.1074 24.2579 21.0124 24.3345C20.9174 24.411 20.8323 24.4796 20.7572 24.5401C20.6853 24.6011 20.6139 24.6602 20.5426 24.7174L20.9647 25.2458C20.994 25.2827 21.0261 25.3035 21.0602 25.3092C21.0966 25.313 21.1372 25.3078 21.1821 25.2922L21.5106 25.1953L21.5721 25.2723L21.1178 25.607L20.0268 24.2414L20.0264 24.2404Z" fill="black"/>
<defs>
<linearGradient id="paint0_linear_811_83" x1="11.4394" y1="29.3597" x2="18.8234" y2="29.3597" gradientUnits="userSpaceOnUse">
<stop stop-color="#2E3192"/>
<stop offset="1"/>
</linearGradient>
</defs>
</svg>
