<svg width="72" height="72" viewBox="0 0 72 72" fill="none" xmlns="http://www.w3.org/2000/svg">
<path d="M0 35.8333C0 16.0431 16.0431 0 35.8333 0C55.6235 0 71.6667 16.0431 71.6667 35.8333C71.6667 55.6235 55.6235 71.6667 35.8333 71.6667C16.0431 71.6667 0 55.6235 0 35.8333Z" fill="#D4AF37"/>
<path d="M41.0595 47.5924V44.9796C41.0595 43.5937 40.5089 42.2645 39.5289 41.2845C38.5489 40.3045 37.2197 39.7539 35.8338 39.7539H27.9952C26.6093 39.7539 25.2801 40.3045 24.3001 41.2845C23.3201 42.2645 22.7695 43.5937 22.7695 44.9796V47.5924" stroke="#0A2E5C" stroke-width="2.61285" stroke-linecap="round" stroke-linejoin="round"/>
<path d="M41.0586 24.2422C42.1792 24.5327 43.1716 25.1871 43.88 26.1026C44.5885 27.0182 44.9729 28.143 44.9729 29.3007C44.9729 30.4583 44.5885 31.5832 43.88 32.4987C43.1716 33.4142 42.1792 34.0686 41.0586 34.3591" stroke="#0A2E5C" stroke-width="2.61285" stroke-linecap="round" stroke-linejoin="round"/>
<path d="M48.8978 47.5906V44.9777C48.8969 43.8199 48.5115 42.6951 47.8022 41.78C47.0928 40.8649 46.0996 40.2113 44.9785 39.9219" stroke="#0A2E5C" stroke-width="2.61285" stroke-linecap="round" stroke-linejoin="round"/>
<path d="M31.9132 34.5276C34.7993 34.5276 37.1389 32.1879 37.1389 29.3019C37.1389 26.4158 34.7993 24.0762 31.9132 24.0762C29.0271 24.0762 26.6875 26.4158 26.6875 29.3019C26.6875 32.1879 29.0271 34.5276 31.9132 34.5276Z" stroke="#0A2E5C" stroke-width="2.61285" stroke-linecap="round" stroke-linejoin="round"/>
</svg>
